<?xml version="1.0" encoding="UTF-8"?>
<svg id="Layer_1" xmlns="http://www.w3.org/2000/svg" xmlns:xlink="http://www.w3.org/1999/xlink" viewBox="0 0 500 217.21">
  <defs>
    <style>
      .cls-1 {
        fill: none;
      }

      .cls-2 {
        fill: #f69320;
      }

      .cls-3 {
        fill: #b3b3b3;
      }

      .cls-4 {
        clip-path: url(#clippath);
      }
    </style>
    <clipPath id="clippath">
      <rect class="cls-1" y=".02" width="500" height="217.19"/>
    </clipPath>
  </defs>
  <g class="cls-4">
    <path class="cls-3" d="M55.17,217.21c-8.54,0-13.76-4.79-13.76-12.56,0-7,4.2-16.42,14.03-26.97,13.44-14.46,30.07-25.75,44.37-37.14-8.77-5.72-21.6-6.85-35.15-6.85-8.63,0-17.6.45-25.98.45-16.97,0-31.69-1.85-37.14-12.99-1.04-2.12-1.54-4.56-1.54-7.21C0,84.01,62.19,24.38,110.04,24.38c16.54,0,23.74,7.66,23.74,18.8,0,14.59-12.4,35.17-32.42,52.34-11.88,10.19-27,19-31.67,19s.93-8.27,8.58-8.95c5.96-.54,15.63-9.22,19.99-13.22,17.26-15.77,30.41-35.65,30.41-48.86,0-8.56-5.53-14.3-19.02-14.3-45.02,0-101.61,61.67-101.61,84.24,0,1.78.36,3.34,1.11,4.59,3.98,6.64,15.59,7.77,29.84,7.77,7.41,0,15.52-.32,23.63-.32,16.76,0,33.57,1.31,44.16,9.33,14.07-11.88,29.8-28.94,42.13-47.87-.77-12.18-1.6-25.26-1.6-37.84,0-5.56.16-11.05.56-16.29,1.78-22.84,9.13-32.8,15.93-32.8s12.74,9.6,12.74,25.66c0,14.57-4.95,34.5-18.77,57.43,1.02,19.95,1.99,42.7,1.83,65.06,6.96-17.89,18.28-34.2,28.8-34.2,16.26,0,11.25,33.86,29.23,33.86,9.4,0,20.56-10.1,26.52-21.03,1.56-2.87,3.57-6.19,4.56-5.72.5.25.68.72.68,1.36,0,1.45-.99,3.66-1.92,5.53-8.56,17.64-20.6,24.74-30.93,24.74-23.83,0-21.85-31.4-29.84-31.4s-25.64,29.41-28.13,49.65c-.36,3.05-2.69,4.38-4.68,3.59-3.34-1.29-3.98-3.41-3.98-5.65,0-.97.11-1.97.18-2.89.7-9.49.99-18.61.99-27.43,0-14.98-.81-29.12-1.67-42.83-11.63,16.27-25.64,30.93-39.24,42.06.72.77,1.4,1.58,2.03,2.44,3.09,4.2,4.56,9.1,4.56,14.48,0,11.86-7.25,25.91-20.4,39.22-16.29,16.49-31.11,23.25-41.27,23.25l.05.02ZM55.89,211.65c8.49,0,22.21-6.8,36.89-22.48,11.66-12.47,16.76-23.22,16.76-31.81,0-4.79-1.58-8.92-4.47-12.31-.5-.59-1.04-1.11-1.6-1.65-12.13,9.62-30.81,22.68-44.41,38.09-8.34,9.47-11.88,17.1-11.88,22.34s3.3,7.84,8.72,7.84v-.02ZM157.28,72.83c10.14-19.2,13.49-36.01,13.49-48.1s-3.48-19.74-6.75-19.74c-4.11,0-8.38,10.12-8.38,32.15,0,14.46,1.31,29.62,1.65,35.69Z"/>
    <path class="cls-3" d="M287.62,160.26c-12.38-.05-14.66-25.6-14.71-38.02,0-2.28,0-3.52-.32-3.52-.25,0-.72.95-1.56,2.98-3.86,9.33-10.35,23.61-18.61,23.61-6.1,0-8.67-5.44-8.67-12.11,0-7.21,2.98-16.24,7.77-23.13,4.52-6.51,11.09-10.87,16.56-10.87,2.78,0,5.29,1.13,7.09,3.68.88,1.27,1.15,3.05.16,4.31-.68.86-1.33,1.17-1.99,1.17-1.11,0-2.24-.9-3.46-1.58-.77-.43-1.58-.63-2.37-.63-6.96,0-14.25,15.34-16.56,23.61-.75,2.67-1.06,4.74-1.06,6.28,0,2.55.88,3.66,2.19,3.66,1.42,0,3.34-1.29,5.24-3.5,3.28-3.84,6.48-10.35,8.95-16.13,2.8-6.6,6.62-10.37,9.76-10.37s5.6,3.8,5.69,12.43c.07,6.46.43,32.15,6.87,32.15,5.99,0,20.87-22.21,23.95-27.04,2.78-4.38,4.29-6.03,5.38-6.03.63,0,.93.38.93,1.11,0,1.24-.88,3.5-2.58,6.53-4.7,8.43-18.32,31.49-28.69,31.45l.04-.02Z"/>
    <path class="cls-3" d="M321.38,152.06c-2.8,0-3.41-3.84-4.25-7.91-.72-3.5-2.58-13.8-2.58-22,0-6.35,1.13-11.18,4.79-11.18,3.21,0,3.66,3.25,3.66,8.88,0,2.33-.07,5.06-.07,8.16,0,4.97,0,6.8.18,6.8s.66-1.88,1.56-4.22c3.52-9.06,11.18-21.94,21.12-25.46,1.11-.38,2.1-.56,2.96-.56,3.93,0,5.35,3.52,4.18,5.81-.77,1.49-2.37,1.99-3.77,1.56-.56-.18-1.08-.25-1.58-.25-1.67,0-3.12.88-4.74,1.97-11.91,8.02-16.85,28.94-17.73,32.06-1.11,3.95-2.1,6.39-3.7,6.39l-.02-.02Z"/>
    <path class="cls-3" d="M401.46,160.26c-12.38-.05-14.66-25.6-14.71-38.02,0-2.28,0-3.52-.32-3.52-.25,0-.72.95-1.56,2.98-3.86,9.33-10.35,23.61-18.61,23.61-6.1,0-8.67-5.44-8.67-12.11,0-7.21,2.98-16.24,7.77-23.13,4.52-6.51,11.09-10.87,16.56-10.87,2.78,0,5.29,1.13,7.1,3.68.88,1.27,1.15,3.05.16,4.31-.67.86-1.33,1.17-1.99,1.17-1.11,0-2.24-.9-3.46-1.58-.77-.43-1.58-.63-2.37-.63-6.96,0-14.25,15.34-16.56,23.61-.75,2.67-1.08,4.74-1.08,6.28,0,2.55.88,3.66,2.21,3.66,1.42,0,3.34-1.29,5.24-3.5,3.28-3.84,6.48-10.35,8.95-16.13,2.8-6.6,6.62-10.37,9.76-10.37s5.6,3.8,5.69,12.43c.07,6.46.43,32.15,6.86,32.15,5.99,0,20.88-22.21,23.95-27.04,2.78-4.38,4.29-6.03,5.38-6.03.63,0,.93.38.93,1.11,0,1.24-.88,3.5-2.58,6.53-4.7,8.43-18.32,31.49-28.69,31.45l.05-.02Z"/>
    <path class="cls-3" d="M436,150.93c-1.69,0-3.16-2.06-4.25-5.65-1.56-5.13-1.97-10.19-1.97-15.45,0-5.9.52-12.06.52-18.91,0-1.22-.02-2.24-.02-3.09,0-1.97.16-3.07,1.19-4.04,2.03-1.9,6.3-.36,6.3,9.31,0,4.5-.61,9.13-.61,14.62,0,2.19.09,4.5.36,7,.32,2.91.84,3.09,1.97.75,3.53-7.21,6.28-17.19,12.24-17.19,5.06,0,8.49,5.31,12.54,9.92,3.39,3.84,6.96,6.66,11.61,6.66s10.98-3.12,19.31-11.5c1.99-1.99,3.14-2.64,3.84-2.64s.95.36.95.93c0,1.11-1.06,2.94-2.21,4.27-7.66,8.72-15.09,14.25-22.57,14.25-4.95,0-9.92-2.42-15-7.93-4.13-4.5-6.46-7-8.33-7-2.82,0-4.65,5.63-10.12,18.64-2.06,4.92-4.05,7.09-5.79,7.09l.02-.02Z"/>
    <path class="cls-2" d="M196.77,73.85h-2.06c-1.67,0-2.51-.68-2.51-2.01v-17.42c0-2.28.88-4.02,2.62-5.24,1.45-1.02,3.16-1.54,5.17-1.54h12.74v1.81c0,1.36-.84,2.03-2.51,2.03h-10.19c-.86,0-1.58.23-2.17.66-.72.52-1.08,1.29-1.08,2.28v4.41h15.95v1.81c0,1.36-.84,2.01-2.51,2.01h-13.44v11.2h-.02Z"/>
    <path class="cls-2" d="M223.02,73.85h-2.06c-1.67,0-2.51-.68-2.51-2.01v-22.16c0-1.36.84-2.01,2.51-2.01h2.06v26.21-.02Z"/>
    <path class="cls-2" d="M234.09,73.85h-2.06c-1.67,0-2.51-.68-2.51-2.01v-22.16c0-1.36.84-2.01,2.51-2.01h2.12l15.88,19.52v-17.51c0-1.36.84-2.01,2.53-2.01h2.03v26.21h-2.03c-1.72,0-3.03-.52-3.89-1.58l-14.62-17.96v19.52h.02Z"/>
    <path class="cls-2" d="M278.44,66.39h-13.19l-3.14,7.45h-2.82c-.63,0-1.06-.18-1.29-.54-.18-.32-.18-.72,0-1.2l9.53-22.61c.27-.66.81-1.13,1.65-1.47.84-.34,1.72-.5,2.67-.5s1.81.16,2.64.5c.84.34,1.38.81,1.67,1.47l10.28,24.35h-3.1c-1.17,0-1.97-.47-2.37-1.45l-2.53-6.01ZM272.34,51.91h-.99l-4.47,10.64h9.96l-4.47-10.64h-.02Z"/>
    <path class="cls-2" d="M294.27,73.85h-2.06c-1.67,0-2.51-.68-2.51-2.01v-22.16c0-1.36.84-2.01,2.51-2.01h2.12l15.88,19.52v-17.51c0-1.36.84-2.01,2.53-2.01h2.03v26.21h-2.03c-1.72,0-3.03-.52-3.89-1.58l-14.62-17.96v19.52h.02Z"/>
    <path class="cls-2" d="M325.04,60.52v4.59c0,1.45.72,2.71,2.17,3.8,1.49,1.11,3.34,1.67,5.51,1.67s4-.57,5.51-1.67c.29-.23.54-.45.75-.66.86-.9,1.92-1.08,3.19-.56l1.92.81c-.66,1.24-1.6,2.33-2.85,3.25-2.37,1.76-5.22,2.64-8.52,2.64s-6.19-.88-8.54-2.64c-2.46-1.83-3.68-4.07-3.68-6.66v-8.79c0-2.62,1.22-4.83,3.68-6.66,2.37-1.78,5.22-2.67,8.54-2.67s6.14.88,8.52,2.67c1.24.93,2.19,2.01,2.85,3.23l-1.92.81c-1.24.56-2.3.38-3.19-.54-.2-.2-.45-.41-.75-.66-1.51-1.13-3.34-1.69-5.51-1.69s-4.02.56-5.51,1.69c-1.45,1.08-2.17,2.35-2.17,3.79v4.25Z"/>
    <path class="cls-2" d="M353.66,62.64v4.43c0,.99.36,1.76,1.11,2.3.59.43,1.31.66,2.15.66h10.21c1.67,0,2.51.68,2.51,2.01v1.81h-12.76c-2.01,0-3.73-.5-5.17-1.51-1.74-1.22-2.62-2.98-2.62-5.26v-12.65c0-2.28.88-4.02,2.62-5.24,1.45-1.02,3.16-1.54,5.17-1.54h12.76v1.81c0,1.36-.84,2.03-2.51,2.03h-10.21c-.84,0-1.56.23-2.15.66-.75.54-1.11,1.31-1.11,2.28v4.41h15.97v1.81c0,1.36-.84,2.01-2.51,2.01h-13.46Z"/>
    <path class="cls-2" d="M393.47,47.62v18.82c0,1.08.57,2.03,1.72,2.82,1.29.88,2.87,1.33,4.7,1.33s3.39-.45,4.68-1.33c1.15-.79,1.72-1.74,1.72-2.82v-16.78c0-1.36.83-2.01,2.53-2.01h2.03v18.82c0,1.11.59,2.03,1.74,2.82,1.26.88,2.82,1.33,4.68,1.33s3.39-.45,4.7-1.33c1.15-.81,1.72-1.74,1.72-2.82v-16.79c0-1.36.83-2.01,2.51-2.01h2.06v18.82c0,2.28-1.13,4.18-3.39,5.76-2.1,1.49-4.63,2.24-7.59,2.24s-5.51-.75-7.59-2.24c-.43-.29-.79-.59-1.11-.88-.32.29-.7.59-1.11.88-2.13,1.49-4.65,2.24-7.59,2.24s-5.51-.75-7.59-2.24c-2.26-1.56-3.39-3.48-3.39-5.76v-16.79c0-1.36.83-2.01,2.51-2.01h2.06l.02-.07Z"/>
    <path class="cls-2" d="M439.1,73.85h-2.06c-1.67,0-2.51-.68-2.51-2.01v-22.16c0-1.36.84-2.01,2.51-2.01h2.06v26.21-.02Z"/>
    <path class="cls-2" d="M443.55,51.48v-1.83c0-1.36.84-2.01,2.51-2.01h18.03v1.81c0,1.36-.83,2.03-2.51,2.03h-5.46v22.36h-2.06c-1.67,0-2.51-.68-2.51-2.01v-20.33h-8v-.02Z"/>
    <path class="cls-2" d="M473.15,73.85h-2.06c-1.67,0-2.51-.68-2.51-2.01v-22.16c0-1.36.84-2.01,2.51-2.01h2.06v11.18h14.35v-9.15c0-1.36.83-2.01,2.51-2.01h2.06v26.21h-2.06c-1.67,0-2.51-.68-2.51-2.01v-9.19h-14.35v11.2-.04Z"/>
  </g>
</svg>