<svg version="1.1" xmlns="http://www.w3.org/2000/svg" width="2504" height="1016">
<path d="M0 0 C111.87 0 223.74 0 339 0 C339 72.6 339 145.2 339 220 C334.71 220 330.42 220 326 220 C325.96261719 218.02386719 325.92523438 216.04773438 325.88671875 214.01171875 C324.69928365 161.02079651 322.47837972 97.78468797 287 55 C286.19175781 54.01773438 285.38351562 53.03546875 284.55078125 52.0234375 C261.72073032 25.25117146 226.69701658 16.79019883 193 14 C182.11 13.67 171.22 13.34 160 13 C160 139.72 160 266.44 160 397 C161.32 396.67 162.64 396.34 164 396 C165.36297926 395.85073327 166.7296076 395.73247223 168.09765625 395.640625 C190.81522694 393.89791991 212.62354535 388.84207186 228.65966797 371.56542969 C257.15051399 338.28978221 255.12801765 288.11786707 256 247 C260.29 247 264.58 247 269 247 C269 348.97 269 450.94 269 556 C264.71 556 260.42 556 256 556 C255.97812622 554.6531311 255.97812622 554.6531311 255.95581055 553.27905273 C255.74426022 487.44315624 255.74426022 487.44315624 226.015625 430.87890625 C208.1150841 413.61767038 183.57347176 411.35734718 160 409 C160 542.98 160 676.96 160 815 C162.31 814.67 164.62 814.34 167 814 C168.69499554 813.89784802 170.39216596 813.82560054 172.08984375 813.7890625 C209.26936338 812.75301155 248.39484195 807.44942985 278 783 C278.93714844 782.22785156 279.87429688 781.45570313 280.83984375 780.66015625 C316.76805805 749.56940137 328.15960299 696.41713009 331.44664001 651.16699219 C332.05333429 642.44972956 332.5356127 633.72583735 333 625 C333.11444107 622.91145053 333.22901045 620.82290809 333.34375 618.734375 C333.57380652 614.490098 333.79210581 610.24541811 334 606 C337.96 606 341.92 606 346 606 C346 678.93 346 751.86 346 827 C231.82 827 117.64 827 0 827 C0 823.04 0 819.08 0 815 C20.46 815 40.92 815 62 815 C62 550.34 62 285.68 62 13 C41.54 13 21.08 13 0 13 C0 8.71 0 4.42 0 0 Z " fill="#000000" transform="translate(2,3)"/>
<path d="M0 0 C109.23 0 218.46 0 331 0 C331 73.26 331 146.52 331 222 C328.36 222 325.72 222 323 222 C322.97129822 221.417379 322.94259644 220.834758 322.9130249 220.23448181 C321.04831987 179.46415152 321.04831987 179.46415152 316 139 C315.82243164 137.94119629 315.64486328 136.88239258 315.46191406 135.79150391 C309.91679878 103.93921511 299.03620785 72.4286475 276 49 C275.25363281 48.24074219 274.50726562 47.48148438 273.73828125 46.69921875 C243.08154572 17.35996277 197.4193999 17.18996666 158 15 C158 141.39 158 267.78 158 398 C184.92703993 394.89303385 208.29710013 391.89693883 226.625 371 C235.41305573 359.74321483 240.35798901 346.67498381 244 333 C244.28488281 331.94296875 244.56976562 330.8859375 244.86328125 329.796875 C251.40076344 302.57412864 251.03042385 273.82004666 252 246 C254.64 246 257.28 246 260 246 C260 348.3 260 450.6 260 556 C257.36 556 254.72 556 252 556 C251.95512451 554.7123877 251.91024902 553.42477539 251.86401367 552.09814453 C251.65503934 485.72121467 251.65503934 485.72121467 222.75 428.125 C204.84125177 411.51086008 182.50989584 408.46936849 159 407 C158.67 540.98 158.34 674.96 158 813 C205.1897074 811.37276871 251.02196287 807.53607185 285.30859375 772.1015625 C324.92497219 727.86448032 327.96883787 661.32651914 329 605 C331.64 605 334.28 605 337 605 C337 678.59 337 752.18 337 828 C225.79 828 114.58 828 0 828 C0 825.36 0 822.72 0 820 C19.47 820 38.94 820 59 820 C59 552.37 59 284.74 59 9 C39.53 9 20.06 9 0 9 C0 6.03 0 3.06 0 0 Z " fill="#000000" transform="translate(2165,2)"/>
<path d="M0 0 C71.61 0 143.22 0 217 0 C217 2.64 217 5.28 217 8 C197.53 8 178.06 8 158 8 C158.00523682 14.83823486 158.01047363 21.67646973 158.01586914 28.72192383 C158.03990121 62.58516131 158.05317582 96.44840186 158.06185675 130.31164646 C158.06249705 132.80104892 158.06315635 135.29045137 158.06381607 137.77985382 C158.08754564 228.8871128 158.01839489 319.9941404 157.50451323 586.85034894 C157.49847971 589.72411301 157.492454 592.5978771 157.48642803 595.47164118 C157.33017616 669.98110708 157.168189 744.49056004 157 819 C161.01734895 818.84781901 165.03456084 818.69227014 169.05175781 818.53613281 C170.18404816 818.49328156 171.3163385 818.4504303 172.48294067 818.40628052 C179.94928602 818.11396975 187.33512762 817.70147473 194.75 816.75 C196.27838501 816.55821167 196.27838501 816.55821167 197.83764648 816.36254883 C228.83265138 812.20917483 255.99873066 801.61086446 279 780 C279.88751953 779.2265625 279.88751953 779.2265625 280.79296875 778.4375 C324.45693658 738.61098303 326.2309219 664.94613246 328.74609375 610.56231689 C328.83118227 608.708232 328.91566638 606.85411938 329 605 C331.64 605 334.28 605 337 605 C337 678.59 337 752.18 337 828 C225.79 828 114.58 828 0 828 C0 825.03 0 822.06 0 819 C19.47 819 38.94 819 59 819 C59 551.37 59 283.74 59 8 C39.53 8 20.06 8 0 8 C0 5.36 0 2.72 0 0 Z " fill="#000000" transform="translate(1445,2)"/>
<path d="M0 0 C71.28 0 142.56 0 216 0 C216 2.64 216 5.28 216 8 C196.53 8 177.06 8 157 8 C157 275.63 157 543.26 157 819 C175.94132519 818.42671932 175.94132519 818.42671932 194.75 816.75 C196.27838501 816.55821167 196.27838501 816.55821167 197.83764648 816.36254883 C233.42224912 811.59416232 266.59890851 797.76869276 289.17211914 768.84985352 C311.67642378 738.90865663 320.43184382 701.52085343 325 665 C325.10650879 664.16146484 325.21301758 663.32292969 325.32275391 662.45898438 C327.64562127 643.42318395 328.10462474 624.14404445 329 605 C331.64 605 334.28 605 337 605 C337 678.59 337 752.18 337 828 C225.79 828 114.58 828 0 828 C0 825.03 0 822.06 0 819 C19.47 819 38.94 819 59 819 C59 551.37 59 283.74 59 8 C39.53 8 20.06 8 0 8 C0 5.36 0 2.72 0 0 Z " fill="#000000" transform="translate(725,2)"/>
<path d="M0 0 C11.01375 -0.04125 22.0275 -0.0825 33.375 -0.125 C36.83403809 -0.14320801 40.29307617 -0.16141602 43.85693359 -0.18017578 C48.12817383 -0.18920898 48.12817383 -0.18920898 50.13687134 -0.19088745 C51.51977837 -0.19392957 52.90268058 -0.20090236 54.28555298 -0.21115112 C66.94548008 -0.30016805 79.64929991 -0.02462325 89.8203125 8.53125 C95.81352722 14.91598126 98.2160217 22.28562784 98.5 30.9375 C98.20793078 39.89428928 95.99227099 47.90576894 89.69921875 54.5 C84.32634438 59.24295117 80.13104448 61.06452631 73 62 C75.06991597 65.62869819 77.14055127 69.25698475 79.21191406 72.88485718 C79.94361108 74.16640227 80.67521965 75.44799786 81.40673828 76.72964478 C86.52911029 85.70277191 91.67482521 94.66141687 96.8996582 103.57543945 C100 108.89246239 100 108.89246239 100 110 C94.39 110 88.78 110 83 110 C81.44152344 107.26396484 81.44152344 107.26396484 79.8515625 104.47265625 C78.81167651 102.64864367 77.77137245 100.8248703 76.73095703 99.00115967 C75.99575298 97.71240215 75.26072591 96.42354366 74.52587891 95.13458252 C69.68169397 86.64032681 64.80854337 78.16702177 59.74462891 69.80102539 C57 65.21367682 57 65.21367682 57 63 C43.14 63 29.28 63 15 63 C15 78.51 15 94.02 15 110 C10.05 110 5.1 110 0 110 C0 73.7 0 37.4 0 0 Z M15 14 C15 25.55 15 37.1 15 49 C22.52625331 49.09206426 30.05053558 49.17163782 37.5769043 49.21972656 C40.13458901 49.23978303 42.69222821 49.26703505 45.24975586 49.30175781 C48.93614975 49.35053672 52.62193484 49.37302945 56.30859375 49.390625 C57.44332626 49.41127014 58.57805878 49.43191528 59.74717712 49.45318604 C66.53394004 49.45508382 72.21898143 48.79685944 78 45 C81.90296672 40.21886577 83.3170123 36.30796707 83.21484375 30.12109375 C82.72774333 25.31208413 80.70483468 21.85723136 77.6875 18.1875 C71.3678695 13.04361471 64.36110948 13.73504976 56.6015625 13.8046875 C55.41146576 13.8075174 54.22136902 13.81034729 52.99520874 13.81326294 C49.20503563 13.82443183 45.41510134 13.84953083 41.625 13.875 C39.05078467 13.88503403 36.47656562 13.89415915 33.90234375 13.90234375 C27.60139712 13.92265628 21.30096498 13.96181233 15 14 Z " fill="#000000" transform="translate(1238,901)"/>
<path d="M0 0 C1.7707378 1.31558337 3.47632242 2.7187119 5.15625 4.1484375 C4.09071504 5.99217215 3.00321823 7.82322986 1.90625 9.6484375 C1.30296875 10.669375 0.6996875 11.6903125 0.078125 12.7421875 C-0.55609375 13.53625 -1.1903125 14.3303125 -1.84375 15.1484375 C-6.42030705 15.1484375 -8.72115296 13.70067052 -12.46875 11.3984375 C-18.09143917 8.07258655 -23.6101399 5.19048219 -29.84375 3.1484375 C-30.50890625 2.92414062 -31.1740625 2.69984375 -31.859375 2.46875 C-43.15806279 -0.67935767 -57.53702474 -0.3782611 -67.9296875 5.28515625 C-70.67350578 7.06023869 -72.62798141 8.79781354 -74.34375 11.5859375 C-75.18835514 15.91453882 -74.502501 18.89082196 -72.46875 22.7734375 C-63.59481254 30.80223806 -49.58838898 30.73830774 -38.2265625 31.5703125 C-22.30847585 32.74947829 -7.72786098 33.88739009 4 46.0625 C9.45645655 52.77608135 11.73976834 60.04453697 11.4453125 68.6640625 C10.27821979 78.69475115 5.25004632 85.78278812 -2.28515625 92.25390625 C-17.68364185 103.65583834 -39.70632833 103.21578659 -57.85546875 100.53125 C-71.56646928 97.91852198 -85.51480853 91.56513627 -95.84375 82.1484375 C-94.91547661 80.35197314 -93.97579162 78.56140193 -93.03125 76.7734375 C-92.50917969 75.77570313 -91.98710938 74.77796875 -91.44921875 73.75 C-89.84375 71.1484375 -89.84375 71.1484375 -86.84375 69.1484375 C-85.66232422 69.91027344 -85.66232422 69.91027344 -84.45703125 70.6875 C-65.8558878 82.44254213 -46.59643927 89.98562144 -24.29296875 85.421875 C-17.95514356 83.26543655 -12.36279645 80.08732502 -7.96875 74.9609375 C-6.00611781 70.05435702 -5.05183473 65.04387772 -6.46875 59.86328125 C-8.91441965 54.41147598 -12.18159578 51.59532768 -17.79394531 49.37792969 C-26.36486889 46.54324625 -35.14973116 46.17386997 -44.08691406 45.56713867 C-59.23888383 44.50916765 -75.0936289 43.12882494 -86.21875 31.7109375 C-90.75537089 24.55703533 -91.95858047 18.62331381 -90.84375 10.1484375 C-88.51296491 2.32285472 -83.60802929 -3.40137876 -76.84375 -7.8515625 C-52.02349105 -19.67353418 -22.55670232 -14.68664409 0 0 Z " fill="#000000" transform="translate(720.84375,912.8515625)"/>
<path d="M0 0 C1.65322266 0.01740234 1.65322266 0.01740234 3.33984375 0.03515625 C4.99693359 0.04869141 4.99693359 0.04869141 6.6875 0.0625 C7.54214844 0.07410156 8.39679688 0.08570313 9.27734375 0.09765625 C19.11941955 18.56243562 28.53506886 37.22228828 37.47558594 56.14038086 C40.77677727 63.07510215 44.19059524 69.94884606 47.63671875 76.8125 C48.11295181 77.76143127 48.58918488 78.71036255 49.07984924 79.68804932 C51.50331086 84.51378432 53.93275007 89.33641848 56.36889648 94.15576172 C57.26946054 95.94494065 58.16993645 97.73416395 59.0703125 99.5234375 C59.49475647 100.35882553 59.91920044 101.19421356 60.35650635 102.05491638 C60.74183533 102.82223587 61.12716431 103.58955536 61.52416992 104.38012695 C61.86405441 105.05243851 62.2039389 105.72475006 62.55412292 106.41743469 C63.27734375 108.09765625 63.27734375 108.09765625 63.27734375 110.09765625 C57.99734375 110.09765625 52.71734375 110.09765625 47.27734375 110.09765625 C45.69295782 107.09820808 44.10980921 104.09811744 42.52734375 101.09765625 C42.08390625 100.25847656 41.64046875 99.41929687 41.18359375 98.5546875 C39.87505857 96.07231928 38.57366083 93.58642526 37.27734375 91.09765625 C36.87451172 90.32550781 36.47167969 89.55335938 36.05664062 88.7578125 C33.27734375 83.33646798 33.27734375 83.33646798 33.27734375 81.09765625 C13.47734375 81.42765625 -6.32265625 81.75765625 -26.72265625 82.09765625 C-31.34265625 91.33765625 -35.96265625 100.57765625 -40.72265625 110.09765625 C-46.00265625 110.09765625 -51.28265625 110.09765625 -56.72265625 110.09765625 C-55.18312101 105.47905053 -53.59412603 101.61820309 -51.4140625 97.3203125 C-51.08784409 96.67307724 -50.76162567 96.02584198 -50.42552185 95.35899353 C-49.38256289 93.29075236 -48.33433474 91.22524838 -47.28515625 89.16015625 C-42.57105122 79.86343347 -37.95247111 70.53130631 -33.4765625 61.1171875 C-28.01870811 49.64586723 -22.38407238 38.26725098 -16.69384766 26.90966797 C-15.06108002 23.64962686 -13.43274133 20.38739732 -11.8046875 17.125 C-10.76458024 15.04544419 -9.72422574 12.96601203 -8.68359375 10.88671875 C-8.19829193 9.91409088 -7.71299011 8.94146301 -7.21298218 7.93936157 C-6.76806427 7.05267792 -6.32314636 6.16599426 -5.86474609 5.25244141 C-5.47378754 4.47131989 -5.08282898 3.69019836 -4.68002319 2.88540649 C-3.19623781 0.11464268 -3.19623781 0.11464268 0 0 Z M2.27734375 21.09765625 C-0.70069708 27.00303757 -3.67246673 32.91154327 -6.63989258 38.82226562 C-7.65016786 40.83275724 -8.66187787 42.84252858 -9.67504883 44.8515625 C-11.13089523 47.73900309 -12.58156658 50.62899255 -14.03125 53.51953125 C-14.48543808 54.41758484 -14.93962616 55.31563843 -15.40757751 56.24090576 C-15.82793777 57.08147522 -16.24829803 57.92204468 -16.68139648 58.78808594 C-17.23765968 59.8939505 -17.23765968 59.8939505 -17.80516052 61.02215576 C-18.90876717 63.35925197 -18.90876717 63.35925197 -19.72265625 67.09765625 C-4.87265625 67.09765625 9.97734375 67.09765625 25.27734375 67.09765625 C24.01804268 63.31975304 22.95609325 60.20605716 21.21435547 56.74462891 C20.81409149 55.94425201 20.41382751 55.14387512 20.00143433 54.31924438 C19.57428131 53.47526093 19.1471283 52.63127747 18.70703125 51.76171875 C18.26594025 50.88236664 17.82484924 50.00301453 17.37039185 49.09701538 C15.96813731 46.3036533 14.56032959 43.51313314 13.15234375 40.72265625 C12.19754813 38.82310186 11.243117 36.92336422 10.2890625 35.0234375 C7.95603984 30.37937987 5.61845805 25.7376396 3.27734375 21.09765625 C2.94734375 21.09765625 2.61734375 21.09765625 2.27734375 21.09765625 Z " fill="#000000" transform="translate(1591.72265625,900.90234375)"/>
<path d="M0 0 C3.96 0 7.92 0 12 0 C20.55406749 15.95480708 28.64610091 32.13713036 36.73144531 48.33251953 C38.61777407 52.11086549 40.50772645 55.88738555 42.39862061 59.66344833 C49.02921504 72.90738971 55.65892769 86.15217289 62.0625 99.5078125 C62.4742749 100.36172577 62.8860498 101.21563904 63.31030273 102.09542847 C66 107.75730092 66 107.75730092 66 110 C60.72 110 55.44 110 50 110 C48.41561407 107.00055183 46.83246546 104.00046119 45.25 101 C44.8065625 100.16082031 44.363125 99.32164062 43.90625 98.45703125 C42.59771482 95.97466303 41.29631708 93.48876901 40 91 C39.59716797 90.22785156 39.19433594 89.45570313 38.77929688 88.66015625 C36 83.23881173 36 83.23881173 36 81 C16.2 81.33 -3.6 81.66 -24 82 C-28.62 91.24 -33.24 100.48 -38 110 C-43.28 110 -48.56 110 -54 110 C-47.94062965 97.14473629 -41.79797299 84.33324164 -35.5625 71.5625 C-34.92593979 70.25761124 -34.92593979 70.25761124 -34.27651978 68.92636108 C-25.94369717 51.85129245 -17.47301955 34.84681707 -8.94287109 17.86962891 C-5.95295488 11.91757011 -2.97670655 5.95867333 0 0 Z M5 21 C-1.01621717 32.93117745 -6.99774325 44.87635057 -12.75 56.9375 C-13.39461182 58.28557739 -13.39461182 58.28557739 -14.05224609 59.66088867 C-14.6373999 60.89415894 -14.6373999 60.89415894 -15.234375 62.15234375 C-15.57694336 62.87413818 -15.91951172 63.59593262 -16.27246094 64.33959961 C-17.06688909 65.85052198 -17.06688909 65.85052198 -17 67 C-2.15 67 12.7 67 28 67 C26.74069893 63.22209679 25.6787495 60.10840091 23.93701172 56.64697266 C23.53674774 55.84659576 23.13648376 55.04621887 22.72409058 54.22158813 C22.29693756 53.37760468 21.86978455 52.53362122 21.4296875 51.6640625 C20.9885965 50.78471039 20.54750549 49.90535828 20.0930481 48.99935913 C18.69079356 46.20599705 17.28298584 43.41547689 15.875 40.625 C14.92020438 38.72544561 13.96577325 36.82570797 13.01171875 34.92578125 C10.67869609 30.28172362 8.3411143 25.63998335 6 21 C5.67 21 5.34 21 5 21 Z " fill="#000000" transform="translate(2436,901)"/>
<path d="M0 0 C2.8203125 -0.29296875 2.8203125 -0.29296875 6.125 -0.1875 C7.76855469 -0.14689453 7.76855469 -0.14689453 9.4453125 -0.10546875 C10.70988281 -0.05326172 10.70988281 -0.05326172 12 0 C18.27364454 11.56703213 24.13349081 23.31218976 29.828125 35.17260742 C34.87334723 45.66972282 40.03518211 56.10587763 45.2578125 66.515625 C45.57510189 67.14833628 45.89239128 67.78104755 46.2192955 68.4329319 C49.44263707 74.86020148 52.67020766 81.28530699 55.9079113 87.70535469 C56.83476169 89.5445947 57.75988081 91.38469351 58.68429565 93.22515869 C59.83279431 95.51120059 60.98447265 97.79564844 62.13967896 100.07830811 C62.64917084 101.09394836 63.15866272 102.10958862 63.68359375 103.15600586 C64.13275146 104.04686386 64.58190918 104.93772186 65.04467773 105.85557556 C66 108 66 108 66 110 C60.72 110 55.44 110 50 110 C49.33613281 108.73285156 48.67226562 107.46570313 47.98828125 106.16015625 C47.09641057 104.4609079 46.20448029 102.76169082 45.3125 101.0625 C44.87744141 100.23169922 44.44238281 99.40089844 43.99414062 98.54492188 C43.55908203 97.71669922 43.12402344 96.88847656 42.67578125 96.03515625 C42.28302002 95.2862915 41.89025879 94.53742676 41.4855957 93.76586914 C40.75022583 92.39676392 40.75022583 92.39676392 40 91 C39.73531418 90.2475853 39.47062836 89.49517059 39.19792175 88.71995544 C38.07032992 85.97853755 37.07914492 84.12606719 35 82 C30.48372849 80.65499855 26.06951224 80.81289023 21.38671875 80.90234375 C20.04862793 80.8966872 18.7105485 80.88707171 17.37251282 80.87367249 C13.86177473 80.84909993 10.35346864 80.87810287 6.84295654 80.91845703 C3.25654849 80.95014213 -0.32955201 80.93090483 -3.91601562 80.91601562 C-10.94454236 80.89431025 -17.97181255 80.92922831 -25 81 C-25.18778519 81.58873398 -25.37557037 82.17746796 -25.56904602 82.78404236 C-26.96851819 87.09034133 -28.41864394 91.21058747 -30.48046875 95.25390625 C-30.92197266 96.12724609 -31.36347656 97.00058594 -31.81835938 97.90039062 C-32.27017578 98.77888672 -32.72199219 99.65738281 -33.1875 100.5625 C-33.88262695 101.93245117 -33.88262695 101.93245117 -34.59179688 103.33007812 C-35.72234024 105.5561996 -36.86038898 107.77850684 -38 110 C-43.28 110 -48.56 110 -54 110 C-47.52393782 96.22779339 -40.8931772 82.53668154 -34.1875 68.875 C-32.16607991 64.7528917 -30.14545948 60.63039172 -28.125 56.5078125 C-27.61748703 55.47253418 -27.10997406 54.43725586 -26.58708191 53.37060547 C-23.08782871 46.22939442 -19.60234692 39.08158844 -16.125 31.9296875 C-15.43015251 30.50141129 -15.43015251 30.50141129 -14.7212677 29.04428101 C-12.05092987 23.5553727 -12.05092987 23.5553727 -9.38485718 18.06439209 C-8.17901662 15.57847139 -6.97061513 13.09381072 -5.76171875 10.609375 C-5.40758911 9.877258 -5.05345947 9.14514099 -4.68859863 8.39083862 C-3.25929159 5.45829335 -1.81282421 2.71923632 0 0 Z M5 22 C-0.66390106 32.62607986 -6.21393895 43.30521986 -11.625 54.0625 C-12.15770508 55.11501953 -12.69041016 56.16753906 -13.23925781 57.25195312 C-13.73006836 58.23228516 -14.22087891 59.21261719 -14.7265625 60.22265625 C-15.16564941 61.09672119 -15.60473633 61.97078613 -16.05712891 62.87133789 C-17.13499668 64.91675135 -17.13499668 64.91675135 -17 67 C-2.15 67 12.7 67 28 67 C22.73208094 55.87883755 17.47192299 44.79620101 11.9375 33.8125 C11.35806641 32.65814453 10.77863281 31.50378906 10.18164062 30.31445312 C8.78966432 27.54200444 7.39580385 24.77052305 6 22 C5.67 22 5.34 22 5 22 Z " fill="#000000" transform="translate(56,901)"/>
<path d="M0 0 C4.95 0 9.9 0 15 0 C15.01458252 2.43689209 15.02916504 4.87378418 15.04418945 7.38452148 C15.09465127 15.45917612 15.16126659 23.53364026 15.23571491 31.60810757 C15.28033696 36.50100985 15.31961093 41.39383044 15.34643555 46.28686523 C15.37255017 51.01380761 15.41300982 55.74043422 15.46318626 60.46718025 C15.47979996 62.26553465 15.49134833 64.06394359 15.49761391 65.86236382 C15.32814338 80.55179205 15.32814338 80.55179205 20.9375 93.875 C31.01039002 100.86435226 45.93525491 100.27065115 57.64453125 98.42578125 C62.58483499 97.27446509 66.85981892 96.02310018 71 93 C72.40722288 90.78854246 72.40722288 90.78854246 73.25 88.25 C73.56453125 87.43015625 73.8790625 86.6103125 74.203125 85.765625 C75.86397888 80.00148505 76.15523437 74.19434686 76.20532227 68.22875977 C76.21522186 67.48646622 76.22512146 66.74417267 76.23532104 65.97938538 C76.26665797 63.55009034 76.29158224 61.12077581 76.31640625 58.69140625 C76.33699986 56.99746725 76.35799693 55.30353311 76.37937927 53.60960388 C76.4343515 49.16932126 76.48386948 44.72899419 76.53222656 40.28863525 C76.58262399 35.75032637 76.63821447 31.21208137 76.69335938 26.67382812 C76.80063664 17.78260483 76.9016677 8.89132672 77 0 C81.62 0 86.24 0 91 0 C91.09297745 11.15334133 91.16390534 22.30658935 91.20724869 33.46024036 C91.22805897 38.64021885 91.25625603 43.81993075 91.30175781 48.99975586 C91.34545044 54.00536887 91.36918635 59.01072663 91.37950897 64.01651573 C91.3868585 65.91935935 91.40120973 67.82219014 91.42292023 69.72492409 C91.56411285 82.62056728 91.53555929 94.38706638 82.046875 104.28125 C71.62293327 113.03417817 59.18187056 113.34468021 46.1875 113.3125 C44.89779297 113.32861328 43.60808594 113.34472656 42.27929688 113.36132812 C30.92863897 113.36706948 19.30165756 112.10543286 10 105 C1.86481554 96.84697522 -0.10216978 86.17599366 -0.12442017 74.98869324 C-0.12082489 74.25645035 -0.11722961 73.52420746 -0.11352539 72.76977539 C-0.11367142 71.97871399 -0.11381744 71.18765259 -0.1139679 70.37261963 C-0.11327616 67.78093641 -0.10551863 65.18932678 -0.09765625 62.59765625 C-0.09578944 60.79162129 -0.09436678 58.98558582 -0.09336853 57.17955017 C-0.08956404 52.4432941 -0.07975154 47.70706907 -0.06866455 42.9708252 C-0.05840583 38.13094502 -0.05386138 33.2910598 -0.04882812 28.45117188 C-0.0381273 18.96743214 -0.02054738 9.48372352 0 0 Z " fill="#000000" transform="translate(325,901)"/>
<path d="M0 0 C34.98 0 69.96 0 106 0 C106 4.62 106 9.24 106 14 C90.82 14 75.64 14 60 14 C60 45.68 60 77.36 60 110 C55.05 110 50.1 110 45 110 C45 78.32 45 46.64 45 14 C30.15 14 15.3 14 0 14 C0 9.38 0 4.76 0 0 Z " fill="#000000" transform="translate(925,901)"/>
<path d="M0 0 C4.95 0 9.9 0 15 0 C15 32.01 15 64.02 15 97 C38.43 97 61.86 97 86 97 C86 101.29 86 105.58 86 110 C57.62 110 29.24 110 0 110 C0 73.7 0 37.4 0 0 Z " fill="#000000" transform="translate(1861,901)"/>
<path d="M0 0 C4.95 0 9.9 0 15 0 C15 36.63 15 73.26 15 111 C10.05 111 5.1 111 0 111 C0 74.37 0 37.74 0 0 Z " fill="#000000" transform="translate(2157,900)"/>
</svg>
