
<svg width="214" height="32" viewBox="0 0 214 32" fill="none" xmlns="http://www.w3.org/2000/svg">
<mask id="mask0_3145_17287" style="mask-type:luminance" maskUnits="userSpaceOnUse" x="0" y="0" width="214" height="32">
<path d="M213.974 0H0V32H213.974V0Z" fill="white"/>
</mask>
<g mask="url(#mask0_3145_17287)">
<path d="M0 15.9999V31.9999H7.91579C17.1169 31.9999 19.9535 31.3085 22.4177 28.534C26.1053 24.3235 24.554 17.0725 19.6255 15.3617C18.2958 14.883 18.1895 14.7235 18.9873 14.298C21.4427 12.862 22.1961 6.67472 20.1662 3.68746C18.0742 0.540646 16.2571 0.00878906 7.64986 0.00878906H0V16.0088V15.9999ZM12.8355 7.46364C14.1119 8.74009 14.174 9.49355 13.0482 11.0891C12.472 11.8869 11.7186 12.2592 10.3801 12.2592H8.56288V9.32513C8.56288 6.44425 8.56288 6.39106 10.1584 6.39106C11.0715 6.39106 12.2504 6.86973 12.8355 7.45477V7.46364ZM13.8548 19.3595C15.6188 20.2104 16.2571 21.4426 15.8848 23.0382C15.4504 24.6337 13.5357 25.5999 10.6992 25.5999H8.56288V18.6681H10.5928C11.6654 18.6681 13.1634 18.9872 13.8637 19.3595H13.8548Z" fill="#161618"/>
<path d="M34.7667 0.159069C34.7667 0.26544 37.3994 4.05048 40.6525 8.58899L46.5296 16.7973V31.9995H54.5606V16.7973L60.4376 8.58899C63.7085 4.05935 66.3235 0.274304 66.3235 0.159069C66.3235 0.0438333 64.0719 -0.000488281 61.4038 -0.000488281H56.4221L53.5323 4.26323C51.9368 6.61226 50.5894 8.52694 50.5451 8.52694C50.483 8.52694 49.1534 6.60339 47.5489 4.26323L44.6592 -0.000488281H39.7395C37.0093 -0.000488281 34.7578 0.0526976 34.7578 0.159069H34.7667Z" fill="#161618"/>
<path d="M81.835 15.9462V31.9994H90.3447L90.5042 25.9717L90.6638 19.9972L94.4134 25.9717L98.1541 31.9994H103.455C107.577 31.9994 108.587 31.8398 108.215 31.308C102.817 24.3761 98.9519 19.2526 98.9519 18.9867C98.9519 18.8271 99.333 18.6675 99.7585 18.6675C100.929 18.6675 104.084 15.6803 104.838 13.872C105.857 11.4698 105.316 5.92959 103.88 3.89967C101.744 0.85923 99.6521 0.274192 90.2915 0.114635L81.835 -0.0449219V15.9551V15.9462ZM95.4239 7.5163C96.4433 8.31408 96.8156 9.11187 96.8156 10.344C96.8156 12.5867 95.4239 13.8631 92.5962 14.2354L90.3978 14.5545V6.3994H92.215C93.2344 6.3994 94.6261 6.87807 95.4239 7.5163Z" fill="#161618"/>
<path d="M124.64 15.9998V32.1061L132.821 31.8934C140.418 31.7339 141.109 31.6275 143.68 30.2978C149.14 27.417 152.456 22.0895 152.456 16.0086C152.456 9.92775 149.14 4.60033 143.68 1.71944C141.109 0.389804 140.418 0.283437 132.821 0.12388L124.64 -0.0888672V16.0175V15.9998ZM139.78 8.42969C142.723 10.1316 143.627 11.9488 143.627 15.9998C143.627 18.8807 143.405 19.9444 142.501 21.1765C140.852 23.366 138.379 24.6424 135.498 24.6956L132.928 24.802L132.768 16.5316C132.706 12.002 132.768 7.95102 132.928 7.56986C133.3 6.55933 137.528 7.09119 139.78 8.42083V8.42969Z" fill="#161618"/>
<path d="M169.032 15.9995V31.9995H177.595V-0.000488281H169.032V15.9995Z" fill="#161618"/>
<path d="M195.784 15.9995V31.9995H213.974V25.1208L209.054 24.9613L204.072 24.8017V19.4654L208.779 19.3059L213.442 19.1463V12.2677H203.753L203.913 9.70589L204.072 7.1973L209.054 7.03774L213.974 6.87818V-0.000488281H195.784V15.9995Z" fill="#161618"/>
</g>
</svg>
