<svg xmlns="http://www.w3.org/2000/svg" id="Layer_1" data-name="Layer 1" viewBox="0 0 323.76 295.06">
  <defs>
    <style>
      .cls-1 {
        fill: #231f20;
      }

      .cls-1, .cls-2, .cls-3, .cls-4, .cls-5, .cls-6, .cls-7, .cls-8 {
        fill-rule: evenodd;
      }

      .cls-2 {
        fill: #fff;
      }

      .cls-3 {
        fill: #f26f21;
      }

      .cls-4 {
        fill: #c8234a;
      }

      .cls-5 {
        fill: #0088cf;
      }

      .cls-6 {
        fill: #fcb813;
      }

      .cls-7 {
        fill: #645fa9;
      }

      .cls-8 {
        fill: #0db04b;
      }
    </style>
  </defs>
  <polyline class="cls-2" points="136.82 157.56 139.7 169.23 136.48 172.08 145.37 178.96 144.93 181.35 141.27 182.94 183.64 182.94 180.81 178.96 184.05 176.49 189.27 171.64 188.29 168.58 188.07 163.19 189.68 158.34 184.84 158.34 183.25 154.29 165.45 57.9 169.13 45 163.89 45 158.67 71.22 142.93 152.7 140.51 157.87 136.82 157.56"/>
  <path class="cls-2" d="M197.99,1.18c-4.41-.03-8.79.77-13,2.41-9.49,3.69-16.99,11.07-21.01,20.89-.29.59-.52,1.24-.66,1.9-.27-.66-.52-1.31-.75-1.9-4.07-9.82-11.49-17.19-21.06-20.89-9.09-3.53-18.96-3.18-27.89.97-18.15,8.55-26.68,30.59-19.56,49.85-2.19-2.44-4.58-4.66-7.26-6.49-8.42-5.79-18.46-7.88-28.22-5.9-9.51,1.91-17.63,7.51-22.84,15.64-10.93,17.04-5.94,40.44,11.16,52.17,0,0,1.71,1.22,4.77,3.31-4.5-1.63-9.15-2.36-13.93-2.15-19.34.77-34.52,16.8-34.52,35.93,0,.58.04,1.06.04,1.59.85,19.83,17.71,35.28,37.57,34.43l103.2-.04c1.44,0,2.68-.89,3.1-2.29.43-1.32-.09-2.84-1.24-3.61l-7.51-5.2c.67-.04,1.28-.24,1.84-.69,1.14-.91,1.54-2.42,1.01-3.69l-2.76-7.07c.61.54,1.43.81,2.36.74,1.4-.2,2.61-1.21,2.89-2.64l18.55-96.7c1.79-8.29,2.6-12.96,3.04-15.69h2.63c-2.22,2.78-3.85,6.36-3.85,10.64,0,1.11.19,2.29.42,3.54-.08.29-.3.53-.3.87,0,.21,0,.44.03.64l18.59,96.7c.3,1.43,1.42,2.44,2.86,2.64.92.08,1.75-.2,2.4-.74l-2.75,7.07c-.14.34-.24.73-.24,1.17,0,.97.37,1.9,1.17,2.53.59.45,1.24.65,1.91.69l-7.54,5.2c-1.13.77-1.64,2.29-1.24,3.61.43,1.4,1.7,2.29,3.11,2.29h15.5v-62.23c-4.79,11.54-8.84,21.28-10.77,26.02-3.21-16.74-16.3-84.64-16.45-85.61.06-.31.26-.49.26-.84,0-.21-.03-.44-.11-.75-.18-.97-.36-1.91-.36-2.79,0-7.34,7.67-10.95,8.05-11.07,1.17-.58,1.88-1.74,1.88-2.98,0-.24,0-.53-.08-.71-.35-1.51-1.74-2.57-3.25-2.52,0,0-6.01.11-9.69.14.19-4.57,1.06-9.22,2.5-12.63,3.35-8.13,9.53-14.27,17.41-17.28,3.44-1.36,7.02-2.03,10.62-2V1.18M313.81,122.57c-6.51-7.07-15.41-11.21-25-11.59-4.77-.21-9.46.53-13.89,2.12l4.77-3.28c17.07-11.73,22.05-35.13,11.1-52.17-5.23-8.13-13.38-13.73-22.81-15.64-9.79-1.98-19.8.11-28.24,5.9-2.71,1.82-5.08,4.04-7.25,6.49,7.11-19.26-1.43-41.3-19.57-49.85-4.78-2.2-9.87-3.38-14.93-3.38v6.47c4.13.04,8.25.99,12.16,2.81,11.55,5.34,18.38,17.39,18.38,29.97,0,4.34-.87,8.81-2.61,13.08,0,0-16.15,38.85-27.93,67.15v62.23l87.79.04c9.55.39,18.71-2.93,25.84-9.46,7.11-6.49,11.25-15.38,11.68-24.96v-2.87c-.33-8.54-3.63-16.66-9.5-23.07Z"/>
  <path class="cls-8" d="M182.49,179.64l87.56-60.65h.04c5.43-3.3,11.77-5.08,18.61-4.81,18.05.78,32.1,16.09,31.33,34.16-.74,18.05-16.07,32.11-34.25,31.36-.15,0-103.29-.07-103.29-.07"/>
  <path class="cls-5" d="M188.29,168.58l40.45-102.21h.06v-.07c2.56-6.12,6.89-11.68,12.74-15.68,15.72-10.78,36.47-6.81,46.54,8.74,10.02,15.64,5.44,37.05-10.24,47.83-.2.11-89.55,61.38-89.55,61.38"/>
  <path class="cls-7" d="M167.46,61.11l18.56,96.75s42.82-102.93,42.9-103.11c7.54-18.09-.31-39.24-17.35-47.25-17.21-7.99-37.13.12-44.6,18.16-2.16,5.11-3,11.96-2.81,17.23l13.1-.24s-12.39,5.58-9.44,17.6l-.36.87"/>
  <path class="cls-6" d="M144.01,179.64l-87.59-60.65h-.03c-5.35-3.3-11.76-5.08-18.52-4.81-18.12.78-32.1,16.09-31.41,34.16.81,18.05,16.11,32.11,34.21,31.36.23,0,103.34-.07,103.34-.07"/>
  <path class="cls-3" d="M138.18,168.58l-40.45-102.21v-.07c-2.56-6.12-6.87-11.68-12.72-15.68-15.74-10.78-36.56-6.81-46.55,8.74-10.01,15.64-5.47,37.05,10.26,47.83.18.11,89.47,61.38,89.47,61.38"/>
  <path class="cls-4" d="M159.07,61.11l-18.56,96.75s-42.85-102.93-42.94-103.11c-7.49-18.09.31-39.24,17.39-47.25,17.17-7.99,37.12.12,44.62,18.16,2.09,5.11,2.98,11.96,2.83,17.23,0,0,.23,1.57-3.34,18.23"/>
  <path class="cls-1" d="M41.74,204.06h-.81c-9.15,0-14.44,6.58-14.44,12.88s5.13,12.43,15.25,12.43c5.08,0,12.28-1.48,13.98-7.5h26.06c-.86,10.06-17.63,18.74-39.14,18.74h-1.71C14.72,240.11.14,231.81.14,217.42c0-17.28,18.04-24.55,39.94-24.55,33.8,0,39.71,11.42,40.6,17.43h-24.96c-4.07-5.79-10.98-6.25-13.98-6.25"/>
  <polyline class="cls-1" points="114.47 194.31 140.63 219.57 140.63 194.31 163.49 194.31 163.49 239.63 131.27 239.63 105.91 213.32 105.91 239.63 84.26 239.63 84.26 194.31 114.47 194.31"/>
  <path class="cls-1" d="M192.65,203.05h9.72v-8.74h-33.51v45.32h33.51v-11.66h-10.53v-7.57h10.53v-10.32h-9.72v-7.02M202.36,203.05h1.55c5.22,0,8.12,1.82,8.12,3.45s-3.09,3.57-8.99,3.57h-.68v10.32h4.19c4.98,0,7.65,2.3,7.65,4.12,0,1.66-2.37,3.45-7.65,3.45h-4.19v11.66h7.6c20.15,0,31.3-7.7,31.3-13.99,0-4.69-3.57-9.31-12.82-10.97,6.18-1.5,9.64-5.1,9.64-8.57,0-6.22-5.4-11.86-34.02-11.78h-1.69v8.74Z"/>
  <path class="cls-1" d="M284.51,204.06h-.85c-9.21,0-14.51,6.58-14.51,12.88s5.21,12.43,15.36,12.43c5.05,0,12.22-1.48,13.93-7.5h26.05c-.84,10.06-17.61,18.74-39.16,18.74h-1.67c-26.26-.51-40.82-8.81-40.82-23.19,0-17.28,18.04-24.55,39.91-24.55,33.81,0,39.79,11.42,40.65,17.43h-24.98c-3.36-6.09-11.03-6.25-13.93-6.25"/>
  <polyline class="cls-1" points="77.7 296.25 60.96 296.25 60.96 261.15 36.78 261.15 36.78 253.62 101.89 253.62 101.89 261.15 77.7 261.15 77.7 296.25"/>
  <polyline class="cls-1" points="166.02 253.62 183.41 253.62 156.22 296.25 140.28 296.25 113.29 253.62 131.23 253.62 148.43 285.93 148.63 285.93 166.02 253.62"/>
  <path class="cls-1" d="M193.86,261.39h2.29c15.02,0,19.03-4.14,19.4-7.3h12.81v42.17h-15.63v-29.04h-18.86v-5.83"/>
  <path class="cls-1" d="M268.08,297.39c-20.38,0-27.39-7.08-27.39-12.81,0-2.14,0-7.74,12.03-10.68-6.25-1.67-9.57-4.34-9.57-8.27,0-7.19,10.82-11.53,24.64-11.53h.31v6.67c-6.55.12-10,2.23-10,5.21,0,2.47,3.41,5.19,10,5.24v6.28h-.2c-5.69,0-11.16,1.96-11.16,6.52,0,4.03,4.29,6.68,11.35,6.73v6.64M268.08,254.1c16.18.08,24.78,5.2,24.78,10.98,0,3.62-2.8,6.72-9.12,8.5,7.58,2.03,11.81,4.69,11.81,10.12s-6.44,13.69-27.46,13.69v-6.64h.11c8.16,0,11.27-3.73,11.27-6.63s-2.84-6.57-11.38-6.62v-6.28h.11c6.13,0,9.72-2.22,9.72-5.24,0-3.24-4.12-5.25-9.12-5.25-.23,0-.44,0-.7.04v-6.67Z"/>
</svg>