<svg xmlns="http://www.w3.org/2000/svg" id="Layer_1" data-name="Layer 1" viewBox="0 0 789.55 98.16">
  <defs>
    <style>
      .cls-1 {
        fill: #fff;
      }

      .cls-2 {
        fill: #ed1c24;
      }
    </style>
  </defs>
  <path class="cls-2" d="M96.13,98.44H0V2.31h96.13v96.13Z"/>
  <path class="cls-1" d="M23.43,48.25h9.72c2.79,0,5.1-2.03,5.1-4.81v-3.13h1.58v18.08c-.54,0-1.04.03-1.58.03v-3.13c0-2.82-2.31-4.75-5.1-4.75h-10.45v10.35h.03v7.98c0,1.14.16,1.3.29,1.65.41.82,3.01,1.23,3.83,1.27,3.77.19,7.66.38,11.37-.51,1.17-.28,2.31-.66,3.42-1.2,3.42-1.71,5.92-3.8,6.36-8.3h.82v11.94H9.06v-.76c1.27,0,5.29.13,6.14-1.58.17-.3.25-1.12.25-2.47V31.82c0-1.41-.09-2.29-.28-2.63-.08-.19-.38-.38-.89-.57-1.42-.54-3.67-.85-5.22-.85v-.73h78.02v13.08h-.95c0-.08-.01-.16-.03-.22-.57-3.89-.95-6.59-3.7-8.71-2.28-1.74-6.65-2.34-10.07-2.34-.91,0-1.41.05-1.52.16-.16.13-.32.22-.32,1.33v38.57c0,1.39.09,2.28.28,2.66.08.19.4.4.95.63,1.55.6,4.5.76,6.21.76v.76h-22.16v-.76c1.68,0,4.56-.16,6.11-.76.55-.23.9-.51,1.04-.82.17-.3.25-1.12.25-2.47V30.4c0-1.27-.09-1.39-.35-1.49-.15-.04-.63-.06-1.46-.06-3.01,0-7.12.6-9.25,2.31-2.47,1.96-3.29,5.7-3.74,8.74h-.95c-.28-1.84-.44-3.42-.66-4.75-.79-4.65-3.74-5.22-8.2-5.89-2.85-.41-6.08-.44-9.25-.41-1.99,0-3.99.16-5.51.7-.41.13-.7.44-.85.76s-.22.66-.22,2.06v5.48h-.03v10.42"/>
  <path id="path2" d="M124.86,76.77c4.7-.02,7.72-.2,9.11-.51,1.36-.33,2.17-1.22,2.42-2.69.26-1.46.33-14.87.22-40.23l-.31-11.45-6.29.04c-3.49.35-6.15,1.55-7.99,3.55-2.05,2.31-3.78,4.56-4.32,9.81h-.42l-.09-14.94h24.6s25.13-.13,25.13-.13l.07,15.07h-.19c-.93-5.57-1.41-5.86-2.1-7.39-1.86-4.08-5.31-6.1-10.35-6.07l-7.04.03-.13,12.94.09,18.43c.05,13.4.13,20.46.21,21.17.1.73,1.24,1.26,3.44,1.67,2.18.39,4.83.59,7.87.56l.44.94-34.83.15.44-.94M183.33,77.68l-11.1-.21-11.73.24v-1.16c4.82-.03,7.4-.5,7.67-1.41.11-.32.19-1.58.23-3.81.03-2.21.03-5.29.01-9.21l-.04-9.1-.02-5.65v-1.78s-.02-1.35-.02-1.35v-1.12s0-.85,0-.85c-.02-1.84-.12-2.94-.32-3.3-.3-.88-2.85-1.31-7.68-1.29v-1.24l12.1.19,10.74-.29v1.23c-4.09.02-6.38.44-6.88,1.24-.27.73-.39,6.27-.34,16.62l18.55-.09-.03-3.48v-2.74c-.03-6.02-.17-9.46-.47-10.32-.31-.87-2.61-1.26-6.96-1.26v-1.23s10.54.21,10.54.21l12.37-.31v1.23c-4.78.02-7.31.44-7.57,1.26-.26.81-.38,5.41-.33,13.79v3.79c.05,11.81.23,18.09.52,18.87.3.77,2.81,1.14,7.55,1.12v1.24s-11.99-.2-11.99-.2l-10.9.24-.02-1.19c4.15-.01,6.43-.41,6.88-1.24.33-.57.47-6.53.41-17.82l-18.55.08c.04,11.15.23,17.05.5,17.7.18.46,1.12.77,2.83.97.57.04,1.95.15,4.05.35v1.23ZM219.64,75.09c.28-.86.4-5.25.37-13.15l-.03-9.16c-.04-8.56-.2-13.26-.47-14.1-.26-.83-2.84-1.25-7.71-1.23l-.02-.98c2.3-.02,5.59-.03,9.85-.05,4.26-.02,7.33-.04,9.27-.04l19.09-.08.09,16.11h-1.05c-.69-6.28-2.02-10.36-4.01-12.25-1.97-1.89-5.69-2.83-11.14-2.8-1.15,0-2.29.01-3.4.02-1.48.09-2.33.34-2.52.8-.32.67-.46,6.36-.42,17.1l2.48.05c3.44-.02,5.83-.8,7.12-2.34,1.28-1.53,1.93-4.45,1.91-8.71h.98l.11,23.85h-.99c0-4.37-.63-7.43-1.84-9.19-1.19-1.78-3.32-2.64-6.3-2.63h-3.46c.05,11.69.22,18.04.5,19.07.17.65,2.67.98,7.52.95,5.23-.03,8.85-1.04,10.88-3.06,2.21-2.19,3.79-6.47,4.7-12.88h.99l.05,10.98.08,6.23-22.54-.14-17.75.26v-1.29c4.84-.03,7.39-.47,7.68-1.33h0ZM278.7,74.04c.39-1.2.55-7.34.51-18.42l-.07-12.81c-.03-11.99-.25-18.56-.65-19.74-.37-1.18-3.98-1.74-10.79-1.72l-.02-1.37c3.22-.02,7.81-.04,13.77-.07,5.97-.03,10.29-.04,12.98-.05l26.75-.12.11,22.54h-1.48c-.96-8.78-2.83-14.49-5.59-17.14-2.79-2.66-8-3.96-15.63-3.93-1.6.01-3.18.02-4.73.03-2.08.13-3.26.51-3.55,1.15-.45.92-.64,8.89-.57,23.91l3.47.06c4.84-.01,8.15-1.11,9.95-3.25,1.83-2.15,2.7-6.23,2.68-12.2h1.37s.14,33.38.14,33.38h-1.37c-.03-6.11-.88-10.4-2.56-12.87-1.69-2.48-4.63-3.7-8.85-3.68h-4.84c.08,16.36.31,25.24.72,26.68.24.93,3.76,1.36,10.53,1.35,7.31-.03,12.38-1.46,15.24-4.29,3.1-3.05,5.28-9.06,6.55-18.01h1.39s.07,15.36.07,15.36l.12,8.73-31.56-.21-24.85.38v-1.82c6.76-.02,10.34-.64,10.75-1.85h0ZM360.4,59.93c.01,5.78-1.32,10.28-4.06,13.48-2.72,3.22-6.54,4.82-11.46,4.86-5.62.01-10.14-1.85-13.55-5.59-3.4-3.76-5.13-8.79-5.16-15.14-.02-6.59,1.72-11.97,5.22-16.17,3.49-4.2,7.95-6.3,13.29-6.31,2-.02,3.76.33,5.24,1.03,1.51.71,3,1.88,4.46,3.53h.58c.57-.83,1.08-1.64,1.56-2.46.46-.83.87-1.74,1.24-2.73h.93s.08,19.49.08,19.49h-1.11c-1.35-11.87-5.61-17.8-12.72-17.76-3.54.02-6.25,1.74-8.09,5.19-1.83,3.45-2.74,8.54-2.69,15.29.04,13.62,3.95,20.42,11.7,20.4,4.06-.03,7.3-1.55,9.78-4.54,2.46-3.01,3.68-7.07,3.66-12.19v-.37h1.11M373.38,41.12c-1.84,3.34-2.74,8.23-2.74,14.66.04,6.76,1,11.99,2.94,15.73,1.91,3.73,4.54,5.59,7.79,5.58,7.12-.04,10.65-6.4,10.61-19.07-.03-7.08-.98-12.52-2.82-16.29-1.82-3.76-4.38-5.65-7.67-5.63-3.56,0-6.27,1.69-8.12,5.03ZM373.84,76.66c-2.34-1.07-4.42-2.58-6.18-4.52-1.78-1.93-3.15-4.21-4.16-6.85-.99-2.63-1.49-5.34-1.5-8.12,0-3.19.55-6.23,1.69-9.1,1.13-2.87,2.73-5.37,4.82-7.5,3.62-3.7,8-5.57,13.14-5.58,4.08-.02,7.82,1.35,11.19,4.13,2.47,2.03,4.37,4.57,5.79,7.64,1.38,3.07,2.07,6.34,2.08,9.82.05,6.01-1.87,11.12-5.73,15.33-3.85,4.21-8.52,6.33-13.95,6.36-2.42,0-4.79-.52-7.17-1.6h0ZM396.3,76.61c3.35-.52,5.56-1.48,6.61-2.87.94-1.22,1.42-3.48,1.4-6.72l-.02-2.04-.59-23.55c-.78-1.67-1.74-2.78-2.89-3.31-1.16-.52-2.94-.79-5.35-.77v-1s6.68.1,6.68.1l6.64-.02,22.19,28.85-.08-17.04c-.01-4.13-.54-6.93-1.55-8.41-1.25-1.75-3.74-2.62-7.47-2.61v-.99l8.84.1,8.78-.04v.86c-3.44.02-5.63.9-6.62,2.67-.69,1.23-1.01,3.93-1,8.06l.05,14.14c.02,2.04.09,4.9.23,8.54s.22,6.28.22,7.88h-1.24c-1.18-2.08-2.41-3.99-3.6-5.7-.7-1.05-2.48-3.44-5.34-7.14l-17.45-22.81.52,22.5c.04,4.26.65,7.17,1.85,8.77,1.23,1.6,3.68,2.37,7.35,2.36v1.11s-7.73-.09-7.73-.09c-1.19,0-3.03.07-5.53.18-2.51.11-4.14.16-4.91.16v-1.16ZM446.54,41.12c-1.84,3.36-2.75,8.23-2.72,14.66.04,6.76.99,12.01,2.92,15.73,1.92,3.75,4.51,5.6,7.8,5.59,7.13-.04,10.67-6.4,10.6-19.09-.03-7.08-.97-12.5-2.8-16.27-1.84-3.78-4.39-5.66-7.68-5.64-3.55,0-6.28,1.7-8.12,5.02ZM446.99,76.67c-2.35-1.08-4.41-2.58-6.19-4.53-1.77-1.95-3.14-4.21-4.15-6.85-.99-2.63-1.49-5.34-1.5-8.12-.01-3.18.54-6.23,1.68-9.09,1.13-2.86,2.73-5.38,4.82-7.51,3.63-3.69,8-5.56,13.12-5.58,4.1-.01,7.83,1.36,11.2,4.13,2.48,2.02,4.41,4.57,5.78,7.64,1.4,3.07,2.08,6.34,2.1,9.82.04,6.02-1.9,11.12-5.74,15.34-3.84,4.21-8.49,6.34-13.93,6.36-2.42,0-4.82-.52-7.18-1.6ZM478.99,38.63l.62,26.16c.03,4.64.51,7.72,1.46,9.22,1.14,1.8,3.55,2.7,7.2,2.69v.92s-5.27-.04-5.27-.04c-1.4,0-3.43.08-6.1.21-2.65.13-4.62.19-5.88.2v-.98c2.81,0,4.79-.56,5.92-1.65,1.13-1.08,1.69-2.91,1.67-5.44v-.26s-.53-23.55-.53-23.55c-.01-3.28-.49-5.52-1.43-6.71-.95-1.2-2.88-1.81-5.8-1.79v-1.05l6.42.03,9.63-.04,9.44,29.4h.48l8.93-29.48c.51,0,1.26,0,2.24-.01.99,0,1.68,0,2.09,0l5.48-.03,6.76-.03v1.11c-4.67.03-7.1.35-7.31.99-.19.63-.29,2.6-.28,5.86v1.48s.11,22,.11,22c-.02,1.4.02,2.9.02,4.51,0,1.63.08,2.62.23,2.98.35.83,2.8,1.23,7.39,1.2v.99l-11.48-.08-11.78.05v-.86c4.04-.02,6.42-.15,7.09-.4.66-.24,1.01-1.18,1-2.83l-.13-34.66h-.98s-5.89,19.34-5.89,19.34c-2.8,9.18-4.62,15.71-5.45,19.62l-2.15.02-12.63-39.1h-1.07ZM531.74,75.15c.17-.5.28-2.6.35-6.31.08-3.7.09-8.97.06-15.82-.05-8.45-.21-13.14-.53-14.08-.32-.94-2.86-1.4-7.65-1.37v-1.12c2.28-.01,5.16,0,8.62.06,3.45.04,5.2.08,5.26.07.4,0,1.86-.04,4.35-.11,2.51-.08,4.37-.12,5.6-.12v1.11c-4.83.02-7.39.49-7.7,1.41-.32.94-.44,6.76-.39,17.5.05,11.63.25,17.89.58,18.77s2.89,1.3,7.69,1.29v1.23l-11.93-.2-11.92.25v-1.19c4.81-.01,7.33-.46,7.6-1.37h0ZM576.99,73.41c-2.75,3.21-6.55,4.83-11.46,4.86-5.62.02-10.12-1.84-13.54-5.59-3.42-3.75-5.13-8.81-5.16-15.13-.02-6.6,1.71-11.97,5.21-16.18,3.5-4.19,7.94-6.29,13.31-6.31,2.01-.01,3.75.33,5.26,1.03,1.51.7,2.97,1.88,4.46,3.53h.57c.56-.82,1.07-1.65,1.55-2.47.45-.82.89-1.72,1.24-2.71h.92s.09,19.49.09,19.49h-1.11c-1.36-11.87-5.6-17.8-12.73-17.77-3.58.02-6.25,1.74-8.09,5.18-1.84,3.46-2.74,8.55-2.7,15.3.05,13.62,3.98,20.43,11.68,20.4,4.08-.01,7.32-1.53,9.8-4.53,2.45-3.01,3.68-7.07,3.67-12.19v-.37h1.1c.03,5.78-1.31,10.26-4.05,13.47h0ZM602.85,76.76c4.72-.02,7.75-.2,9.14-.5,1.36-.33,2.19-1.21,2.42-2.69.27-1.47.33-14.87.22-40.23l-.31-11.44-6.28.02c-3.49.36-6.15,1.55-7.99,3.57-2.04,2.3-3.49,3.09-4.32,10.15h-.42l-.08-15.29,24.59-.03,25.11-.1.08,15.42h-.16c-.71-5.86-1.42-6.22-2.12-7.75-1.85-4.07-5.3-6.09-10.35-6.06l-7.05.03-.11,12.94.09,18.43c.05,13.4.13,20.45.22,21.16.1.73,1.23,1.28,3.42,1.66,2.21.4,4.84.59,7.88.57l.44.95-34.81.16.4-.95M646.57,75.15c.16-.48.28-2.59.34-6.3.07-3.71.1-9,.06-15.83-.04-8.44-.21-13.13-.52-14.08-.32-.94-2.87-1.38-7.67-1.37v-1.12c2.29,0,5.18.02,8.65.06,3.45.05,5.19.07,5.24.07.41,0,1.86-.03,4.35-.11,2.52-.07,4.37-.12,5.61-.12v1.11c-4.83.03-7.4.5-7.7,1.41-.33.93-.44,6.77-.39,17.5.05,11.63.24,17.89.58,18.77.31.87,2.89,1.3,7.68,1.29l.02,1.23-11.95-.2-11.9.23v-1.17c4.78-.02,7.31-.48,7.61-1.38h0ZM672.34,38.58l.6,26.16c.03,4.65.5,7.73,1.45,9.24,1.15,1.79,3.56,2.69,7.2,2.67v.93l-5.3-.05c-1.38.01-3.41.08-6.06.22-2.67.14-4.63.2-5.91.21v-.99c2.84-.01,4.81-.56,5.91-1.65,1.13-1.09,1.69-2.9,1.68-5.44l-.02-.26-.51-23.56c-.01-3.26-.5-5.52-1.44-6.71-.95-1.2-2.87-1.8-5.79-1.79v-1.04s6.42.03,6.42.03l9.61-.04,9.44,29.42h.51s8.9-29.5,8.9-29.5c.53,0,1.27-.01,2.26,0,.99,0,1.7-.01,2.1-.01l5.46-.03,6.76-.02v1.1c-4.66.02-7.11.35-7.3.99-.21.63-.3,2.59-.29,5.88l.02,1.47.08,21.99c.01,1.38.02,2.9.03,4.53,0,1.61.1,2.6.27,2.97.33.82,2.77,1.22,7.38,1.19v.99l-11.48-.08-11.8.04v-.85c4.04-.02,6.41-.15,7.09-.4.68-.25,1-1.19.99-2.84l-.14-34.65h-.96l-5.89,19.32c-2.79,9.19-4.6,15.73-5.44,19.63h-2.15s-12.65-39.09-12.65-39.09h-1.04ZM724.98,75.09c.27-.86.4-5.24.37-13.16l-.04-9.15c-.02-8.56-.19-13.28-.46-14.1-.28-.85-2.84-1.24-7.72-1.23v-.99c2.3-.02,5.57-.03,9.83-.05,4.27-.01,7.35-.03,9.27-.04l19.12-.07.05,16.1h-1.05c-.68-6.26-2.01-10.36-3.99-12.25-1.97-1.89-5.7-2.82-11.16-2.8-1.16,0-2.28,0-3.4.01-1.47.09-2.32.36-2.51.82-.32.65-.47,6.36-.43,17.08l2.47.05c3.47-.01,5.83-.8,7.12-2.33,1.3-1.54,1.92-4.46,1.92-8.71h.97s.11,23.84.11,23.84h-.99c-.02-4.37-.62-7.43-1.83-9.2-1.19-1.76-3.31-2.64-6.3-2.63l-3.45.02c.04,11.67.22,18.01.51,19.04.16.67,2.67.98,7.52.96,5.21-.02,8.84-1.05,10.89-3.06,2.21-2.17,3.76-6.47,4.66-12.86h1s.05,10.98.05,10.98l.09,6.24-22.54-.16-17.74.27-.02-1.3c4.84-.01,7.42-.46,7.69-1.32h0ZM759.64,78.26l-.08-18.62h.92c1.45,5.72,3.58,10.08,6.4,13.1,2.82,2.98,6.11,4.49,9.88,4.47,2.58,0,4.64-.75,6.18-2.21,1.51-1.47,2.25-3.4,2.24-5.77-.01-3.09-1.19-5.37-3.57-6.84-1.58-.98-4.75-2.04-9.52-3.19-4.77-1.15-8.22-2.63-10.36-4.43-2.43-2.04-3.64-4.89-3.66-8.49,0-3.33,1.13-6.07,3.44-8.24,2.29-2.16,5.26-3.25,8.88-3.27,4.22-.01,7.95,1.83,11.23,5.55.9-.63,1.61-1.35,2.15-2.2.52-.85.95-1.99,1.27-3.41h.62s.06,15.9.06,15.9l-.84.02c-.94-4.65-2.7-8.28-5.31-10.85-2.61-2.62-5.74-3.91-9.32-3.89-2.66.01-4.78.68-6.33,1.99-1.54,1.32-2.32,3.1-2.32,5.31.02,2.54,1.21,4.45,3.59,5.7,1.8.98,5.15,1.95,10.03,2.88,4.87.94,8.43,2.37,10.63,4.29,2.44,2.09,3.66,5.09,3.68,9.03.01,3.81-1.2,6.95-3.67,9.41-2.47,2.44-5.62,3.67-9.49,3.7-4.42.01-8.35-2.14-11.74-6.47-2.01,1.19-3.49,3.37-4.41,6.53h-.6"/>
</svg>