<svg xmlns="http://www.w3.org/2000/svg" viewBox="0 0 817 164.46"><defs><clipPath id="clip-path" transform="translate(-249 -215)"><rect height="164.46" width="817" x="249" y="215"/></clipPath><clipPath id="clip-path-2" transform="translate(-249 -215)"><rect height="164.46" width="817" x="249" y="215"/></clipPath></defs><title>femina</title><g data-name="Femina Logo" id="Femina_Logo"><g style="clip-path:url(#clip-path)"><g style="clip-path:url(#clip-path-2)"><path d="M691.17,220.43h-4.45c-14,0-16.3,3.13-16.3,16.14V359c0,11.36,2.14,15.15,13.17,15.15H689v5.27H625.81v-5.27h4.61c11.19,0,13.17-3.79,13.17-15.15V232.28L594.2,379.46H587L533.46,233.6V362.83c0,10.2,6.91,11.36,14.65,11.36h7.25v5.27H507.28v-5.27h4c7.74,0,15.47-1.16,15.47-11.36V233.77c0-10.7-8.56-13.34-17.45-13.34h-2.47V215h48.89L601,339.13,642.44,215h48.73Z" transform="translate(-249 -215)"/><path d="M770.51,220.27H769c-15.8,0-19.26,2.63-19.26,17.28V353.77c0,17.12.49,20.42,17.78,20.42h2v5.27H702.85v-5.27h4.44c13.18,0,15.15-3.13,15.15-21.4V237.55c0-14.65-3.29-17.28-19.09-17.28h-1V215h68.15Z" transform="translate(-249 -215)"/><path d="M369,251.22h-5.43v-.66c0-25.19-7.41-29.64-41.65-29.64H307.44c-10.86,0-10.7.67-10.7,12.68v59.76h13.17c19.92,0,30-1.81,30-21.07v-1h4.44v52.35h-4.44V319.7c0-19.1-10-20.91-30-20.91H296.74v55c0,17.12.49,20.41,17.78,20.41h2.63v5.27H249.5v-5.27h4.44c13.17,0,15.14-3.12,15.14-21.4V237.56c0-14.66-3.45-17.29-19.42-17.29H249V215H369Z" transform="translate(-249 -215)"/><path d="M926.57,220.27h-4.78c-14.32,0-15.14,3.45-15.14,11.85V379.46h-6.58L807.88,233.27V360c0,12.68,5.6,14.16,16.79,14.16h2.63v5.27H781.87v-5.27h2.47c11.19,0,16.95-1.48,16.95-14.16V231.3c0-4.61-3.95-10.87-14.81-10.87h-4.61V215h44.78l73.42,116.38V232.12c0-8.56-.33-11.85-14.82-11.85h-3.13V215h44.45Z" transform="translate(-249 -215)"/><path d="M1064,374.18c-15.63,0-17.94-5.43-25-25L989.12,215h-7.4l-4.12,12.51L936.94,352.29c-4.94,15-7.08,22.39-19.75,22.39h-2.31v4.77H956.2v-5.27h-4c-12.84,0-14.32-3.62-10.7-15l11-34.08h50l12,35.72c2.47,6.58,1.15,13.33-15,13.33h-1.81v5.27H1066v-5.27ZM977.6,319H954.55l22.72-69.14.33,1L1000.48,319Z" transform="translate(-249 -215)"/><path d="M494.45,379.45H379.87v-5.27h.33c16,0,19.26-2.13,19.26-17.12V237.55c0-14.65-3.29-17.28-19.26-17.28h-.66V215H494.12v39h-5.44v-3.78c0-25-7.4-29.63-41.64-29.63h-9.39c-10.7,0-10.7.82-10.7,12.84v59.92h14.49c20.08,0,30.12-1.81,30.12-21.07v-1h4.28v52.35h-4.28V319.7c0-19.1-10-20.91-30.12-20.91H427v62.06C427,373,427,374,437.65,374h10.21c34.4,0,41.81-4.61,41.81-29.47v-3.78h4.78Z" transform="translate(-249 -215)"/></g></g></g></svg>
