
<svg width="123" height="32" viewBox="0 0 123 32" fill="none" xmlns="http://www.w3.org/2000/svg">
<rect width="122.999" height="32" fill="none"/>
<mask id="mask0_3145_17252" style="mask-type:luminance" maskUnits="userSpaceOnUse" x="0" y="0" width="123" height="32">
<path d="M122.999 0H0V32H122.999V0Z" fill="white"/>
</mask>
<g mask="url(#mask0_3145_17252)">
<path d="M11.8401 2.98082H14.5323C16.1759 2.73929 17.849 2.95137 19.3747 3.59349C21.2952 4.74223 22.6855 6.58612 23.251 8.73635C23.5181 9.48647 23.9756 9.728 24.6236 9.46094H25.3836V0.54194H0.0286525V2.11484H1.07136C1.52497 2.11484 1.9668 2.2091 2.37917 2.39761C2.78565 2.58612 3.15089 2.86889 3.43366 3.21646C4.39979 4.7658 4.57063 6.50365 4.57063 15.5405C4.57063 25.1428 4.35855 27.4933 3.43366 28.6892C3.20391 28.9956 2.90936 29.2489 2.57357 29.4256C2.23189 29.6023 1.86076 29.7025 1.47195 29.7201C0.0286507 29.9794 0.0286525 29.9558 0.0286525 30.5861C-0.0538217 30.7982 -0.0538217 31.0338 0.0286525 31.2459H16.0286C16.1347 31.0397 16.1877 30.81 16.1877 30.5743C16.1877 30.3387 16.1347 30.1148 16.0286 29.9028C15.6398 29.7967 15.2451 29.7201 14.8446 29.6671C14.4145 29.6141 13.9845 29.5316 13.5662 29.4079C12.9653 28.972 12.494 28.3947 12.1936 27.7231C11.8932 27.0515 11.7694 26.3151 11.8401 25.5847C11.6045 24.0353 11.4867 21.1958 11.4867 18.8453V16.9897H12.4292C13.6074 16.9543 14.7856 17.078 15.9285 17.3667C16.4764 17.7025 16.9418 18.1561 17.2952 18.6922C17.6487 19.2282 17.8725 19.835 17.9609 20.4654L18.173 21.1958H19.6163V10.7982H18.2908L18.0787 11.8056C17.9904 12.4536 17.7488 13.0721 17.3777 13.6082C17.0066 14.1443 16.5058 14.592 15.9285 14.9042C15.3689 15.0692 14.7798 15.1104 14.2024 15.0221H11.4867V12.4889C11.4867 9.86153 11.6281 4.31808 11.7223 3.4521L11.8401 2.98082ZM122.456 21.5964C121.336 19.8115 119.599 18.4978 117.566 17.9087C116.005 17.4256 114.568 16.6244 113.336 15.564C113.06 15.2989 112.853 14.969 112.73 14.6038C112.612 14.2386 112.582 13.8556 112.647 13.4727C112.647 12.7305 112.948 12.0235 113.472 11.4992C113.831 11.1281 114.279 10.8571 114.78 10.7216C115.28 10.5861 115.805 10.5861 116.306 10.7216C117.336 11.0162 118.273 11.5758 119.01 12.3534C119.746 13.131 120.258 14.0913 120.488 15.134C120.865 16.1885 120.912 16.1885 121.602 15.9116L122.026 15.7467V9.90276L121.719 9.76138C119.392 8.94842 116.924 8.61263 114.462 8.77758C112.341 8.8306 110.32 9.66712 108.789 11.1222C108.093 11.7702 107.551 12.5537 107.198 13.4315C106.845 14.3092 106.685 15.2518 106.733 16.1944C106.744 17.6377 107.322 19.0162 108.341 20.0471C109.466 21.1487 110.845 21.9499 112.359 22.3976C116.023 23.8291 117.083 24.7422 117.083 26.4094C117.101 27.1104 116.871 27.7997 116.447 28.3593C116.017 28.919 115.41 29.3137 114.721 29.4845C113.896 29.6671 113.042 29.6671 112.217 29.4845C111.139 29.0662 110.173 28.4006 109.401 27.5405C108.63 26.6804 108.082 25.6495 107.793 24.5302L107.487 23.782H107.063C106.856 23.7997 106.662 23.8468 106.473 23.9234H106.238V30.592H106.638C108.235 31.1222 109.884 31.4816 111.551 31.6701H113.914C114.939 31.7467 115.97 31.6524 116.965 31.3873C118.226 31.1576 119.404 30.5979 120.382 29.7791C121.36 28.9543 122.102 27.8939 122.544 26.6922C122.827 26.0206 122.968 25.3078 122.968 24.5773C123.063 23.5581 122.88 22.5272 122.45 21.5964H122.456ZM100.194 9.46094C98.7739 8.87184 97.2481 8.58318 95.7164 8.61852C94.1789 8.65387 92.6708 9.01322 91.2864 9.67301C89.9845 10.3034 88.8298 11.2047 87.899 12.3063C86.9683 13.4079 86.279 14.6981 85.8784 16.0824C85.3659 17.5905 85.1538 19.187 85.2422 20.7776C85.2245 21.6436 85.2952 22.5095 85.4543 23.3578C85.8372 25.4492 86.8504 27.3814 88.3703 28.8836C89.8902 30.3858 91.8284 31.3932 93.9373 31.7643C95.3099 31.9352 96.7002 31.9352 98.0728 31.7643C99.4985 31.5169 100.859 30.9985 102.091 30.2385C103.11 29.673 103.97 28.8659 104.594 27.888C104.553 27.7349 104.482 27.5935 104.388 27.4698C104.294 27.3461 104.17 27.24 104.029 27.1634C103.758 27.2577 103.504 27.3932 103.269 27.564C102.096 28.3358 100.706 28.7187 99.2982 28.6656C98.3674 28.7305 97.4307 28.5832 96.5588 28.2415C95.687 27.8998 94.9035 27.3696 94.2672 26.6922C93.7724 26.2386 93.3659 25.6966 93.0596 25.0957C92.3232 23.6347 91.9285 22.0324 91.8991 20.4006V19.4874H104.995V19.0162C105.024 18.5449 105.024 18.0736 104.995 17.6082C104.995 15.9528 104.541 14.321 103.699 12.8954C102.856 11.4639 101.649 10.2798 100.194 9.46094ZM93.5957 17.5846H91.9403V16.2003C92.4823 12.6539 93.8313 10.539 95.4867 10.539C97.1421 10.539 97.849 12.6303 98.1553 16.4536V17.5316H96.7356L93.5898 17.5788L93.5957 17.5846ZM59.6104 8.68922C58.7915 8.65976 57.9845 8.82471 57.2481 9.18406C55.6516 9.95579 54.3615 11.2341 53.5839 12.8247L53.2775 13.3902V8.69511H53.1597C52.877 8.69511 44.1288 10.433 43.846 10.5508C43.5633 10.6686 43.6575 10.6922 43.6575 11.1163C43.6575 11.5405 43.6575 11.6112 43.846 11.6347L44.7709 11.8232C45.0301 11.8291 45.2834 11.8939 45.5132 12.0117C45.7429 12.1296 45.9432 12.3004 46.0964 12.5066C46.6855 13.2842 46.8033 14.645 46.8033 20.4418C46.9211 23.0515 46.8092 25.6671 46.4734 28.2592C46.3909 28.648 46.1965 29.0073 45.902 29.2783C45.6074 29.5552 45.2363 29.726 44.8416 29.7849L44.0404 29.9499H43.7341V30.6097C43.6457 30.8277 43.6457 31.0692 43.7341 31.293H56.9477V30.6097C56.9948 30.3858 56.9948 30.1561 56.9477 29.9263C56.1524 29.8969 55.363 29.7967 54.5854 29.62C54.1612 29.402 53.8136 29.0603 53.5898 28.6362C53.3659 28.2179 53.2776 27.7408 53.3306 27.2695C53.1421 25.9087 53.0478 21.9145 53.0949 18.863C53.1421 15.8115 53.0949 15.6229 53.3541 15.4109C54.1435 14.81 55.1214 14.5037 56.117 14.5449C57.0537 14.5626 57.9786 14.7982 58.8092 15.2224C59.0979 15.3814 59.4101 15.4992 59.7282 15.5758C59.7282 15.5758 62.0905 9.89098 62.0905 9.63767C61.7901 9.2901 61.4013 9.01911 60.9712 8.85416C60.5353 8.68922 60.0699 8.6362 59.6104 8.69511V8.68922ZM43.6811 18.5508C43.5986 16.8718 43.1155 15.24 42.2672 13.7849C41.4189 12.3299 40.2348 11.0986 38.8151 10.1914C37.1244 9.28421 35.2393 8.78347 33.3188 8.73045C31.3983 8.67743 29.4896 9.07213 27.7518 9.88509C25.2952 11.1752 23.4337 13.3608 22.5736 15.9882C21.684 18.9278 21.684 22.0618 22.5736 25.0014C23.039 26.6097 23.9108 28.0707 25.1008 29.2489C26.5854 30.6863 28.4999 31.6112 30.5618 31.8763C31.8814 31.9882 33.2127 31.9882 34.5323 31.8763C35.0213 31.7997 35.4985 31.6995 35.9756 31.5699C37.8961 31.0338 39.6281 29.9676 40.9653 28.4948C42.3026 27.0162 43.1862 25.1958 43.5161 23.24C43.7518 21.6848 43.8107 20.1119 43.6811 18.5449V18.5508ZM33.849 30.2916C31.4867 30.9985 29.7135 28.7187 29.1244 23.9293C28.9064 21.4197 28.9064 18.8983 29.1244 16.3947C29.5957 12.5419 30.8033 10.5979 32.6708 10.5979C33.0478 10.5743 33.4248 10.6391 33.7665 10.7923C34.1141 10.9455 34.4145 11.1752 34.656 11.4639C36.2407 13.0368 37.0183 16.159 37.0183 20.8542C37.2127 23.511 36.7945 26.1796 35.7871 28.648C35.3453 29.3667 34.656 29.9087 33.849 30.1737V30.2916ZM76.3939 9.1605C75.7282 9.07802 75.0507 9.07802 74.3851 9.1605C73.1067 9.1605 71.8401 9.43149 70.6737 9.96168L69.9432 10.268V5.17228C70.0728 3.4521 70.0728 1.72604 69.9432 0.00585938C69.6605 0.00585938 60.6295 1.72014 60.4882 1.79084C60.4175 1.96757 60.4175 2.15608 60.4882 2.33281C60.4882 2.82765 60.4882 2.80409 61.5485 3.03973C61.849 3.10453 62.1317 3.21646 62.3968 3.36963C62.8563 3.79967 63.1686 4.3711 63.2746 4.98966C63.5456 6.77464 63.6281 8.58318 63.5338 10.3917V31.0044L64.17 31.1458C65.1126 31.3578 67.7871 31.8056 68.659 31.8998C70.4027 32.0353 72.1583 32.0353 73.9079 31.8998C75.846 31.7054 77.6958 30.9867 79.251 29.8203C80.8063 28.6598 82.0198 27.0927 82.7444 25.3019C83.1803 24.1531 83.4808 22.9514 83.6457 21.7319C83.7871 20.0824 83.7282 18.4153 83.4808 16.7776C83.2275 14.9396 82.4086 13.2253 81.1421 11.8645C79.8755 10.5036 78.2142 9.56109 76.388 9.17228L76.3939 9.1605ZM70.2024 29.891C70.2024 29.5846 69.9668 19.3048 70.0139 15.1929V11.9764L70.6973 11.8115C71.1627 11.7467 71.6281 11.7467 72.0935 11.8115C72.606 11.7584 73.1185 11.8763 73.5603 12.1414C74.444 12.7481 75.1745 13.5434 75.7046 14.4683C76.2348 15.3991 76.5412 16.43 76.6119 17.4904C76.7827 19.1988 76.7827 20.9249 76.6119 22.6332C76.4705 25.1193 75.5044 27.4874 73.8725 29.3726C73.4072 29.8085 72.8239 30.1031 72.1936 30.215C71.7164 30.2975 71.2275 30.2975 70.7503 30.215C70.3026 30.215 70.3026 30.0736 70.3026 29.8851H70.2083L70.2024 29.891Z" fill="#161618"/>
</g>
</svg>
