
<svg width="99" height="32" viewBox="0 0 99 32" fill="none" xmlns="http://www.w3.org/2000/svg">
<rect width="98.6667" height="32" fill="none"/>
<path d="M89.9883 27.7811C89.9883 25.4428 91.9514 23.5621 94.3275 23.5621C96.7038 23.5621 98.6669 25.4428 98.6669 27.7811C98.6669 30.1191 96.7038 32 94.3275 32C91.8997 32 89.9883 30.1191 89.9883 27.7811Z" fill="#161618"/>
<path d="M98.615 21.3257H90.4014V0.841176H98.615V21.3257Z" fill="#161618"/>
<path d="M36.5217 0.48528V7.70313H29.548V11.4137V11.5662H35.9018V19.1399H29.548V19.3433V22.8505V23.0539H36.5217V31.0342H21.4893V0.48528H36.5217Z" fill="#161618"/>
<path d="M46.3893 23.0539H51.3485V31.0342H38.124V0.48528H46.3893V23.0539Z" fill="#161618"/>
<path d="M8.16197 11.3122H11.4164V0.485372H19.4751V30.9834H11.4681L11.5197 19.6484L8.26524 19.6992V30.9834H0V0.485372H8.16197V11.3122Z" fill="#161618"/>
<path d="M61.7311 23.0539H66.6902V31.0342C66.6902 30.9834 53.4658 31.0342 53.4658 31.0342V0.48528H61.7311V23.0539Z" fill="#161618"/>
<path d="M79.3466 7.65219C78.8816 7.19473 78.1585 7.19473 77.5902 7.34722C77.0737 7.55058 76.712 8.05879 76.6603 8.56713V21.8847C76.7636 22.4437 77.177 22.9012 77.6936 23.1046C78.1068 23.2569 78.5716 23.2062 78.9849 23.0537C79.3983 22.7487 79.8115 22.5454 79.8115 21.7322V8.56713C79.7599 8.16054 79.5531 7.9063 79.3466 7.65219ZM86.9919 3.73823C87.8183 4.80565 88.1284 6.68639 88.18 8.3639L88.1284 21.9354C88.0252 25.4936 85.9588 29.3059 82.8077 30.5258C79.6564 31.9998 74.6973 31.7456 71.9078 29.6616C69.4799 27.8317 68.24 25.1885 68.1367 22.2405V7.14386C68.3434 5.00901 69.4799 2.67081 71.1846 1.65426C72.4759 0.790069 73.9225 0.281859 75.4723 0.180114C78.7784 -0.22648 84.5639 -0.277223 86.9919 3.73823Z" fill="#161618"/>
</svg>
