<svg xmlns="http://www.w3.org/2000/svg" id="Layer_1" data-name="Layer 1" viewBox="0 0 491.79 218.42">
  <defs>
    <style>
      .cls-1 {
        fill: #c41f1c;
      }
    </style>
  </defs>
  <path class="cls-1" d="M104.2,92.31h1.68V1.02h-20.48v91.29h18.8ZM39.09,215.81h24.16v-87.25h30.88v-21.49H8.21v21.49h30.88v87.25ZM208.92,215.81c16.52.11,33.19.82,49.68-.66,4.01-.36,8.21-1.45,12.08-2.61,16.74-4.98,31.83-17.72,36.41-34.98,4.98-18.8,1.98-42.18-13.59-55.56-11.26-9.67-26.88-14.62-41.62-14.93-14.32-.3-28.64,0-42.96,0-.05,36.25-.28,72.5,0,108.74M213.27,92.31c14.15.12,28.55,1.13,42.63-.59,28.17-3.44,44.43-24.19,41.29-52.45-1.78-15.88-12.64-29.41-27.87-34.31-17.99-5.8-37.38-3.94-56.05-3.94-.05,30.42-.28,60.86,0,91.29M133.73,217.49c15.33,2.22,32.2.73,45.65-7.39,10.09-6.08,18.57-15.92,22.32-27.18,6.31-18.99,4.86-43.31-8.97-58.95-15.81-17.84-40.19-23.45-63.02-17.84-23.48,5.79-37.5,22.43-41.28,45.91-4.87,30.21,13.87,61.12,45.3,65.44M397.07,92.31h23.09S380.48,1.02,380.48,1.02h-17.01s-39.02,90.26-39.02,90.26l-1.09-2.33V1.02h-20.46v91.29c14.51.19,29.18.19,43.7,0l7.56-19.13h35.09c2.38,6.46,4.94,12.88,7.82,19.13M176.09,92.31h26.79V1.02h-20.48v63.28L143.65,1.02h-27.7v91.29h20.48v-59.74c0-2.26.16-4.62,1.35-2.69,12.8,20.79,25.57,41.6,38.32,62.43M449.23,215.81h1.67l.08-46.31c13.71-20.73,27.29-41.56,40.81-62.43h-28.81l-24.18,40.16c-6.88-12.29-13.99-24.46-20.79-36.8-.81-1.47-1.51-2.22-2.46-3.36h-29.77l40.96,62.55v46.19h22.5ZM388.58,215.81h27.54l-47.5-108.74h-20.03l-47.08,108.74h26.74l9.19-23.16h41.71l9.43,23.16ZM345.17,172.19c3.55-11.24,8.32-22.07,12.78-32.95l13.04,32.95h-25.82ZM360.63,55.71l10.7-27.54,10.94,27.54h-21.64ZM233.11,193.29c-.47-21.34-.11-42.69-.03-64.03,15.9-.89,30.74-.58,43.12,10.54,10.66,9.57,9.59,27.69,3.28,39.11-8.52,15.37-31.07,15.74-46.38,14.38M233.77,73.49c-.23-17.87-.05-35.74-.01-53.6,12.73-.57,25.78-.47,35.71,8.53,8.92,8.09,8.52,22.51,3.47,32.35-6.88,13.42-26.1,13.85-39.17,12.73M143.13,196.01c-18.38-.86-31.05-18.38-30.21-35.9.49-10.01,4.1-18.66,11.33-25.59,10.16-9.77,27.18-9.93,39.02-3.78,11.91,6.18,17.89,20.45,16.78,33.39-.88,10.06-4.9,18.93-12.76,25.34-6.43,5.23-15.97,7.05-24.16,6.54"/>
</svg>