<svg xmlns="http://www.w3.org/2000/svg" width="134" height="32" viewBox="0 0 134 32" fill="none">
<path d="M58.3047 12.4003C59.5811 11.5933 60.8016 10.8223 62.0381 10.0413C62.6153 10.5706 63.1786 11.09 63.8798 11.7332C64.1574 8.27149 64.4251 4.96762 64.6987 1.56787C66.2009 1.68572 67.669 1.79958 69.1991 1.91943C68.8855 5.87249 68.5779 9.76163 68.2683 13.6428C70.1519 14.3559 72.6408 13.7686 73.9092 12.3644C74.7382 11.4475 75.2236 10.3709 75.5931 9.21631C75.6431 9.0625 75.8848 8.83079 75.9926 8.85476C77.3429 9.1444 78.6833 9.47399 80.0895 9.80757C79.3324 12.8438 77.9322 15.3846 75.2296 17.0265C72.5549 18.6505 69.6565 18.7344 66.5504 18.0293C68.3342 20.5861 70.052 23.0071 72.7127 24.5332C74.4206 25.5139 76.6738 25.1644 78.062 23.7581C79.1986 22.6076 79.7919 21.1654 80.2653 19.6593C81.1342 16.8887 81.4738 14.0183 81.8473 11.1539C81.8952 10.7943 81.9472 10.4348 82.0111 9.99134C83.5212 10.251 84.9954 10.5027 86.5354 10.7684V19.098L86.6833 19.1419C86.7791 18.9601 86.879 18.7824 86.9689 18.5986C88.3072 15.904 89.6535 13.2113 90.9739 10.5067C91.1577 10.1292 91.3334 10.0153 91.7609 10.1032C93.0373 10.3649 94.3237 10.5706 95.68 10.8123C95.656 11.2598 95.6401 11.6992 95.6101 12.1407C95.3964 15.1649 94.9989 18.1851 95.3205 21.2213C95.4203 22.1621 95.656 23.099 95.9257 24.0078C96.0855 24.5471 96.3931 25.0585 97.1022 25.0805C97.8034 25.1025 98.1849 24.639 98.3567 24.0997C98.7781 22.7714 99.2615 21.431 99.4353 20.0588C99.8288 16.9726 100.051 13.8645 100.344 10.7664C100.362 10.5666 100.388 10.3669 100.42 10.0792C101.555 10.1711 102.661 10.279 103.768 10.3489C107.795 10.6026 111.822 10.8363 115.849 11.096C116.392 11.1299 116.562 10.9621 116.616 10.4008C116.895 7.46849 117.233 4.54215 117.559 1.52393C119.125 1.76762 120.579 1.99534 122.041 2.22305C121.703 5.13142 121.374 7.98585 121.022 11.0121C123.615 10.6765 126.05 10.3609 128.547 10.0373C128.835 11.4275 129.128 12.8518 129.456 14.4458C126.589 14.8173 123.773 15.1829 120.879 15.5564C120.879 16.2335 120.821 16.9846 120.891 17.7237C121.056 19.5015 121.25 21.2792 121.508 23.047C121.58 23.5484 121.853 24.0478 122.135 24.4832C122.566 25.1504 123.23 25.3262 123.881 24.8827C124.474 24.4792 125.021 23.9639 125.471 23.4026C125.896 22.8712 126.216 22.238 126.495 21.6108C126.775 20.9856 126.949 20.3104 127.191 19.5953C128.595 19.835 130.031 20.0787 131.493 20.3284C131.505 20.4203 131.537 20.4982 131.523 20.5681C130.878 23.6503 129.548 26.3449 126.955 28.2565C123.547 30.7674 119.556 29.7466 117.732 25.9234C116.85 24.0697 116.59 22.0662 116.484 20.0508C116.406 18.5946 116.468 17.1304 116.468 15.5923H111.618C111.874 16.0058 112.149 16.4233 112.395 16.8568C113.759 19.2697 114.407 21.8385 113.903 24.5991C113.51 26.7484 112.433 28.4742 110.262 29.1933C107.869 29.9843 105.709 29.475 103.936 27.6373C103.444 27.1279 103.037 26.5387 102.551 25.9374C102.42 26.1611 102.284 26.3928 102.146 26.6226C100.202 29.9224 95.9816 30.6136 93.261 28.0468C91.8967 26.7604 91.3474 25.0545 91.0198 23.2667C90.906 22.6475 90.8381 22.0203 90.7222 21.2133C89.294 24.0897 87.9317 26.8323 86.5614 29.5908C85.0773 29.3711 83.6311 29.1554 82.093 28.9277V26.237C80.0855 28.4663 77.6585 29.5729 74.7182 29.6008C71.718 29.6288 69.4808 28.0648 67.2935 26.0932C67.1896 27.2558 67.0917 28.3464 66.9879 29.5229C65.4858 29.4051 64.0156 29.2892 62.5015 29.1694C62.6014 27.853 62.6952 26.5966 62.7951 25.3422C62.895 24.0837 63.0248 22.8273 63.0927 21.5689C63.1087 21.2533 62.9969 20.8937 62.8411 20.6121C61.4248 18.0493 59.9866 15.5005 58.5564 12.9456C58.4685 12.7878 58.4046 12.6181 58.3027 12.3963L58.3047 12.4003ZM104.769 15.3966C104.733 15.5064 104.701 15.5584 104.701 15.6123C104.721 18.0293 105.046 20.3983 106.015 22.6275C106.331 23.3546 106.826 24.0338 107.353 24.633C107.829 25.1764 108.636 25.2243 108.993 24.7809C109.257 24.4553 109.441 23.9958 109.491 23.5764C109.754 21.3372 108.899 19.4355 107.551 17.7277C106.796 16.7729 105.891 15.9699 104.771 15.3946L104.769 15.3966Z" fill="black"/>
<path d="M35.8783 10.8047C35.7564 12.6324 35.6146 14.3762 35.5307 16.122C35.4228 18.3253 35.5107 20.5185 36.07 22.6679C36.1619 23.0194 36.2798 23.371 36.4316 23.7006C37.0408 25.0129 37.8997 25.3785 39.3419 24.951C39.0863 24.1081 38.7607 23.2771 38.5869 22.4162C37.7879 18.4551 38.4531 14.8316 41.3015 11.8134C43.0573 9.95374 45.678 9.5902 47.7854 10.8466C49.3474 11.7775 50.0965 13.2596 50.3901 14.9974C50.8795 17.8758 49.8928 20.4127 48.5065 22.8396C48.065 23.6127 47.5317 24.3318 47.0024 25.1328C47.7354 25.2926 48.3746 25.0868 48.9739 24.7393C50.3742 23.9263 51.0094 22.57 51.4928 21.1178C51.6446 20.6604 51.7464 20.187 51.8823 19.6756C53.3564 19.9153 54.7946 20.149 56.3767 20.4047C56.083 21.3195 55.8493 22.1964 55.5197 23.0354C54.6129 25.3505 53.2526 27.332 51.0014 28.5285C48.3826 29.9208 45.69 30.0746 42.9574 28.7982C42.7597 28.7063 42.4441 28.7243 42.2383 28.8142C40.7662 29.4534 39.2301 29.6911 37.6421 29.5832C35.3949 29.4314 33.8069 28.2429 32.7082 26.3393C31.7654 24.7033 31.4139 22.8876 31.1442 20.8961C30.9864 21.1937 30.8845 21.3755 30.7906 21.5612C29.5362 24.0721 28.2718 26.577 27.0393 29.0978C26.8416 29.5033 26.6478 29.5992 26.2024 29.5153C25.0618 29.3016 23.9112 29.1418 22.7587 29.0019C22.3732 28.956 22.2493 28.8202 22.2353 28.4366C22.1974 27.4239 22.1115 26.4112 21.9317 25.3625C21.7719 25.6282 21.6161 25.8958 21.4543 26.1615C19.259 29.745 14.6628 30.7018 11.4488 28.2409C9.65705 26.8666 8.75018 24.975 8.30074 22.8217C7.81935 20.5125 7.75343 18.1795 7.86729 15.8344C7.87727 15.6167 7.88726 15.3989 7.89924 15.1512C5.73595 14.9855 3.63058 14.8237 1.44531 14.6559C1.6131 13.1278 1.7749 11.6676 1.9387 10.1855C4.05805 10.3373 6.12546 10.4831 8.23682 10.6349C8.70823 7.56273 9.16966 4.55849 9.64506 1.46436C11.1532 1.72203 12.6054 1.96773 14.0995 2.22341C13.676 5.01392 13.2585 7.75449 12.8211 10.6329C14.9225 10.4471 16.902 10.2713 18.9614 10.0876C19.1652 11.5378 19.3689 12.9979 19.5906 14.58C17.2016 14.7797 14.8585 14.9755 12.3457 15.1872C12.3457 16.1899 12.2758 17.2267 12.3617 18.2494C12.4835 19.7036 12.6933 21.1517 12.925 22.5939C12.9929 23.0214 13.2146 23.4449 13.4443 23.8204C14.3791 25.3405 16.0271 25.5682 17.2256 24.2539C17.9127 23.4988 18.498 22.6079 18.9474 21.6891C20.134 19.2661 20.5774 16.6354 20.905 13.9827C21.3744 10.1855 21.1747 6.38221 21.0228 2.57896C21.0149 2.36123 21.0228 2.14151 21.0228 1.84987H25.4933C25.7549 7.93427 26.0186 14.0446 26.2823 20.153L26.3901 20.187C26.484 20.0232 26.5859 19.8614 26.6698 19.6936C28.1699 16.6933 29.68 13.6951 31.1582 10.6828C31.3979 10.1934 31.6076 9.99369 32.2049 10.1355C33.4094 10.4192 34.6398 10.589 35.8803 10.8107L35.8783 10.8047ZM43.301 22.516C44.6693 20.5485 45.9597 18.7148 45.9816 16.3238C45.9836 16.0441 45.9657 15.7405 45.8618 15.4868C45.7399 15.1892 45.5602 14.7717 45.3225 14.7058C45.0728 14.6359 44.5994 14.8376 44.4436 15.0693C43.9442 15.8184 43.4248 16.5954 43.1332 17.4384C42.5679 19.0723 42.6818 20.7343 43.301 22.516Z" fill="black"/>
</svg>