
<svg width="214" height="32" viewBox="0 0 214 32" fill="none" xmlns="http://www.w3.org/2000/svg">
<rect width="213.023" height="32" fill="none"/>
<mask id="mask0_3145_17305" style="mask-type:luminance" maskUnits="userSpaceOnUse" x="0" y="0" width="214" height="32">
<path d="M213.023 0H0V32H213.023V0Z" fill="white"/>
</mask>
<g mask="url(#mask0_3145_17305)">
<path d="M32.6845 16.1734C32.6845 24.8692 25.5615 31.9346 16.7422 31.9346C7.92281 31.9346 0.799805 24.8775 0.799805 16.1734C0.799805 7.46933 7.92281 0.412197 16.7422 0.412197C25.5615 0.412197 32.6845 7.47756 32.6845 16.1734ZM50.1503 16.1734C50.1503 24.3504 46.5682 30.9958 42.1791 30.9958C37.79 30.9958 34.2079 24.3504 34.2079 16.1734C34.2079 7.99634 37.79 1.35095 42.1791 1.35095C46.5682 1.35095 50.1503 7.96341 50.1503 16.1734ZM57.3062 16.1734C57.3062 23.5105 56.0628 29.4642 54.5064 29.4642C52.9501 29.4642 51.7067 23.5187 51.7067 16.1734C51.7067 8.82805 52.9501 2.8826 54.5064 2.8826C56.0628 2.8826 57.3062 8.82805 57.3062 16.1734ZM101.279 1.77092H101.312V1.42507H92.2378L83.8384 20.8754L75.4061 1.46624H65.6233V1.81209H65.6562C67.3196 2.19089 68.1349 2.71791 68.1349 4.70247V27.8008C68.1349 29.7853 67.2867 30.3041 65.6562 30.6912H65.6233V31.037H72.2522V30.6912H72.2193C70.5558 30.3124 69.7406 29.7853 69.7406 27.8008V6.06119L80.5445 31.037H81.1457L92.2707 5.36125V28.3937C92.1307 29.9583 91.3155 30.4441 89.7921 30.757H89.7591V31.1029H101.312V30.757H101.279C99.789 30.4112 98.9408 29.9583 98.8008 28.3937V4.73541C98.8008 2.71791 99.649 2.16619 101.279 1.77916V1.77092ZM106.558 17.0792C106.731 12.9372 108.263 9.94797 110.807 9.88209C111.589 9.88209 112.256 10.1621 112.759 10.6479C113.854 11.6937 114.356 13.8512 114.282 17.0874H106.558V17.0792ZM106.451 18.2238H119.989V18.158C119.956 14.9876 119.033 12.5254 117.222 10.8208C115.665 9.3633 113.36 8.56454 110.914 8.56454H110.84C109.564 8.56454 108.04 8.87746 106.945 9.39625C105.702 9.9562 104.606 10.8208 103.684 11.9325C102.194 13.7442 101.312 16.1405 101.098 18.8908C101.098 18.9567 101.098 19.0638 101.065 19.1379V19.3849C101.032 19.772 101.032 20.1507 101.032 20.5295C101.172 26.722 104.573 31.6628 110.634 31.6628C115.945 31.6628 119.033 27.8749 119.808 22.7611L119.42 22.6212C118.078 25.3715 115.633 27.0349 112.866 26.8291C109.078 26.5491 106.171 22.7941 106.451 18.2403V18.2238ZM135.256 26.6067C134.795 27.6525 133.872 28.2043 132.637 28.2043C131.402 28.2043 130.266 27.3726 129.45 25.8409C128.602 24.2104 128.141 21.913 128.141 19.1626C128.141 13.4889 129.944 9.80798 132.744 9.80798C133.914 9.80798 134.836 10.3679 135.256 11.3726V26.6067ZM144.256 30.6747C142.593 30.2959 141.778 29.7359 141.778 27.6443V0.0581055L131.715 2.98142V3.32728H131.789C133.172 3.22023 134.128 3.40139 134.663 3.88724C135.091 4.26603 135.297 4.85893 135.297 5.69887V9.49506C134.309 8.86922 133.131 8.5563 131.682 8.5563C128.775 8.5563 126.115 9.7421 124.205 11.9325C122.22 14.1971 121.158 17.2933 121.158 20.9083C121.158 27.3479 124.386 31.6546 129.162 31.6546C131.962 31.6546 134.226 30.1559 135.256 27.5867V30.9958H144.289V30.65L144.256 30.6829V30.6747ZM152.87 3.82136C152.87 1.80386 151.346 0.305149 149.288 0.305149C147.229 0.305149 145.673 1.8368 145.673 3.82136C145.673 5.80592 147.27 7.33757 149.288 7.33757C151.305 7.33757 152.87 5.83886 152.87 3.82136ZM155.241 30.6747C153.578 30.2959 152.763 29.7359 152.763 27.6443V8.64689L143.729 11.1832V11.529H143.803C145.755 11.702 146.282 12.3607 146.282 14.5923V31.0123H155.283V30.6664H155.25L155.241 30.6747ZM178.348 30.6747C176.685 30.2959 175.869 29.7359 175.869 27.6443V8.64689L167.297 11.1173V11.4631H167.33C168.927 11.6361 169.389 12.336 169.389 14.5594V26.5573C168.853 27.6031 167.865 28.196 166.663 28.2619C164.711 28.2619 163.616 26.9773 163.616 24.6057V8.63865L154.583 11.1749V11.5208H154.657C156.608 11.6937 157.135 12.3525 157.135 14.5841V24.7375C157.135 25.4374 157.209 26.1621 157.308 26.862L157.481 27.562C158.264 30.2382 160.248 31.6628 163.361 31.6628C166.021 31.6628 168.359 30.0653 169.389 27.5208V31.037H178.422V30.6912L178.348 30.6582V30.6747ZM213.395 31.0205V30.6747H213.362C211.55 30.2547 210.883 29.4889 210.883 27.9243V15.0205C210.883 10.9855 208.569 8.58101 204.715 8.58101C201.916 8.58101 199.544 10.1785 198.622 12.6489C197.914 10.0056 195.822 8.58101 192.701 8.58101C189.975 8.58101 187.843 9.97267 186.961 12.3772V8.65512L177.928 11.0926V11.4384H178.002C179.913 11.6114 180.481 12.2701 180.481 14.4688V31.0288H188.913V30.6829H188.88C187.464 30.37 187.003 29.7442 187.003 28.2125V13.3901C187.39 12.5172 188.139 11.4796 189.662 11.4796C191.54 11.4796 192.495 12.7642 192.495 15.2758V31.037H200.927V30.6912H200.886C199.478 30.3782 199.017 29.7524 199.017 28.2207V15.037C199.017 14.5512 198.976 14.0653 198.91 13.5795C199.297 12.6407 200.12 11.529 201.669 11.529C203.587 11.529 204.51 12.7807 204.51 15.317V31.0782H213.403V31.0452L213.395 31.0205Z" fill="#161618"/>
</g>
</svg>
