<svg xmlns="http://www.w3.org/2000/svg" id="Layer_1" data-name="Layer 1" viewBox="0 0 498.36 180.29">
  <defs>
    <style>
      .cls-1 {
        fill: #e1261c;
      }

      .cls-2 {
        fill: #001d42;
      }

      .cls-3 {
        fill: #fff;
      }
    </style>
  </defs>
  <path class="cls-3" d="M377.2,26.39c11.01.04,22.03-.04,33.04.06-.1,27.88.1,55.77-.1,83.65-6.61-.1-13.24.1-19.86-.33.27-21.33.02-42.66.16-63.99-4.42.06-8.82.08-13.24.06-.02-6.48-.02-12.95,0-19.45"/>
  <path class="cls-3" d="M420.93,47.35c2.5-13.69,16.71-24.06,30.58-21.8,11.11,1.2,20.75,10.06,23.25,20.88.93,6.94-3.04,13.44-8.22,17.72,14.74,6.96,14.18,28.06,3.37,38.32-13.36,14.41-40.63,11.54-49.45-6.48-6.63-10.61-1.16-24.67,8.73-31.08-5.35-4.11-9.25-10.61-8.26-17.57"/>
  <path class="cls-3" d="M439.93,53.25c3.01,3.98,8.61,6.86,13.13,3.3,5.2-3.9,3.61-11.77-1.51-14.95-7.17-1.69-13.24,4.52-11.61,11.65"/>
  <path class="cls-3" d="M444.78,73.63c-5.26,1.65-7.6,8.26-5.1,13.05,2.73,7.02,13.65,7.54,16.77.5,4.79-7.1-4.07-17.26-11.67-13.55"/>
  <path class="cls-3" d="M105.95,71.54c20.65-.1,41.3-.08,61.96-.02.08,6.11.08,12.2.04,18.31-13.92.1-27.87-.1-41.79-.04.1,3.92.14,7.83.14,11.75,12.72-.12,25.46-.08,38.18-.04v17.55c-12.76,0-25.54-.02-38.32,0,.19,5.37.19,10.76-.02,16.15,14.6.15,29.18-.16,43.77.15-.14,6.01-.12,12.02,0,18.05-21.31.1-42.62,0-63.95.04v-81.91"/>
  <path class="cls-3" d="M291.92,75.61c12.68-8.84,30.27-8.38,43.32-.56,8.28,4.52,12.66,14.25,11.98,23.48-6.32,0-12.66,0-18.98.06-.62-10.37-13.59-14.47-21.89-10.8-3.99,1.3-6.59,8.42-1.69,10.26,12.31,5.43,27.17,5.1,37.91,14.04,10.02,9.68,8.22,28.06-3.14,35.93-13.03,7.31-29.46,8.49-43.34,2.87-10.1-4.52-16.06-15.69-15.03-26.61,6.48-.06,12.97-.08,19.47,0,.43,6.01,4.27,12.39,10.8,12.9,5.7.43,12.68.87,17.01-3.61,2.99-2.62,1.45-7.87-2.27-8.84-12.49-3.86-26.59-4.75-37.17-13.19-10.37-9.54-8.05-27.85,3.02-35.93"/>
  <path class="cls-3" d="M26.39,71.5c6.81-.04,13.61,0,20.42-.04,9.39,15.86,18.71,31.76,27.96,47.7-.56-15.88-.14-31.78-.23-47.66,6.77-.02,13.56-.02,20.34-.04-.04,27.32-.02,54.66-.02,81.99-6.54,0-13.05-.02-19.59.06-9.75-16.52-18.85-33.45-28.89-49.82-.15,16.56-.12,33.12,0,49.7-6.67.08-13.34.06-19.99.08-.1-27.32-.1-54.65,0-81.97"/>
  <path class="cls-3" d="M173.46,71.44c7.95.1,15.9-.08,23.83.17,3.39,14.66,6.21,29.47,10.35,43.92,3.28-14.64,6.05-29.38,9.21-44.06,7.29,0,14.58.02,21.87-.02,3.3,15.96,6.77,31.86,9.75,47.88,3.92-15.94,7.29-32,11.36-47.9,7.02.06,14.04.02,21.06.06-8.11,27.23-15.59,54.65-23.5,81.93-6.15.02-12.29.02-18.44.02-3.96-17.36-7-34.91-11.29-52.18-2.99,17.47-7,34.77-10.35,52.18-6.92,0-13.87.06-20.79-.1-7.49-27.36-15.47-54.57-23.08-81.91"/>
  <path class="cls-1" d="M363.69,0c44.89.12,89.78.02,134.67.06v134.09c-31.47.17-62.94-.12-94.4.16-13.5.25-26.99.1-40.49.1.08-29.46-.25-58.89.15-88.35.29-15.34-.08-30.7.06-46.05M377.2,26.39c-.02,6.5-.02,12.97,0,19.45,4.42.02,8.82,0,13.24-.06-.14,21.33.12,42.66-.16,63.99,6.61.43,13.24.23,19.86.33.19-27.88,0-55.77.1-83.65-11.01-.1-22.03-.02-33.04-.06M420.93,47.35c-.99,6.96,2.91,13.46,8.26,17.57-9.89,6.42-15.36,20.48-8.73,31.08,8.82,18.01,36.09,20.88,49.45,6.48,10.8-10.26,11.36-31.36-3.38-38.32,5.18-4.29,9.15-10.78,8.22-17.72-2.5-10.82-12.14-19.68-23.25-20.89-13.87-2.27-28.08,8.11-30.58,21.8M439.93,53.25c-1.63-7.14,4.44-13.34,11.62-11.65,5.12,3.18,6.71,11.05,1.51,14.95-4.52,3.57-10.12.68-13.13-3.3M444.78,73.63c7.6-3.7,16.46,6.46,11.67,13.55-3.12,7.04-14.04,6.52-16.77-.5-2.5-4.79-.16-11.4,5.1-13.05"/>
  <path class="cls-2" d="M0,46.06c121.22-.02,242.41-.02,363.63,0-.41,29.46-.08,58.89-.16,88.35,13.5,0,26.99.15,40.49-.1.14,15.32.02,30.66.06,45.98-134.67.02-269.35,0-404.02,0V46.06M105.95,71.54v81.91c21.33-.04,42.64.06,63.95-.04-.12-6.03-.14-12.04,0-18.05-14.58-.31-29.16,0-43.77-.15.21-5.39.21-10.78.02-16.15,12.78-.02,25.56,0,38.32,0v-17.55c-12.72-.04-25.46-.08-38.18.04,0-3.92-.04-7.83-.14-11.75,13.92-.06,27.86.14,41.79.04.04-6.11.04-12.2-.04-18.31-20.65-.06-41.3-.08-61.96.02M291.92,75.61c-11.07,8.09-13.4,26.39-3.02,35.93,10.59,8.44,24.68,9.33,37.17,13.19,3.72.97,5.26,6.23,2.27,8.84-4.32,4.48-11.3,4.03-17.01,3.61-6.54-.5-10.37-6.88-10.8-12.9-6.5-.08-12.99-.06-19.47,0-1.03,10.92,4.93,22.09,15.03,26.61,13.88,5.62,30.31,4.44,43.34-2.87,11.36-7.87,13.17-26.26,3.14-35.93-10.74-8.94-25.6-8.61-37.91-14.04-4.91-1.84-2.31-8.96,1.69-10.26,8.3-3.67,21.27.43,21.89,10.8,6.32-.06,12.66-.06,18.99-.06.68-9.23-3.7-18.96-11.98-23.48-13.05-7.81-30.64-8.28-43.32.56M26.39,71.5c-.1,27.32-.1,54.65,0,81.97,6.65-.02,13.32,0,19.99-.08-.12-16.58-.15-33.14,0-49.7,10.04,16.37,19.14,33.3,28.89,49.82,6.54-.08,13.05-.06,19.59-.06,0-27.32-.02-54.67.02-81.99-6.79.02-13.57.02-20.34.04.1,15.88-.33,31.78.23,47.66-9.25-15.94-18.58-31.84-27.96-47.7-6.81.04-13.61,0-20.42.04M173.46,71.44c7.6,27.34,15.59,54.55,23.08,81.91,6.92.16,13.86.1,20.79.1,3.35-17.41,7.37-34.71,10.35-52.18,4.29,17.28,7.33,34.83,11.29,52.18,6.15,0,12.29,0,18.44-.02,7.91-27.28,15.4-54.7,23.5-81.93-7.02-.04-14.04,0-21.06-.06-4.07,15.9-7.45,31.96-11.36,47.9-2.99-16.02-6.46-31.92-9.75-47.88-7.29.04-14.58.02-21.87.02-3.16,14.68-5.93,29.42-9.21,44.06-4.15-14.45-6.96-29.26-10.35-43.92-7.93-.25-15.88-.08-23.83-.17"/>
</svg>