<svg xmlns="http://www.w3.org/2000/svg" width="166" height="32" viewBox="0 0 166 32" fill="none">
<rect width="165.546" height="32" fill="none"/>
<path d="M165.498 31.4816H160.607V18.4387C160.607 15.8874 159.147 14.8847 157.101 14.8847C154.836 14.8847 152.755 16.3786 152.755 20.185V31.4816H147.994V10.6826H152.742V13.7318H152.844C153.997 11.6785 156.139 9.97996 158.949 9.97996C162.845 9.97996 165.546 12.1356 165.546 16.8356L165.491 31.4816H165.498ZM146.5 20.9832C146.5 27.7843 141.896 31.9864 136.206 31.9864C130.517 31.9864 126.001 27.9889 126.001 21.0377C126.001 14.0865 130.551 9.98678 136.206 9.98678C141.861 9.98678 146.5 14.1343 146.5 20.9832ZM141.493 21.0377C141.493 16.6924 139.399 14.2844 136.206 14.2844C133.014 14.2844 130.906 16.7879 130.906 20.9832C130.906 25.1784 133 27.6888 136.206 27.6888C139.412 27.6888 141.493 25.1375 141.493 21.0309V21.0377ZM125.756 6.29631C125.715 7.02622 125.408 7.70838 124.862 8.19953C124.33 8.6975 123.634 8.96355 122.897 8.94308C122.202 8.92262 121.54 8.63611 121.049 8.14496C120.558 7.65381 120.271 6.99211 120.244 6.28949C120.217 5.55958 120.489 4.85014 120.994 4.31806C121.485 3.78597 122.174 3.46536 122.897 3.43125C123.634 3.41079 124.33 3.67683 124.862 4.17481C125.408 4.67278 125.715 5.35493 125.756 6.08484V6.28949V6.29631ZM120.503 10.9896H125.496V31.9932H120.503V10.9896ZM119.493 30.6493C118.252 31.4406 117.201 31.9864 114.5 31.9864C110.7 31.9864 108.599 29.7898 108.599 24.6873V14.9461H106V10.8872H108.599V5.74376L113.797 3.48582V10.8872H119.098V14.9938H113.797V24.1961C113.797 26.5905 114.357 27.5455 115.735 27.5455C116.574 27.5387 117.406 27.3136 118.143 26.8975L119.487 30.6493H119.493ZM104.998 31.4884H100.107V18.4455C100.107 15.8943 98.6604 14.8915 96.6003 14.8915C94.3492 14.8915 92.3095 16.3854 92.3095 20.1919V31.4884H87.5003V10.6894H92.2481V13.7386H92.3505C93.5033 11.6854 95.6589 9.98678 98.4421 9.98678C102.351 9.98678 105.066 12.1424 105.066 16.8425L105.004 31.4884H104.998ZM72.1586 18.9367C72.7043 15.6964 74.9896 14.3458 77.1997 14.3458C80.0989 14.3458 81.7497 16.3991 81.8043 18.9572L72.1586 18.9435V18.9367ZM76.6472 9.99361C70.6101 9.99361 67.0015 14.489 67.0015 20.99C67.0015 27.4909 71.3059 31.9932 77.4521 31.9932C81.4632 31.9932 83.5029 31.4406 85.3038 30.0968L83.9053 26.0993C82.3432 27.0475 80.6037 27.6069 77.8 27.6069C74.1028 27.6069 72.2541 24.8987 72.1109 22.6408H86.5044C86.7499 15.3008 84.5534 10.0004 76.6472 10.0004V9.99361ZM48.5014 10.9964H54.0882L58.8497 25.2944L63.3997 10.9964H68.5091L61.2373 32H55.6981L48.4946 10.9964H48.5014ZM50.0021 22.5999H35.595C35.7519 24.8442 37.6005 27.5455 41.2978 27.5455C44.0946 27.5455 45.8478 27.0407 47.3895 26.0516L48.7879 30.049C46.9529 31.3929 44.8928 31.9454 40.9363 31.9454C34.79 31.9932 30.4993 27.7433 30.4993 20.99C30.4993 14.2366 34.0942 9.99361 40.1381 9.99361C48.0512 9.99361 50.2545 15.294 49.9953 22.5999H50.009H50.0021ZM45.2952 18.9435C45.2543 16.3922 43.6035 14.3935 40.6907 14.3935C38.5078 14.3935 36.2021 15.7442 35.6564 18.9435H45.2952ZM32 10.437L30.9495 15.294C30.3696 15.0961 29.7625 15.0006 29.1486 15.0006C24.9942 15.0006 24.8919 18.8889 24.8919 20.0486V31.502H20.0009V10.6894H24.851V13.8955H24.9533C25.8947 11.4398 27.45 10.0345 29.7489 10.0345C30.5129 9.99361 31.2906 10.13 32 10.437ZM18.9981 11.201C18.9981 19.8508 12.8041 22.402 5.49819 22.402V31.4952H0V0.695798C2.4967 0.286504 5.02068 0.0545726 7.55148 0C13.7455 0 18.9981 2.79684 18.9981 11.1942V11.201ZM13.4521 11.201C13.4521 6.35088 10.7986 4.70006 7.36048 4.70006C6.80111 4.70006 6.19399 4.83649 5.55958 4.89107V17.5997C9.70028 17.7907 13.4521 16.3991 13.4521 11.201Z" fill="#161618"/>
</svg>