<svg xmlns="http://www.w3.org/2000/svg" id="Layer_1" data-name="Layer 1" viewBox="0 0 500 98.16">
  <defs>
    <style>
      .cls-1 {
        fill-rule: evenodd;
      }

      .cls-1, .cls-2 {
        fill: #1a1a1a;
      }

      .cls-3 {
        fill: #fff;
      }

      .cls-4 {
        fill: #ed1c24;
      }
    </style>
  </defs>
  <path class="cls-4" d="M96.13,98.44H0V2.31h96.13v96.13Z"/>
  <path class="cls-3" d="M23.43,48.25h9.72c2.79,0,5.1-2.03,5.1-4.81v-3.13h1.58v18.08c-.54,0-1.04.03-1.58.03v-3.13c0-2.82-2.31-4.75-5.1-4.75h-10.45v10.35h.03v7.98c0,1.14.16,1.3.29,1.65.41.82,3.01,1.23,3.83,1.27,3.77.19,7.66.38,11.37-.51,1.17-.28,2.31-.66,3.42-1.2,3.42-1.71,5.92-3.8,6.36-8.3h.82v11.94H9.06v-.76c1.27,0,5.29.13,6.14-1.58.17-.3.25-1.12.25-2.47V31.82c0-1.41-.09-2.29-.28-2.63-.08-.19-.38-.38-.89-.57-1.42-.54-3.67-.85-5.22-.85v-.73h78.02v13.08h-.95c0-.08-.01-.16-.03-.22-.57-3.89-.95-6.59-3.7-8.71-2.28-1.74-6.65-2.34-10.07-2.34-.91,0-1.41.05-1.52.16-.16.13-.32.22-.32,1.33v38.57c0,1.39.09,2.28.28,2.66.08.19.4.4.95.63,1.55.6,4.5.76,6.21.76v.76h-22.16v-.76c1.68,0,4.56-.16,6.11-.76.55-.23.9-.51,1.04-.82.17-.3.25-1.12.25-2.47V30.4c0-1.27-.09-1.39-.35-1.49-.15-.04-.63-.06-1.46-.06-3.01,0-7.12.6-9.25,2.31-2.47,1.96-3.29,5.7-3.74,8.74h-.95c-.28-1.84-.44-3.42-.66-4.75-.79-4.65-3.74-5.22-8.2-5.89-2.85-.41-6.08-.44-9.25-.41-1.99,0-3.99.16-5.51.7-.41.13-.7.44-.85.76s-.22.66-.22,2.06v5.48h-.03v10.42"/>
  <path class="cls-1" d="M212.3,75.39v4.78c0,5.68-.54,9.63-1.62,11.84-1.73,3.65-5.16,5.48-10.29,5.48-6.69,0-11.1-2.5-13.24-7.5-1.73-4.05-2.6-11.76-2.6-23.11v-3.04c0-.95.04-1.96.13-3.04,0-5.09-1.19-8.53-3.58-10.32-2.41-1.77-5.86-2.66-10.35-2.66h-16.97v38.82c0,2.89.17,4.73.51,5.51.34.78,1.07,1.38,2.18,1.8,1.1.44,3.36.71,6.78.79,3.42.11,7.01.16,10.77.16v1.3h-58.8v-1.46c10.11,0,16.18-.38,18.21-1.14.97-.38,1.65-.94,2.03-1.68.38-.72.57-2.48.57-5.29V12.16c0-2.7-.19-4.39-.57-5.07-.19-.38-.81-.77-1.87-1.17-2.81-1.06-8.93-1.58-18.36-1.58v-1.3h59.08c10.41,0,18.69,2.8,24.86,8.39,4.9,4.43,7.35,9.01,7.35,13.74,0,5.59-1.93,10.17-5.79,13.74-4.64,4.33-11.99,7.07-22.04,8.23,10.26,2.03,17.03,7.75,20.33,17.16,1.65,4.71,2.47,11.82,2.47,21.34,0,2.79.25,4.81.76,6.08.49,1.25,1.65,1.87,3.48,1.87,2.05,0,3.46-1.61,4.24-4.84s1.17-7.68,1.17-13.36h1.17ZM153.82,46.23h13.36c7.01,0,12.19-1.31,15.55-3.93,4.03-3.1,6.05-8.34,6.05-15.71,0-8.15-1.66-13.9-4.97-17.26-3.31-3.34-8.8-5-16.46-5h-6.9c-2.03,0-3.51.15-4.46.44-.95.27-1.55.88-1.8,1.8-.23.93-.35,2.8-.35,5.6v34.04Z"/>
  <path class="cls-1" d="M200.39,98.28c-7,0-11.68-2.69-13.96-8.01-1.77-4.15-2.66-11.81-2.66-23.4v-3.04c0-.98.03-2.06.13-3.1,0-4.75-1.08-8.01-3.26-9.63-2.25-1.65-5.57-2.5-9.88-2.5h-16.18v38.03c0,3.64.28,4.81.44,5.19.25.57.82,1.01,1.74,1.39.7.29,2.41.63,6.52.73,3.32.09,6.93.16,10.73.16h.79v2.88h-60.38v-3.04h.82c12.38,0,16.56-.6,17.89-1.11.79-.32,1.33-.73,1.61-1.3.19-.35.47-1.42.47-4.91V12.16c0-3.45-.32-4.43-.47-4.69-.03-.03-.22-.35-1.46-.79-2.69-1.04-8.77-1.55-18.05-1.55h-.82v-2.88h59.88c10.54,0,19.09,2.88,25.36,8.58,5.07,4.59,7.63,9.4,7.63,14.34,0,5.79-2.03,10.61-6.05,14.31-4.08,3.83-10.32,6.49-18.49,7.88,8.36,2.69,14.06,8.26,17,16.69,1.68,4.78,2.53,12.03,2.53,21.59,0,2.69.22,4.62.66,5.76.13.35.54,1.39,2.75,1.39.63,0,2.47,0,3.48-4.24.76-3.17,1.14-7.6,1.14-13.17v-.79h2.75v5.57c0,5.83-.54,9.82-1.68,12.19-1.87,3.93-5.57,5.92-11.02,5.92ZM167.49,47.02h3.26c4.65,0,8.3.95,10.83,2.82,2.6,1.93,3.93,5.64,3.93,10.96-.09,1.11-.16,2.09-.16,3.04v3.04c0,11.21.85,18.87,2.56,22.8,1.99,4.72,6.08,7.03,12.48,7.03,4.84,0,7.98-1.65,9.56-5.03.55-1.1.95-2.67,1.2-4.72-.13.7-.26,1.36-.41,1.99-.89,3.61-2.56,5.45-5.03,5.45-2.72,0-3.8-1.3-4.24-2.37-.51-1.36-.79-3.45-.79-6.36,0-9.37-.79-16.46-2.44-21.09-3.17-9.09-9.82-14.69-19.73-16.62l-5.03-1.01,5.1-.57c9.82-1.14,17.1-3.83,21.59-8.04,3.67-3.39,5.54-7.82,5.54-13.14,0-4.46-2.37-8.9-7.09-13.17-5.98-5.41-14.19-8.17-24.32-8.17h-1.8c5.22.63,9.21,2.31,11.84,4.97,3.45,3.48,5.19,9.47,5.19,17.79,0,7.57-2.12,13.08-6.33,16.34-3.45,2.66-8.71,4.02-15.71,4.08ZM124.46,95.4h35.78c-1.9-.16-3.23-.38-4.05-.73-1.33-.51-2.18-1.23-2.63-2.22-.22-.57-.57-1.77-.57-5.83V12.19c0-2.91.13-4.81.38-5.79.32-1.2,1.14-2.03,2.34-2.37.23-.08.47-.15.73-.19h-30.87c3.86.25,6.62.7,8.3,1.36,1.3.47,1.99.95,2.28,1.52.29.51.7,1.61.7,5.45v74.47c0,3.93-.41,5.1-.7,5.67-.47.89-1.3,1.58-2.44,2.03-1.39.54-4.43.89-9.25,1.08ZM154.58,45.44h12.6c6.78,0,11.84-1.27,15.04-3.77,3.8-2.94,5.73-8.01,5.73-15.07,0-7.92-1.58-13.52-4.72-16.69-3.13-3.17-8.52-4.78-15.93-4.78h-6.9c-1.93,0-3.36.13-4.21.41-.7.19-1.11.6-1.27,1.23-.22.85-.35,2.66-.35,5.41v33.25Z"/>
  <path class="cls-1" d="M200.4,98.41c-7.06,0-11.81-2.72-14.09-8.07-1.8-4.18-2.66-11.87-2.66-23.46v-3.04c0-.98.03-2.03.13-3.1,0-4.69-1.08-7.92-3.23-9.5-2.22-1.65-5.51-2.5-9.78-2.5h-16.02v37.9c0,3.61.25,4.75.41,5.13.25.54.79.98,1.65,1.33.7.25,2.41.6,6.49.73,3.32.1,6.93.16,10.73.16h.92v3.13h-60.64v-3.29h.95c12.38,0,16.53-.6,17.86-1.11.73-.28,1.23-.7,1.52-1.23.16-.25.47-1.27.47-4.84V12.16c0-3.55-.35-4.43-.44-4.62-.03-.03-.25-.32-1.39-.73-2.69-1.01-8.74-1.55-18.02-1.55h-.95v-3.13h60c10.58,0,19.16,2.88,25.46,8.61,5.1,4.59,7.69,9.47,7.69,14.44,0,5.83-2.06,10.67-6.11,14.41-4.05,3.77-10.1,6.4-18.05,7.82,8.11,2.75,13.68,8.33,16.59,16.59,1.68,4.81,2.53,12.1,2.53,21.66,0,2.66.22,4.59.66,5.73.22.54.73,1.3,2.63,1.3.6,0,2.34,0,3.36-4.15.76-3.13,1.14-7.57,1.14-13.14v-.92h3.01v5.7c0,5.86-.57,9.88-1.68,12.22-1.9,3.99-5.67,6.02-11.15,6.02ZM178.49,48.07c1.2.42,2.26.98,3.17,1.68,2.66,1.96,3.99,5.67,3.99,11.05-.09,1.14-.16,2.12-.16,3.04v3.04c0,11.18.85,18.84,2.53,22.73,1.99,4.69,6.05,6.97,12.38,6.97,4.08,0,6.97-1.2,8.68-3.64-.89,1.06-2.01,1.58-3.36,1.58-2.82,0-3.93-1.33-4.37-2.47-.54-1.36-.79-3.45-.79-6.4,0-9.37-.82-16.43-2.44-21.02-3.2-9.18-9.63-14.6-19.63-16.56ZM129,95.28h28.94c-.76-.13-1.36-.28-1.8-.47-1.33-.51-2.25-1.3-2.66-2.31-.25-.57-.6-1.8-.6-5.86V12.19c0-2.91.13-4.84.38-5.83.32-1.17,1.08-1.99,2.18-2.41h-26.88c2.37.28,4.15.63,5.35,1.11,1.33.47,2.06.98,2.37,1.61.28.47.7,1.65.7,5.48v74.47c0,3.96-.41,5.16-.7,5.73-.51.92-1.33,1.61-2.5,2.09-.91.34-2.5.61-4.78.82ZM172.06,46.89c.27.02.54.04.79.06l-.22-.06,5.92-.66c9.82-1.14,17.07-3.83,21.53-8.01,3.64-3.36,5.51-7.76,5.51-13.05,0-4.43-2.37-8.83-7.06-13.05-5.95-5.41-14.12-8.17-24.22-8.17,4.4.79,7.79,2.37,10.13,4.75,3.48,3.48,5.22,9.5,5.22,17.89,0,7.63-2.15,13.17-6.4,16.43-2.66,2.06-6.43,3.36-11.21,3.86ZM154.74,45.28h12.44c6.74,0,11.78-1.24,14.95-3.7,3.8-2.91,5.7-7.95,5.7-14.98,0-7.88-1.58-13.46-4.69-16.59-3.13-3.13-8.45-4.75-15.83-4.75h-6.9c-1.9,0-3.32.13-4.18.41-.66.19-1.01.54-1.17,1.14-.16.6-.32,1.99-.32,5.38v33.09Z"/>
  <path class="cls-1" d="M200.39,99.21c-7.41,0-12.38-2.88-14.82-8.55-1.84-4.27-2.75-12.06-2.75-23.78v-3.04c0-1.04.06-2.12.16-3.2,0-4.31-1.01-7.35-2.91-8.77-2.06-1.55-5.19-2.34-9.31-2.34h-15.23v37.11c0,3.8.28,4.69.35,4.81.16.32.57.66,1.2.89.54.22,2.03.57,6.24.7,3.42.1,7.03.13,10.7.13h1.71v4.75h-62.22v-4.88h1.74c12.89,0,16.53-.66,17.57-1.04.55-.23.92-.53,1.11-.89.03,0,.38-.76.38-4.46V12.16c0-3.13-.28-4.02-.35-4.21-.03,0-.32-.16-.98-.41-2.6-.98-8.58-1.49-17.73-1.49h-1.74V1.3h60.79c10.8,0,19.54,2.98,26,8.83,5.26,4.78,7.95,9.82,7.95,15.04,0,6.05-2.15,11.11-6.36,15.01-3.67,3.42-8.96,5.92-15.77,7.47,6.97,3.07,11.84,8.49,14.5,16.09,1.71,4.88,2.6,12.25,2.6,21.91,0,3.2.32,4.72.6,5.45.09.22.32.76,1.9.76.44,0,1.74,0,2.6-3.51.73-3.1,1.11-7.47,1.11-12.95v-1.71h4.59v6.49c0,5.98-.57,10.1-1.77,12.57-2.03,4.31-6.02,6.46-11.84,6.46ZM153.91,47.94h16.84c4.46,0,7.92.89,10.26,2.66,2.37,1.74,3.55,5.16,3.58,10.13-.13,1.08-.16,2.12-.16,3.1v3.04c0,11.49.85,19.06,2.63,23.15,2.12,5.03,6.62,7.6,13.33,7.6,5.16,0,8.68-1.87,10.42-5.54,1.08-2.28,1.61-6.17,1.61-11.91v-4.91h-1.42v.13c0,5.6-.38,10.1-1.17,13.33-.76,3.2-2.12,4.75-4.12,4.75-1.8,0-2.91-.6-3.39-1.8-.47-1.23-.7-3.26-.7-6.02,0-9.5-.85-16.69-2.5-21.37-2.79-8.04-8.23-13.46-16.09-16.12l-2.94-.98,3.04-.54c7.82-1.42,13.74-3.99,17.67-7.63,3.86-3.58,5.83-8.23,5.83-13.84,0-4.75-2.47-9.4-7.41-13.84-6.14-5.6-14.53-8.42-24.92-8.42h-59.21v1.55h.16c9.34,0,15.52.54,18.27,1.58,1.01.38,1.61.73,1.8,1.11.47.82.57,3.17.57,5v74.47c0,2.75-.19,4.5-.57,5.22-.35.7-1.01,1.24-1.93,1.61-2.03.76-8.14,1.14-18.14,1.14h-.16v1.71h59.05v-1.55h-.13c-3.7,0-7.31-.06-10.77-.16-3.39-.1-5.64-.35-6.74-.79-1.08-.41-1.77-1.01-2.09-1.74-.32-.76-.51-2.6-.51-5.45v-38.69ZM200.39,97.37c-6.71,0-10.99-2.44-13.11-7.44-1.71-3.99-2.6-11.75-2.6-23.05v-3.04c0-.95.06-1.96.16-3.1,0-5.03-1.23-8.55-3.67-10.35-.85-.63-1.84-1.17-2.98-1.58l.44-1.52c10.32,2.03,16.94,7.63,20.23,17.07,1.65,4.69,2.47,11.87,2.47,21.31,0,2.85.25,4.84.76,6.11.51,1.3,1.71,1.96,3.61,1.96,1.14,0,2.03-.41,2.75-1.3l1.27.98c-1.9,2.66-4.94,3.96-9.34,3.96ZM183.39,50.25c2.03,2.28,3.04,5.79,3.04,10.54-.1,1.17-.16,2.12-.16,3.04v3.04c0,11.08.85,18.62,2.5,22.42,1.84,4.37,5.64,6.49,11.62,6.49,1.56,0,2.93-.19,4.12-.57-2.53-.38-3.51-1.9-3.89-2.88-.57-1.46-.85-3.64-.85-6.68,0-9.28-.79-16.28-2.37-20.77-2.53-7.22-7.12-12.06-14-14.63ZM157.93,96.07h-28.94l-.06-1.58c2.72-.25,3.99-.57,4.56-.79.98-.38,1.68-.95,2.09-1.71.38-.76.57-2.53.57-5.35V12.16c0-3.39-.29-4.62-.57-5.1-.22-.44-.85-.85-1.93-1.27-1.17-.41-2.91-.79-5.16-1.04l.06-1.58h31.35l-4.18,1.55c-.89.34-1.45.95-1.68,1.84-.25.92-.38,2.82-.38,5.64v74.44c0,2.91.19,4.78.51,5.54.38.82,1.11,1.46,2.25,1.9.4.17.95.31,1.65.41l-.13,1.58ZM135.42,94.46h18.55c-.55-.46-.96-1.01-1.23-1.65-.32-.66-.66-1.99-.66-6.17V12.19c0-3.04.13-4.94.41-6.05.15-.51.36-.97.63-1.39h-17.89c.92.44,1.46.95,1.77,1.58.35.6.76,1.84.76,5.83v74.47c0,4.08-.41,5.41-.79,6.11-.36.68-.88,1.25-1.55,1.71ZM172.82,47.75l-.79-.03v-.13l-4.53-.89,4.46-.6c4.65-.48,8.3-1.71,10.83-3.7,4.05-3.1,6.08-8.42,6.08-15.8,0-8.17-1.68-14-5-17.35-2.22-2.22-5.48-3.77-9.72-4.5l.16-1.58c10.32,0,18.65,2.82,24.76,8.36,4.84,4.4,7.31,8.99,7.31,13.65,0,5.51-1.93,10.1-5.76,13.65-4.59,4.31-12,7.06-21.97,8.2l-5.83.73ZM180.83,5.2c1.65.8,3.04,1.78,4.18,2.94,3.64,3.67,5.48,9.88,5.48,18.46,0,7.88-2.25,13.65-6.71,17.07-.63.49-1.31.93-2.03,1.33,7.98-1.3,13.96-3.74,17.79-7.35,3.48-3.23,5.26-7.41,5.26-12.48,0-4.18-2.28-8.39-6.78-12.48-4.5-4.05-10.26-6.55-17.19-7.5ZM167.18,46.11h-13.24V12.19c0-2.79.13-4.65.35-5.57.25-.89.79-1.42,1.71-1.71.95-.28,2.41-.44,4.43-.44h6.9c7.6,0,13.08,1.68,16.37,4.97,3.26,3.32,4.91,9.09,4.91,17.16,0,7.28-1.99,12.54-5.98,15.61-3.32,2.56-8.52,3.89-15.45,3.89ZM155.53,44.49h11.65c6.59,0,11.43-1.17,14.47-3.55,3.58-2.75,5.38-7.57,5.38-14.34,0-7.66-1.49-13.05-4.46-16.02-2.94-3.01-8.07-4.5-15.23-4.5h-6.9c-2.31,0-3.42.19-3.96.35-.44.13-.57.32-.63.6-.13.44-.32,1.68-.32,5.16v32.3Z"/>
  <path class="cls-2" d="M326.4,65.42v6.65c0,2.22.04,4.34.12,6.36,0,6.73-.77,11.36-2.31,13.87-2.11,3.46-6.2,5.19-12.25,5.19s-10.03-1.39-12.73-4.18c-2.68-2.81-4.02-6.81-4.02-12v-41h-11.56v-1.3c7.89-1.94,13.84-6.54,17.83-13.81,3.23-5.78,4.84-12.31,4.84-19.57h2.44v30.46h16.62v4.21h-16.62v39.17c0,5.19.19,8.55.57,10.07.95,3.65,3.08,5.48,6.4,5.48,3.86,0,6.42-2.1,7.66-6.3.85-2.89,1.27-8.36,1.27-16.4v-6.9h1.74Z"/>
  <path class="cls-1" d="M311.95,98.28c-5.98,0-10.45-1.49-13.3-4.43-2.82-2.91-4.28-7.16-4.28-12.54v-40.21h-11.53v-2.72l.6-.16c7.63-1.87,13.46-6.36,17.35-13.39,3.1-5.67,4.72-12.1,4.72-19.19v-.79h4.05v30.46h16.59v5.79h-16.59v38.38c0,5.1.16,8.42.54,9.88.82,3.29,2.66,4.88,5.6,4.88,3.52,0,5.76-1.87,6.9-5.73.82-2.82,1.23-8.26,1.23-16.18v-7.69h3.32v7.44c0,2.12.03,4.24.13,6.33.03,6.97-.79,11.65-2.41,14.31-2.28,3.7-6.62,5.57-12.95,5.57ZM284.85,39.51h11.15v41.8c0,4.97,1.27,8.8,3.8,11.43,2.53,2.63,6.62,3.96,12.16,3.96s9.63-1.61,11.59-4.81c1.46-2.37,2.19-6.9,2.19-13.46-.1-2.06-.13-4.21-.13-6.36v-5.86h-.16v6.11c0,8.07-.44,13.68-1.3,16.62-1.33,4.56-4.18,6.9-8.42,6.9-3.71,0-6.11-2.06-7.16-6.08-.41-1.61-.6-4.97-.6-10.29v-39.96h16.62v-2.6h-16.62V6.43h-.86c-.13,7.06-1.77,13.49-4.94,19.19-3.89,7.09-9.75,11.75-17.32,13.9Z"/>
  <path class="cls-1" d="M311.95,98.41c-6.02,0-10.51-1.49-13.39-4.46-2.85-2.94-4.31-7.22-4.31-12.63v-40.09h-11.56v-2.94l.73-.19c7.6-1.87,13.39-6.33,17.26-13.33,3.1-5.64,4.69-12.06,4.69-19.12v-.92h4.34v30.46h16.59v6.05h-16.59v38.25c0,5.1.16,8.42.54,9.85.82,3.26,2.56,4.78,5.48,4.78,3.42,0,5.63-1.84,6.77-5.67.82-2.79,1.24-8.2,1.24-16.12v-7.82h3.58v7.57c0,2.2.05,4.3.16,6.3,0,7.03-.82,11.72-2.47,14.41-2.28,3.74-6.68,5.64-13.05,5.64ZM285.76,39.36h10.35v41.95c0,4.94,1.27,8.74,3.77,11.34,2.5,2.6,6.55,3.93,12.06,3.93,2.72,0,5.02-.37,6.9-1.11-.95.34-2,.51-3.13.51-2.6,0-5.95-1.08-7.28-6.17-.41-1.65-.6-5-.6-10.32v-40.12h16.62v-2.31h-16.62V6.55h-.6c-.13,7.03-1.81,13.46-4.94,19.12-3.8,6.84-9.34,11.46-16.53,13.68ZM325.53,76.75c-.13,5.79-.57,9.78-1.27,12.22-.82,2.79-2.18,4.75-4.08,5.89,1.39-.78,2.47-1.79,3.23-3.04,1.46-2.37,2.19-6.87,2.19-13.39-.02-.55-.04-1.11-.06-1.68Z"/>
  <path class="cls-1" d="M281.89,39.74v-2.09l1.33-.32c7.38-1.8,13.01-6.17,16.75-12.95,3.04-5.51,4.59-11.81,4.59-18.74v-1.71h5.92v30.46h16.59v7.63h-16.59v37.46c0,6.24.28,8.71.51,9.69.76,2.85,2.22,4.15,4.72,4.15,3.07,0,4.97-1.61,6.02-5.1.79-2.72,1.2-8.07,1.2-15.9v-8.61h5.16v8.36c0,2.12.06,4.21.16,6.27,0,7.22-.86,12.06-2.57,14.85-2.44,3.99-7.06,6.02-13.77,6.02-6.24,0-10.93-1.58-13.93-4.72-3.01-3.1-4.53-7.54-4.53-13.17v-39.29h-11.56v-2.28ZM283.51,40.43h11.56v40.88c0,5.22,1.36,9.28,4.05,12.06,2.72,2.82,7.03,4.24,12.79,4.24,6.11,0,10.29-1.77,12.41-5.26,1.55-2.56,2.31-7.12,2.31-14-.06-2.03-.13-4.18-.13-6.3v-6.78h-2v7.03c0,7.98-.41,13.46-1.27,16.34-1.23,4.15-3.77,6.24-7.54,6.24-3.26,0-5.32-1.74-6.27-5.35-.38-1.55-.57-4.94-.57-10.07v-39.04h16.62v-4.46h-16.62V5.51h-2.69v.13c0,7.19-1.61,13.77-4.81,19.5-3.96,7.19-9.94,11.81-17.76,13.74h-.1v.35l2-.63c7-2.15,12.41-6.65,16.08-13.3,3.07-5.57,4.69-11.87,4.84-18.74v-.79h2.19v30.49h16.62v3.93h-16.62v39.29c0,5.26.19,8.55.57,10.13.95,3.67,3.17,5.54,6.52,5.54,1.06.02,2.02-.13,2.88-.44l.54,1.49c-1.96.79-4.4,1.17-7.22,1.17-5.7,0-9.94-1.39-12.6-4.15-2.66-2.75-3.99-6.74-3.99-11.91v-41.13h-11.81v.25ZM289.97,38.57h6.93v42.75c0,4.72,1.2,8.33,3.55,10.8,2.31,2.37,6.11,3.61,11.24,3.64-1.65-.92-3.23-2.63-4.02-5.76-.44-1.71-.63-5.13-.63-10.51v-40.91h16.59v-.73h-16.59V15.2c-.82,3.86-2.19,7.47-4.05,10.86-3.17,5.7-7.54,9.91-13.01,12.51ZM320.56,95.53l-.79-1.36c1.71-1.01,2.98-2.85,3.74-5.41.7-2.37,1.11-6.3,1.23-12.03h1.58c.02.57.04,1.12.06,1.65,0,6.71-.76,11.37-2.28,13.84-.85,1.39-2.06,2.5-3.55,3.32Z"/>
  <path class="cls-1" d="M372.99,54.24v-8.42c0-3.86-.61-6.47-1.84-7.82-1.24-1.35-3.89-2.03-7.95-2.03-3.31,0-6.22.63-8.71,1.9-2.49,1.29-4.13,3.01-4.91,5.16.38-.08.86-.13,1.46-.13,1.82,0,3.3.72,4.46,2.15,1.16,1.46,1.74,3.09,1.74,4.91,0,2.13-.73,3.86-2.19,5.19-1.46,1.35-3.17,2.03-5.13,2.03-1.24,0-2.35-.34-3.32-1.01-2.83-1.82-4.24-4.12-4.24-6.9,0-1.35.29-2.89.86-4.62,1.35-3.76,4.73-6.51,10.13-8.26,3.84-1.25,7.74-1.87,11.68-1.87,7.14,0,12.53,1.35,16.18,4.05,3.27,2.39,4.91,5.4,4.91,9.06v31.85c0,5.76.15,9.32.44,10.67.67,3.25,2.41,4.88,5.19,4.88,2.51,0,4.2-1.29,5.07-3.86.86-2.58,1.3-6.31,1.3-11.21,0-1.33-.03-2.67-.1-4.02-.04-1.33-.06-2.71-.06-4.15v-1.3h1.74v6.36c0,2.01.04,3.93.13,5.76,0,5.59-.68,9.35-2.03,11.27-1.73,2.41-5.27,3.61-10.61,3.61-4.16,0-7.25-.72-9.28-2.15-2.43-1.71-4.02-4.62-4.78-8.74-2.03,4.69-5.07,7.84-9.12,9.47-2.41.95-5.63,1.43-9.66,1.43s-7.57-.96-10.54-2.88c-4.16-2.62-6.24-6.58-6.24-11.87s2.02-9.58,6.05-13.17c4.03-3.46,8.93-5.44,14.69-5.92,5.74-.49,9.63-1.26,11.65-2.31,2.01-1.06,3.01-3.42,3.01-7.09ZM372.55,80.36v-19.28c-1.14,1.54-2.85,2.48-5.13,2.82-2.26.34-4.44.65-6.55.95-2.79.68-5,2.23-6.65,4.65-1.92,2.89-2.88,6.94-2.88,12.16,0,5.62.55,9.41,1.65,11.4,1.12,1.98,2.88,2.98,5.29,2.98,3.65,0,6.95-1.52,9.88-4.56,2.93-3.04,4.4-6.74,4.4-11.11Z"/>
  <path class="cls-1" d="M387.21,98.28c-4.31,0-7.57-.76-9.72-2.28-2.15-1.52-3.67-3.86-4.62-7.06-2.06,3.77-4.94,6.4-8.52,7.85-2.5.98-5.86,1.49-9.97,1.49s-7.89-1.01-10.99-3.01c-4.37-2.75-6.59-6.97-6.59-12.54s2.12-10.04,6.33-13.74c4.12-3.58,9.22-5.64,15.1-6.14,5.64-.47,9.44-1.2,11.37-2.22,1.71-.92,2.6-3.07,2.6-6.4v-8.42c0-3.64-.54-6.08-1.65-7.28-.73-.82-2.6-1.77-7.35-1.77-3.17,0-5.98.6-8.36,1.84-1.84.92-3.13,2.09-3.96,3.51h.16c2.06,0,3.8.82,5.1,2.44,1.27,1.58,1.9,3.42,1.9,5.41,0,2.34-.82,4.31-2.44,5.79-1.61,1.49-3.51,2.22-5.64,2.22-1.46,0-2.72-.38-3.83-1.14-3.01-1.96-4.56-4.53-4.56-7.57,0-1.46.29-3.04.89-4.88,1.46-4.02,5.03-6.93,10.64-8.74,3.93-1.3,7.95-1.93,11.94-1.93,7.25,0,12.86,1.42,16.66,4.18,3.48,2.56,5.22,5.83,5.22,9.72v31.85c0,7.06.22,9.59.41,10.48.6,2.91,2.03,4.27,4.43,4.27,2.15,0,3.55-1.08,4.31-3.32.82-2.47,1.23-6.17,1.23-10.96,0-1.33-.02-2.66-.06-3.99-.04-1.35-.06-2.74-.06-4.18v-2.09h3.32v7.16c0,1.93.03,3.86.13,5.73.03,5.83-.7,9.69-2.15,11.75-1.9,2.63-5.7,3.96-11.27,3.96ZM373.44,83.91l.47,2.56c.73,3.86,2.25,6.65,4.5,8.23,1.87,1.33,4.84,1.99,8.8,1.99,5.03,0,8.39-1.11,9.97-3.29,1.23-1.77,1.87-5.41,1.87-10.8-.1-1.87-.13-3.8-.13-5.76v-5.57h-.16v.51c0,1.41.02,2.79.06,4.12.06,1.35.1,2.7.1,4.05,0,5.03-.44,8.77-1.36,11.46-.95,2.88-2.98,4.43-5.8,4.43-2.22,0-5.03-.98-5.98-5.54-.29-1.43-.44-4.97-.44-10.83v-31.85c0-3.39-1.49-6.17-4.59-8.42-3.26-2.41-8.11-3.7-14.37-3.86,2.57.28,4.34.98,5.35,2.12,1.39,1.52,2.06,4.27,2.06,8.36v8.42c0,2.09-.32,3.8-.95,5.13l.51-.7v21.69c0,2.53-.48,4.88-1.42,7,.17-.34.34-.7.51-1.08l1.01-2.37ZM359.76,64.31c-.44.04-.91.08-1.39.13-5.54.47-10.35,2.41-14.22,5.76-3.83,3.39-5.76,7.6-5.76,12.54s1.9,8.74,5.83,11.18c2.85,1.87,6.27,2.79,10.13,2.79.72,0,1.41-.02,2.09-.06-1.81-.38-3.2-1.46-4.15-3.17-1.2-2.12-1.77-5.98-1.77-11.78,0-5.38,1.01-9.63,3.04-12.63,1.55-2.34,3.64-3.93,6.21-4.75ZM371.76,63.01c-1.14.87-2.54,1.42-4.21,1.68-2.28.34-4.47.65-6.59.95-2.56.6-4.56,2.03-6.11,4.31-1.81,2.75-2.75,6.68-2.75,11.75,0,5.45.54,9.15,1.58,10.99.95,1.74,2.44,2.56,4.56,2.56,3.42,0,6.55-1.46,9.31-4.31,2.79-2.88,4.21-6.43,4.21-10.54v-17.38ZM370.52,61.9c-.06.04-.13.08-.19.13-.74.4-1.7.75-2.88,1.04,1.23-.19,2.25-.58,3.07-1.17ZM355.23,36.63c-.55.17-1.1.34-1.65.51-5.13,1.65-8.36,4.27-9.63,7.76-.54,1.61-.79,3.1-.79,4.34,0,2.53,1.27,4.59,3.86,6.27.85.59,1.82.89,2.91.89,1.74,0,3.23-.6,4.56-1.8,1.3-1.2,1.93-2.72,1.93-4.62,0-1.65-.51-3.1-1.55-4.4-1.01-1.27-2.28-1.87-3.86-1.87-.51,0-.92.04-1.24.13l-1.46.35.51-1.39c.82-2.37,2.63-4.24,5.29-5.6.36-.19.73-.37,1.11-.54Z"/>
  <path class="cls-1" d="M387.21,98.41c-4.34,0-7.63-.76-9.82-2.31-2.09-1.49-3.61-3.77-4.56-6.81-2.06,3.64-4.91,6.21-8.45,7.63-2.5.98-5.89,1.49-10,1.49s-7.95-1.01-11.05-3.04c-4.4-2.75-6.65-7-6.65-12.63s2.15-10.1,6.37-13.87c4.15-3.58,9.28-5.64,15.2-6.14,5.61-.47,9.4-1.2,11.3-2.22,1.68-.89,2.53-2.98,2.53-6.27v-8.42c0-4.5-.89-6.4-1.61-7.19-.73-.79-2.57-1.74-7.25-1.74-3.13,0-5.92.6-8.3,1.84-1.71.85-2.98,1.93-3.77,3.23,2.06.03,3.77.89,5.1,2.53,1.27,1.61,1.93,3.45,1.93,5.48,0,2.37-.82,4.37-2.5,5.89-1.61,1.52-3.55,2.28-5.73,2.28-1.46,0-2.75-.41-3.86-1.2-3.07-1.96-4.62-4.56-4.62-7.66,0-1.46.28-3.07.89-4.94,1.46-4.02,5.07-7,10.73-8.83,3.93-1.27,7.95-1.9,11.97-1.9,7.28,0,12.92,1.42,16.72,4.21,3.51,2.56,5.29,5.89,5.29,9.82v31.85c0,7.06.22,9.59.41,10.48.79,3.7,2.82,4.15,4.31,4.15,2.09,0,3.42-1.01,4.18-3.23.82-2.47,1.23-6.14,1.23-10.92,0-1.33-.02-2.66-.06-3.99-.04-1.35-.06-2.74-.06-4.18v-2.22h3.58v7.28c0,2.01.05,3.92.16,5.73,0,5.86-.73,9.72-2.22,11.84-1.93,2.66-5.73,3.99-11.37,3.99ZM373.5,83.47l.54,2.98c.73,3.83,2.22,6.59,4.43,8.14,1.87,1.33,4.81,1.99,8.74,1.99,2.41,0,4.4-.25,6.02-.76-.47.11-.95.16-1.46.16-2.25,0-5.16-.98-6.11-5.67-.32-1.39-.44-4.94-.44-10.83v-31.85c0-3.36-1.49-6.08-4.53-8.33-2.91-2.12-7.03-3.36-12.28-3.74,1.54.38,2.68.98,3.42,1.8,1.42,1.55,2.09,4.34,2.09,8.45v8.42c0,1.65-.19,3.06-.57,4.24l.13-.22v22.1c.02,1.48-.14,2.89-.48,4.24l.51-1.14ZM358.81,64.53c-.13.02-.26.03-.41.03-5.51.47-10.29,2.41-14.12,5.7-3.86,3.42-5.73,7.5-5.73,12.48s1.9,8.61,5.8,11.05c2.82,1.84,6.17,2.75,10.04,2.75h1.27c-1.48-.53-2.63-1.54-3.45-3.04-1.2-2.12-1.77-6.02-1.77-11.84,0-5.38,1.01-9.66,3.04-12.7,1.39-2.06,3.17-3.55,5.35-4.43ZM371.64,63.26c-1.11.79-2.47,1.3-4.05,1.55-2.26.34-4.45.65-6.59.95-2.5.6-4.46,1.99-5.98,4.24-1.81,2.72-2.75,6.65-2.75,11.65,0,5.45.54,9.12,1.55,10.96.95,1.68,2.41,2.5,4.46,2.5,3.45,0,6.46-1.39,9.21-4.31,2.76-2.85,4.15-6.36,4.15-10.45v-17.1ZM398.9,84.7c-.19,2.75-.57,4.97-1.17,6.74-.51,1.55-1.33,2.69-2.38,3.45.72-.44,1.3-.96,1.74-1.55,1.05-1.52,1.68-4.43,1.81-8.64ZM353.71,37.27h-.06c-5.07,1.65-8.3,4.21-9.53,7.69-.54,1.61-.79,3.07-.79,4.31,0,2.47,1.24,4.5,3.8,6.14.82.57,1.77.85,2.85.85,1.71,0,3.17-.57,4.47-1.77,1.27-1.17,1.9-2.66,1.9-4.53,0-1.61-.51-3.04-1.52-4.31-.98-1.24-2.22-1.84-3.77-1.84-.51,0-.91.04-1.2.13l-1.71.41.6-1.61c.79-2.28,2.47-4.12,4.97-5.48Z"/>
  <path class="cls-1" d="M387.21,99.2c-4.5,0-7.95-.82-10.26-2.44-1.87-1.33-3.29-3.23-4.31-5.67-2.06,3.07-4.75,5.26-7.98,6.55-2.6,1.04-6.05,1.55-10.29,1.55s-8.23-1.08-11.49-3.17c-4.62-2.91-7-7.38-7-13.3s2.22-10.54,6.62-14.44c4.31-3.7,9.56-5.86,15.67-6.36,6.84-.57,9.75-1.49,10.99-2.12,1.4-.73,2.12-2.6,2.12-5.57v-8.42c0-4.43-.89-6.08-1.42-6.68-.38-.41-1.84-1.46-6.65-1.46-3.01,0-5.7.6-7.95,1.74-1.08.55-1.95,1.18-2.63,1.9,1.68.35,3.07,1.23,4.21,2.66,1.42,1.77,2.12,3.77,2.12,5.98,0,2.63-.92,4.78-2.76,6.46-1.77,1.65-3.86,2.5-6.27,2.5-1.61,0-3.07-.44-4.34-1.33-3.26-2.12-4.97-4.94-4.97-8.33,0-1.55.32-3.23.95-5.16,1.58-4.31,5.35-7.44,11.24-9.34,4.02-1.3,8.14-1.96,12.22-1.96,7.44,0,13.24,1.46,17.19,4.37,3.74,2.72,5.61,6.24,5.61,10.45v31.85c0,7.35.25,9.59.41,10.29.63,3.13,2.12,3.55,3.51,3.55,1.77,0,2.79-.82,3.42-2.69.79-2.41,1.2-5.98,1.2-10.67,0-1.31-.02-2.63-.06-3.96-.06-1.36-.06-2.75-.06-4.21v-3.01h5.16v8.07c0,1.9.06,3.83.12,5.67.03,6.17-.73,10.1-2.31,12.35-2.12,2.88-6.14,4.34-12.03,4.34ZM373.06,87.3l.54,1.77c.89,2.85,2.31,5,4.27,6.4,2.03,1.42,5.19,2.15,9.34,2.15,5.35,0,8.96-1.23,10.74-3.67,1.36-1.96,2.02-5.67,2.02-11.37-.1-1.87-.12-3.8-.12-5.73v-6.49h-2v1.42c0,1.44.02,2.82.06,4.15.06,1.35.1,2.69.1,4.02,0,4.84-.44,8.61-1.3,11.18-.89,2.53-2.47,3.77-4.94,3.77-2.75,0-4.4-1.55-5.06-4.78-.29-1.36-.44-4.94-.44-10.64v-31.85c0-3.67-1.68-6.74-4.97-9.18-3.67-2.69-9.12-4.05-16.24-4.05-3.93,0-7.88.63-11.75,1.87-5.38,1.74-8.83,4.56-10.2,8.36-.57,1.74-.85,3.26-.85,4.65,0,2.82,1.42,5.16,4.24,7,1.01.7,2.16,1.04,3.45,1.04,2,0,3.74-.66,5.19-2.06,1.49-1.36,2.25-3.13,2.25-5.29,0-1.84-.6-3.51-1.77-5-1.17-1.46-2.63-2.18-4.5-2.18l-1.4-.03.73-1.2c.89-1.43,2.22-2.6,4.12-3.55,2.47-1.27,5.38-1.9,8.64-1.9,3.99,0,6.65.66,7.85,1.99,1.2,1.33,1.81,3.93,1.81,7.73v8.42c0,3.61-1.01,5.95-2.98,6.97-1.96,1.08-5.86,1.84-11.59,2.31-5.76.47-10.7,2.5-14.76,5.95-4.02,3.58-6.08,8.04-6.08,13.27s2.12,9.34,6.27,11.97c3.01,1.93,6.55,2.91,10.64,2.91s7.28-.47,9.72-1.42c3.35-1.36,6.08-3.8,8.07-7.28l.89-1.61ZM387.21,97.34c-4.12,0-7.22-.7-9.21-2.12-2.41-1.68-3.99-4.59-4.75-8.64l-.38-1.96-.66-.22c.31-1.27.47-2.63.47-4.02v-19.73l-1.42,1.9,1.17-.82v18.65c0,4.27-1.49,8.01-4.4,11.02-2.91,3.04-6.11,4.53-9.78,4.53-2.34,0-4.08-.98-5.16-2.91-1.08-1.96-1.65-5.79-1.65-11.34,0-5.19.98-9.25,2.88-12.13,1.58-2.37,3.77-3.89,6.46-4.56,2.18-.32,4.4-.63,6.65-.98,1.42-.19,2.66-.63,3.64-1.33l1.49-4.46c.38-1.08.57-2.41.57-3.96v-8.42c0-3.93-.63-6.55-1.9-7.95-.63-.7-1.65-1.2-3.01-1.55l.25-1.58c5.38.38,9.66,1.68,12.66,3.89,3.26,2.41,4.84,5.35,4.84,8.99v31.82c0,5.76.16,9.34.44,10.7.66,3.32,2.47,5,5.32,5,.47,0,.92-.03,1.3-.13l.41,1.52c-1.68.54-3.8.79-6.24.79ZM374.13,82.67l.67,3.61c.7,3.61,2.09,6.17,4.12,7.63,1.71,1.23,4.53,1.84,8.3,1.84.3,0,.58-.01.86-.03-1.36-.85-2.63-2.44-3.2-5.26-.32-1.49-.48-5-.48-11.02v-31.82c0-3.1-1.39-5.64-4.21-7.69-1.96-1.46-4.59-2.5-7.76-3.07,1.52,1.71,2.28,4.62,2.28,8.96v8.42c0,1.43-.16,2.69-.44,3.8v22.32c0,.78-.04,1.55-.13,2.31ZM370.81,64.63c-.93.46-1.97.78-3.13.95-2.28.35-4.5.66-6.62.95-2.25.57-4.05,1.84-5.44,3.89-1.71,2.6-2.57,6.4-2.57,11.24,0,6.55.76,9.37,1.42,10.54.79,1.43,2,2.09,3.77,2.09,3.2,0,6.05-1.3,8.64-4.02,2.63-2.72,3.93-6.05,3.93-9.91v-15.74ZM354.35,97.34c-3.99,0-7.54-.98-10.48-2.88-4.12-2.6-6.14-6.43-6.14-11.75s1.96-9.47,5.98-13.05c3.99-3.45,8.9-5.41,14.6-5.92l5.42-.44-4.65,1.93c-2,.85-3.67,2.25-4.97,4.15-1.93,2.91-2.91,7.03-2.91,12.25,0,5.7.54,9.44,1.68,11.46.73,1.33,1.71,2.22,3.01,2.66l3.96,1.46-4.21.09c-.41.03-.82.03-1.27.03ZM355.14,65.8c-3.99.82-7.44,2.53-10.39,5.03-3.67,3.26-5.44,7.16-5.44,11.87s1.77,8.11,5.41,10.39c2.31,1.52,5.03,2.37,8.11,2.6-.53-.51-.98-1.11-1.36-1.8-1.27-2.28-1.87-6.27-1.87-12.25,0-5.54,1.05-9.94,3.17-13.14.7-1.01,1.49-1.91,2.37-2.69ZM395.73,95.53l-.89-1.3c.92-.7,1.61-1.71,2.09-3.07.57-1.74.95-3.93,1.14-6.59l1.61.1c-.16,4.46-.82,7.44-2,9.09-.51.7-1.16,1.29-1.96,1.77ZM349.94,57.03c-1.23,0-2.34-.35-3.32-1.01-2.79-1.8-4.15-4.02-4.15-6.81,0-1.3.29-2.85.85-4.56,1.33-3.7,4.72-6.46,10.04-8.17l.7,1.46c-2.31,1.27-3.86,2.94-4.59,5.03l-.1.22.25-.06c.35-.1.82-.13,1.4-.13,1.77,0,3.26.7,4.37,2.12,1.14,1.42,1.71,3.01,1.71,4.81,0,2.09-.73,3.8-2.15,5.1-1.42,1.33-3.07,1.99-5,1.99ZM349.12,40.12c-2.12,1.39-3.58,3.07-4.28,5.07-.51,1.52-.76,2.88-.76,4.02,0,2.18,1.11,3.99,3.45,5.51.7.48,1.49.73,2.41.73,1.49,0,2.79-.51,3.93-1.58,1.11-1.01,1.65-2.28,1.65-3.93,0-1.46-.44-2.69-1.36-3.83-.82-1.04-1.84-1.52-3.13-1.52-.57,0-.89.06-1.01.09l-3.13.79,1.08-3.04c.29-.82.68-1.59,1.17-2.31Z"/>
  <path class="cls-2" d="M434.52,34.52v54.71c0,1.94.14,3.2.41,3.77.19.3.62.59,1.3.89,2.02.68,6.22,1.01,12.57,1.01v1.3h-42.18v-1.3c2.79,0,5.32-.1,7.6-.29,2.26-.21,4.2-.6,5.83-1.17.59-.49.89-1.89.89-4.21v-45.12c0-1.86-.2-3.03-.6-3.51-.65-.97-1.28-1.55-1.87-1.74-1.73-.49-5.68-.73-11.84-.73v-1.3l27.9-2.31ZM426.95,1.87c2.28,0,4.19.77,5.73,2.31,1.52,1.54,2.28,3.47,2.28,5.79s-.76,4.22-2.28,5.76c-1.54,1.54-3.45,2.31-5.73,2.31s-4.21-.77-5.73-2.31c-1.54-1.54-2.31-3.46-2.31-5.76s.77-4.25,2.31-5.79c1.52-1.54,3.43-2.31,5.73-2.31Z"/>
  <path class="cls-1" d="M449.59,96.99h-43.76v-2.88h.79c2.75,0,5.25-.09,7.54-.28,2.09-.19,3.93-.54,5.45-1.08.19-.22.54-1.01.54-3.51v-45.12c0-2.31-.31-2.88-.41-3.01-.79-1.11-1.3-1.42-1.52-1.49-1.61-.44-5.51-.7-11.59-.7h-.79v-2.82l29.48-2.44v55.57c0,2.44.22,3.2.35,3.42,0,0,.19.19.89.51,1.87.6,6.02.95,12.25.95h.79v2.88ZM440.4,95.37c-1.96-.16-3.42-.41-4.43-.76-.89-.38-1.43-.76-1.71-1.2-.25-.51-.57-1.43-.57-4.18v-53.86l-23.81,1.96c4.4.1,7.31.35,8.8.76.79.25,1.52.92,2.31,2.06.51.6.73,1.84.73,3.93v45.12c0,2.66-.35,4.18-1.14,4.84l-.25.13c-1.71.6-3.73,1.01-6.05,1.2h26.12ZM426.91,18.84c-2.5,0-4.62-.85-6.3-2.53-1.68-1.71-2.5-3.83-2.5-6.36s.82-4.62,2.5-6.33c1.68-1.68,3.8-2.53,6.3-2.53s4.62.85,6.3,2.53c1.68,1.68,2.5,3.83,2.5,6.33s-.82,4.65-2.5,6.36c-1.68,1.68-3.8,2.53-6.3,2.53ZM426.91,2.66c-2.09,0-3.77.7-5.16,2.09-1.39,1.39-2.06,3.1-2.06,5.19s.66,3.83,2.06,5.22c1.39,1.39,3.07,2.09,5.16,2.09s3.77-.7,5.16-2.09c1.39-1.39,2.06-3.1,2.06-5.22s-.67-3.8-2.06-5.19c-1.39-1.39-3.07-2.09-5.16-2.09Z"/>
  <path class="cls-1" d="M449.72,97.11h-44.01v-3.13h.92c2.72,0,5.26-.13,7.51-.32,2.06-.16,3.89-.51,5.42-1.01.12-.25.44-1.04.44-3.42v-45.12c0-2.37-.32-2.88-.38-2.91-.79-1.14-1.27-1.39-1.42-1.46-1.61-.44-5.51-.7-11.56-.7h-.92v-3.07l29.73-2.47v55.73c0,2.34.22,3.1.32,3.36.03,0,.22.16.85.44,1.84.6,5.95.95,12.19.95h.92v3.13ZM416.47,95.24h21.69c-.91-.15-1.65-.32-2.22-.51-.95-.41-1.49-.79-1.77-1.23-.28-.57-.6-1.49-.6-4.27v-53.7l-21.28,1.74c3.1.13,5.22.35,6.43.66.82.28,1.58.98,2.38,2.12.51.63.76,1.9.76,4.02v45.12c0,2.72-.38,4.24-1.2,4.94l-.29.16c-1.16.4-2.46.72-3.9.95ZM426.92,18.97c-2.53,0-4.69-.89-6.4-2.6-1.68-1.71-2.57-3.86-2.57-6.43s.89-4.72,2.57-6.43c1.71-1.71,3.86-2.6,6.4-2.6s4.69.89,6.4,2.6c1.68,1.71,2.53,3.89,2.53,6.43s-.85,4.72-2.53,6.43c-1.71,1.71-3.86,2.6-6.4,2.6ZM426.92,2.79c-2.06,0-3.71.66-5.07,2.03-1.36,1.39-2.03,3.07-2.03,5.13s.67,3.77,2.03,5.13c1.36,1.36,3.01,2.03,5.07,2.03s3.71-.66,5.07-2.03c1.36-1.36,2.03-3.04,2.03-5.13s-.67-3.74-2.03-5.13c-1.36-1.36-3.01-2.03-5.07-2.03Z"/>
  <path class="cls-1" d="M450.54,97.9h-45.63v-4.75h1.71c2.72,0,5.19-.09,7.44-.28,1.84-.16,3.48-.44,4.88-.89.1-.35.25-1.14.25-2.75v-45.12c0-1.96-.22-2.47-.25-2.5-.67-.95-1.01-1.11-1.01-1.11-1.01-.28-3.86-.63-11.3-.63h-1.71v-4.62l31.32-2.6v56.58c0,1.71.13,2.5.19,2.82.13.06.29.16.51.25,1.17.38,4.24.85,11.87.85h1.74v4.75ZM406.49,96.32h42.43v-1.55h-.13c-6.3,0-10.51-.35-12.44-.98-.41-.19-.67-.32-.82-.41h-.28l-.22-.47c-.25-.57-.38-1.8-.38-3.67v-54.84l-28.15,2.31v1.55h.13c6.14,0,10.1.25,11.78.73.57.19,1.2.79,1.87,1.74.35.44.54,1.58.54,3.39v45.12c0,1.9-.22,3.2-.6,3.83l-.16.25-.25.1c-1.61.51-3.48.89-5.6,1.04-2.28.22-4.81.32-7.57.32h-.13v1.55ZM438.16,96.07h-21.69l-.13-1.58c1.42-.22,2.66-.54,3.77-.92l.16-.13c.48-.41.79-1.84.79-4.21v-45.12c0-1.9-.19-3.07-.57-3.55-.73-1.04-1.39-1.65-2.03-1.84-1.08-.32-3.2-.54-6.21-.63l-.03-1.58,22.13-1.84v54.56c0,2.6.29,3.45.51,3.93.16.22.63.54,1.39.85.48.16,1.14.32,2.03.47l-.13,1.58ZM421.47,94.45h12.44c-.17-.15-.31-.32-.44-.51-.38-.76-.7-1.8-.7-4.72v-52.85l-13.17,1.11c.76.41,1.46,1.11,2.15,2.12.6.76.89,2.12.89,4.5v45.12c0,2.69-.35,4.31-1.17,5.22ZM426.92,19.76c-2.76,0-5.1-.95-6.93-2.82-1.87-1.87-2.82-4.21-2.82-6.97s.95-5.13,2.82-7c1.84-1.87,4.18-2.82,6.93-2.82s5.1.95,6.93,2.82c1.87,1.87,2.79,4.21,2.79,7s-.92,5.13-2.79,6.97c-1.84,1.87-4.18,2.82-6.93,2.82ZM426.92,1.74c-2.31,0-4.28.79-5.83,2.34-1.55,1.55-2.31,3.55-2.31,5.89s.76,4.31,2.31,5.86c1.55,1.55,3.51,2.34,5.83,2.34s4.27-.79,5.83-2.34c1.52-1.55,2.31-3.55,2.31-5.86s-.79-4.34-2.31-5.89c-1.55-1.55-3.51-2.34-5.83-2.34ZM426.92,17.92c-2.28,0-4.12-.76-5.64-2.28-1.52-1.52-2.25-3.39-2.25-5.67s.73-4.18,2.25-5.7c1.52-1.52,3.36-2.28,5.64-2.28s4.12.76,5.63,2.28c1.52,1.52,2.25,3.39,2.25,5.7s-.73,4.15-2.25,5.67c-1.52,1.52-3.36,2.28-5.63,2.28ZM426.92,3.61c-1.84,0-3.29.57-4.5,1.77-1.2,1.23-1.81,2.72-1.81,4.59s.6,3.32,1.81,4.56c1.2,1.2,2.66,1.8,4.5,1.8s3.29-.6,4.5-1.8c1.2-1.23,1.81-2.72,1.81-4.56s-.6-3.36-1.81-4.59c-1.2-1.2-2.66-1.77-4.5-1.77Z"/>
  <path class="cls-2" d="M483.98,89.26c0,1.92.14,3.17.41,3.74.19.3.62.59,1.3.89,2.03.68,6.22,1.01,12.57,1.01v1.3h-42.18v-1.3c2.81,0,5.34-.1,7.6-.29,2.26-.19,4.21-.58,5.86-1.17.57-.49.85-1.89.85-4.21V11.88c0-1.94-.28-3.29-.85-4.05-.59-.78-1.17-1.27-1.74-1.46-1.73-.49-5.58-.73-11.56-.73v-1.3l27.74-2.47v87.39Z"/>
  <path class="cls-1" d="M499.08,96.99h-43.79v-2.88h.79c2.82,0,5.35-.1,7.54-.29,2.09-.19,3.93-.54,5.48-1.08.16-.22.51-1.01.51-3.51V11.87c0-2.18-.38-3.17-.7-3.58-.47-.63-.95-1.04-1.36-1.17-1.61-.44-5.42-.7-11.3-.7h-.79v-2.82l29.32-2.6v88.25c0,2.41.22,3.17.35,3.39,0,0,.22.19.89.51,1.87.6,6.02.95,12.25.95h.82v2.88ZM489.87,95.37c-1.96-.16-3.42-.41-4.43-.76-.89-.38-1.42-.76-1.71-1.17-.25-.54-.54-1.46-.54-4.21V2.72l-23.91,2.12c4.37.09,7.25.32,8.74.73.76.25,1.46.82,2.15,1.74.7.92,1.01,2.41,1.01,4.53v77.39c0,2.66-.35,4.15-1.14,4.81l-.25.13c-1.71.6-3.74,1.01-6.05,1.2h26.12Z"/>
  <path class="cls-1" d="M499.18,97.11h-44.01v-3.13h.92c2.82,0,5.32-.13,7.5-.32,2.06-.16,3.9-.51,5.42-1.01.13-.22.48-1.01.48-3.42V11.87c0-2.15-.38-3.1-.7-3.51-.57-.76-1.01-1.04-1.3-1.11-1.58-.44-5.38-.7-11.24-.7h-.92v-3.07l29.57-2.63v88.4c0,2.31.22,3.1.32,3.32.03,0,.22.16.86.44,1.83.6,5.95.95,12.19.95h.92v3.13ZM465.96,95.24h21.69c-.91-.15-1.66-.32-2.25-.51-.95-.41-1.49-.79-1.77-1.24-.29-.57-.6-1.49-.6-4.27V2.88l-21.4,1.9c3.07.09,5.19.32,6.43.66.79.28,1.52.85,2.22,1.8.7.95,1.05,2.44,1.05,4.59v77.39c0,2.69-.35,4.21-1.2,4.91l-.28.16c-1.14.41-2.44.73-3.86.95Z"/>
  <path class="cls-1" d="M500,97.9h-45.63v-4.75h1.71c2.75,0,5.26-.09,7.44-.28,1.87-.16,3.48-.44,4.88-.89.13-.32.25-1.11.25-2.75V11.87c0-2.09-.35-2.82-.51-3.04-.51-.7-.82-.82-.89-.82-1.04-.28-3.8-.66-11.02-.66h-1.74V2.75l31.19-2.75v89.26c0,1.68.13,2.47.19,2.79.1.06.27.15.51.25,1.17.38,4.24.85,11.87.85h1.74v4.75ZM486,96.32h12.38v-1.55h-.13c-6.11,0-10.23-.32-12.25-.92v.25c.47.13,1.05.25,1.74.38l-.1,1.58h-1.65v.25ZM455.96,96.32h30.05l-.09-.25h-19.95l-.13-1.58c1.36-.22,2.63-.54,3.74-.92l.16-.1c.51-.44.79-1.87.79-4.24V11.87c0-1.96-.29-3.36-.89-4.15-.6-.82-1.2-1.3-1.84-1.52-1.14-.28-3.23-.51-6.21-.63l-.06-1.58,22.32-1.96v87.23c0,2.56.25,3.45.47,3.89.08.13.23.25.44.38l-.29-.63c-.25-.6-.38-1.8-.38-3.64V1.74l-27.99,2.47v1.55h.13c5.92,0,9.78.25,11.46.7.59.19,1.16.66,1.71,1.42.57.76.85,2.09.85,3.99v77.35c0,1.93-.19,3.2-.6,3.83l-.16.25-.25.1c-1.58.54-3.48.89-5.61,1.04-2.22.22-4.75.32-7.57.32h-.13v1.55ZM470.93,94.45h12.47c-.19-.15-.34-.32-.44-.51-.41-.76-.73-1.8-.73-4.72V3.77l-13.39,1.17c.76.38,1.42.98,2.06,1.84.82,1.08,1.2,2.75,1.2,5.07v77.39c0,2.69-.35,4.31-1.17,5.22Z"/>
  <path class="cls-1" d="M237.88,65.2c0,10.68,1.27,18.41,3.8,23.18,2.53,4.79,6.39,7.19,11.56,7.19,5.45,0,10.25-1.85,14.41-5.54,5.07-4.5,7.6-10.59,7.6-18.27h1.2c0,7.45-2.39,13.55-7.16,18.3-4.75,4.77-11.09,7.16-19.03,7.16-6.67,0-12.73-2.53-18.18-7.6-6.46-5.95-9.69-13.74-9.69-23.37,0-10.41,3.18-18.89,9.53-25.46,5.57-5.66,11.82-8.49,18.75-8.49,6.46,0,11.82,1.89,16.08,5.67,6.25,5.55,9.37,14.63,9.37,27.23h-38.25ZM263.5,63.42c0-9.63-.86-16.97-2.57-22.04-1.73-5.07-4.51-7.6-8.33-7.6-5.4,0-9.2,2.41-11.4,7.22-2.22,4.81-3.32,12.29-3.32,22.42h25.62Z"/>
  <path class="cls-1" d="M250.26,98.16c-6.87,0-13.2-2.63-18.84-7.85-6.62-6.11-9.97-14.22-9.97-24.06,0-10.61,3.29-19.41,9.82-26.12,5.7-5.83,12.25-8.77,19.44-8.77,6.65,0,12.28,1.99,16.69,5.89,6.46,5.73,9.72,15.13,9.72,27.96v.98h-38.25c.06,9.97,1.3,17.29,3.67,21.75,2.37,4.5,5.86,6.68,10.7,6.68,5.19,0,9.82-1.77,13.77-5.29,4.84-4.31,7.28-10.2,7.28-17.57v-.95h3.1v.95c0,7.66-2.5,14.06-7.41,19-4.94,4.91-11.59,7.41-19.73,7.41ZM248.43,33.38c-5.76.57-11.08,3.26-15.8,8.11-6.14,6.33-9.25,14.66-9.25,24.76,0,9.31,3.13,16.94,9.37,22.67,5.22,4.88,11.11,7.35,17.51,7.35-4.09-.79-7.22-3.29-9.4-7.41-2.6-4.91-3.93-12.86-3.93-23.65v-1.77c0-10.23,1.14-17.89,3.39-22.8,1.77-3.83,4.46-6.24,8.11-7.25ZM264.45,64.25h10.74c-.16-11.75-3.2-20.36-9.06-25.55-2.63-2.37-5.76-3.96-9.37-4.78,2.2,1.29,3.88,3.68,5.07,7.19,1.74,5.13,2.63,12.63,2.63,22.32v.82ZM238.87,62.44h23.68c-.06-8.99-.92-15.99-2.53-20.74-1.58-4.69-3.99-6.97-7.41-6.97-5.03,0-8.49,2.18-10.54,6.68s-3.13,11.59-3.2,21.02Z"/>
</svg>