<svg width="164" height="32" viewBox="0 0 164 32" fill="none" xmlns="http://www.w3.org/2000/svg">
<rect width="163.993" height="32" fill="none"/>
<path d="M22.4102 9.78675C21.5221 9.78675 20.7413 10.0251 20.0798 10.4483C19.3288 7.84373 17.058 6.37158 13.6071 6.37158H8.15948V8.26691H13.7561C16.6169 8.26691 18.2977 9.81654 18.2977 12.5224C18.2977 15.2284 16.611 16.778 13.7561 16.778H13.7143L14.0302 16.3131C14.7216 15.276 15.3534 14.2509 15.3534 13.2913C15.3534 11.3066 14.0898 9.79866 11.6223 9.79866C9.4886 9.79866 7.8734 11.4377 7.8734 13.3688H9.90581C9.90581 12.4032 10.5376 11.7 11.6223 11.7C12.7846 11.7 13.321 12.3794 13.321 13.3569C13.321 14.1078 12.8382 14.8648 12.3137 15.6277L11.5031 16.8018H8.16544V18.6972H10.2098L6.63965 23.9182H15.1865V22.005H10.1442L12.415 18.6793H13.6071C13.8037 18.6793 14.0004 18.6793 14.1911 18.6674L20.1632 26.4632H22.738L20.7652 23.9063L24.5141 18.429C25.4797 17.076 26.6061 15.5979 26.6061 13.8992C26.5882 11.6582 24.8717 9.7927 22.4042 9.7927L22.4102 9.78675ZM19.5076 22.2792L16.4202 18.2919C17.5467 17.9283 18.4646 17.3263 19.1321 16.5038C19.8712 17.4336 21.0274 18.0237 22.4281 18.0237H22.5353L19.5076 22.2792ZM22.4102 16.1403C21.1168 16.1403 20.2765 15.1628 20.2765 13.9112C20.2765 13.8039 20.2765 13.7145 20.2884 13.6072V13.5476C20.4374 12.4807 21.236 11.6821 22.3923 11.6821C23.6857 11.6821 24.526 12.6595 24.526 13.9112C24.538 15.1568 23.6976 16.1403 22.4042 16.1403H22.4102Z" fill="#161618"/>
<path d="M15.997 0.00596142C7.17601 0.00596142 0 7.18197 0 16.003C0 24.824 7.17601 32 15.997 32C24.818 32 31.994 24.824 31.994 15.9851C31.994 7.14621 24.818 0 15.997 0V0.00596142ZM15.997 30.1047C8.21308 30.1047 1.89533 23.7869 1.89533 16.003C1.89533 8.21903 8.21308 1.90129 15.997 1.90129C23.781 1.90129 30.0987 8.21903 30.0987 16.003C30.0868 23.7869 23.781 30.0928 15.997 30.1047ZM51.1142 15.9076C51.883 15.1805 52.3777 14.1494 52.3777 13.005C52.3777 11.8607 51.883 10.8296 51.1142 10.1024C50.4109 9.44683 49.4751 9.0475 48.0209 9.0475H42.8475V23.2326H45.5891V16.9626H46.5725L51.6267 23.2326H54.9942L49.6778 16.7242C50.2082 16.5632 50.697 16.2831 51.1023 15.9076H51.1142ZM49.2427 14.1077C49.0102 14.3639 48.6586 14.5308 47.8599 14.5308H45.5891V11.4852H47.8599C48.6586 11.4852 49.0043 11.6759 49.2427 11.9322C49.7672 12.564 49.7672 13.4818 49.2427 14.1077ZM59.6133 16.8434H63.9702V14.4116H59.6133V11.4852H65.3708V9.05346H56.8717V23.2386H65.5794V20.8069H59.6133V16.8493V16.8434ZM69.1615 23.2326H71.9032V16.8434H76.2541V14.4116H71.9032V11.4852H77.6607V9.05346H69.1674V23.2386L69.1615 23.2326ZM80.5394 9.0475H83.2811V23.2326H80.5394V9.0475ZM97.0192 18.2917L89.1041 9.0475H87.185V23.2326H89.9266V13.9885L97.8357 23.2326H99.7549V9.0475H97.0132V18.2917H97.0192ZM106.663 16.8374H111.02V14.4057H106.663V11.4792H112.42V9.0475H103.927V23.2326H112.635V20.8009H106.669V16.8434L106.663 16.8374ZM124.478 15.9017C125.246 15.1745 125.741 14.1434 125.741 12.9991C125.741 11.8547 125.246 10.8236 124.478 10.0965C123.774 9.44087 122.839 9.04154 121.384 9.04154H116.211V23.2267H118.953V16.9566H119.936L124.966 23.2267H128.364L123.047 16.7182C123.578 16.5513 124.06 16.2712 124.472 15.9017H124.478ZM122.582 14.1017C122.35 14.358 121.998 14.5249 121.199 14.5249H118.929V11.4792H121.199C121.998 11.4792 122.344 11.67 122.582 11.9262C122.839 12.2362 122.982 12.6236 122.982 13.0289C122.999 13.4282 122.856 13.8156 122.582 14.1077V14.1017ZM134.05 14.0302L130.915 9.0475H127.803L132.673 16.8195V23.2326H135.414V16.8195L140.26 9.0475H137.149L134.061 14.0302H134.05ZM149.635 17.1652C150.619 15.8778 151.179 14.7752 151.179 13.0229C151.179 10.4243 148.98 8.5528 146.548 8.5528H146.453C144.021 8.5528 141.983 10.3528 141.822 12.9752H144.563C144.593 11.9143 145.445 11.062 146.506 11.0322C147.573 11.0561 148.425 11.9143 148.449 12.9752C148.449 13.7262 148.354 14.4951 147.329 15.8063L141.243 23.2267H151.703V20.7473H146.673L149.641 17.1652H149.635ZM158.79 8.5528C156.001 8.57068 153.748 10.8415 153.76 13.6308C153.718 16.3427 155.882 18.5718 158.593 18.6135C158.635 18.6135 158.677 18.6135 158.719 18.6135H158.909L156.215 23.2267H159.237L162.587 17.493C163.338 16.2056 163.993 14.9421 163.993 13.5176C163.993 10.472 161.436 8.5528 158.796 8.5528H158.79ZM158.862 16.1579C157.455 16.1579 156.317 15.0136 156.311 13.607C156.311 12.2004 157.455 11.0561 158.862 11.0561C160.268 11.0561 161.413 12.2004 161.413 13.607C161.413 15.0136 160.268 16.1579 158.862 16.1579Z" fill="#161618"/>
</svg>
