<svg xmlns="http://www.w3.org/2000/svg" version="1.1" width="1086" height="806">
<path d="M0 0 C111.54 0 223.08 0 338 0 C338 11.55 338 23.1 338 35 C336.515 36.485 336.515 36.485 335 38 C334.67 38.99 334.34 39.98 334 41 C333.34 41 332.68 41 332 41 C331.76539063 41.53367187 331.53078125 42.06734375 331.2890625 42.6171875 C329.62278152 45.69728264 327.52780169 48.37743027 325.375 51.125 C324.92769531 51.70121094 324.48039062 52.27742188 324.01953125 52.87109375 C320.73550627 57.09073838 317.39703711 61.26555473 314.04296875 65.4296875 C311.76147708 68.30009194 309.5364832 71.20982717 307.3125 74.125 C303.57601581 79.0204092 299.72303922 83.80536749 295.8125 88.5625 C290.17661079 95.43171159 284.83180505 102.49248954 279.53442383 109.62475586 C275.15212179 115.51008119 270.63574844 121.26265062 266.01123047 126.95874023 C262.6122206 131.16751079 259.49883337 135.51582114 256.453125 139.98828125 C254.55822305 142.61159981 252.34672326 144.78012665 250 147 C249.278125 147.928125 248.55625 148.85625 247.8125 149.8125 C247.214375 150.534375 246.61625 151.25625 246 152 C245.34 152 244.68 152 244 152 C243.73832031 152.56203125 243.47664062 153.1240625 243.20703125 153.703125 C238.66270491 162.35058096 231.6979286 169.94622258 225.48120117 177.42871094 C223.17921761 180.21777887 221.08491279 182.85653315 219.23828125 185.9765625 C218.82964844 186.64429688 218.42101562 187.31203125 218 188 C217.34 188 216.68 188 216 188 C215.566875 188.86625 215.566875 188.86625 215.125 189.75 C214.08333333 191.83333333 213.04166667 193.91666667 212 196 C211.34 196 210.68 196 210 196 C209.690625 196.61875 209.38125 197.2375 209.0625 197.875 C208.375 199.25 207.6875 200.625 207 202 C251.55 202.33 296.1 202.66 342 203 C342 212.57 342 222.14 342 232 C285.24 232 228.48 232 170 232 C170 198 170 198 177 188 C177.66 187.01 178.32 186.02 179 185 C179.66 185 180.32 185 181 185 C181.24878906 184.27683594 181.49757813 183.55367187 181.75390625 182.80859375 C183.12343907 179.72177839 184.74955201 177.63027259 186.9375 175.0625 C188.13826172 173.62970703 188.13826172 173.62970703 189.36328125 172.16796875 C189.7907666 171.6579834 190.21825195 171.14799805 190.65869141 170.62255859 C193.03421061 167.7489327 195.32761252 164.81118872 197.625 161.875 C198.09172119 161.28025879 198.55844238 160.68551758 199.03930664 160.07275391 C202.18225161 156.06234946 205.29328551 152.02850999 208.3671875 147.96484375 C210 146 210 146 212.3828125 143.65234375 C215.18081144 140.81675975 217.60576349 137.7976422 220 134.625 C220.65355469 133.76998901 220.65355469 133.76998901 221.3203125 132.89770508 C223.62067242 129.87546949 225.84928887 126.81755281 228 123.6875 C228.66 122.800625 229.32 121.91375 230 121 C230.66 121 231.32 121 232 121 C232.35578125 120.21882813 232.35578125 120.21882813 232.71875 119.421875 C234.41923223 116.20754883 236.44221309 113.24135157 238.5 110.25 C239.10521484 109.34701172 239.10521484 109.34701172 239.72265625 108.42578125 C240.76220271 106.91277798 241.87588843 105.45127837 243 104 C243.66 104 244.32 104 245 104 C245.22816406 103.47148437 245.45632813 102.94296875 245.69140625 102.3984375 C247.4355932 99.20162918 249.66679481 96.45561587 251.9375 93.625 C252.9349665 92.36854568 253.9323603 91.11203364 254.9296875 89.85546875 C255.43983398 89.21528809 255.94998047 88.57510742 256.47558594 87.91552734 C258.84978225 84.93219226 261.20686755 81.93550112 263.5625 78.9375 C264.01592773 78.36112793 264.46935547 77.78475586 264.93652344 77.19091797 C268.46825691 72.69495319 271.95520123 68.16575395 275.43066406 63.6262207 C278.63972745 59.44375857 281.93105276 55.33297113 285.24609375 51.234375 C286.87306608 49.16170647 288.38491138 47.04714084 289.875 44.875 C290.57625 43.92625 291.2775 42.9775 292 42 C292.66 42 293.32 42 294 42 C294.33 40.68 294.66 39.36 295 38 C296.98 35.36 298.96 32.72 301 30 C237.64 29.67 174.28 29.34 109 29 C109 95.99 109 162.98 109 232 C98.44 232 87.88 232 77 232 C77 165.01 77 98.02 77 29 C51.59 29 26.18 29 0 29 C0 19.43 0 9.86 0 0 Z " fill="#000000ff" transform="translate(279,287)"/>
<path d="M0 0 C0.8848558 -0.0049649 1.76971161 -0.00992981 2.68138123 -0.01504517 C5.63158943 -0.02973392 8.58174352 -0.036487 11.53198242 -0.04199219 C13.59014385 -0.04774704 15.64830526 -0.05350473 17.70646667 -0.05926514 C22.04194386 -0.06980014 26.37740242 -0.07562349 30.71289062 -0.07910156 C36.21400537 -0.08453039 41.7148655 -0.10842515 47.21590137 -0.13707352 C51.48101964 -0.15591287 55.74607988 -0.1609171 60.01123619 -0.16243744 C62.03500416 -0.16542707 64.05877205 -0.1733273 66.08249855 -0.18662262 C88.21638007 -0.32141017 113.52735081 0.62384796 131.57495117 15.16113281 C132.19499023 15.62132812 132.8150293 16.08152344 133.45385742 16.55566406 C138.30311452 20.35756542 141.46238919 24.88331033 144.57495117 30.16113281 C144.96811523 30.82242187 145.3612793 31.48371094 145.76635742 32.16503906 C150.71659934 41.20699387 150.91685753 51.00048809 150.88745117 61.09863281 C150.90356445 62.20142578 150.91967773 63.30421875 150.9362793 64.44042969 C150.94521583 79.58786066 146.02610588 91.23492562 135.57495117 102.16113281 C134.91495117 102.16113281 134.25495117 102.16113281 133.57495117 102.16113281 C133.24495117 103.15113281 132.91495117 104.14113281 132.57495117 105.16113281 C126.49649339 109.83937443 119.6821556 113.33579969 112.57495117 116.16113281 C113.84338867 116.68900391 113.84338867 116.68900391 115.13745117 117.22753906 C127.56043956 122.63436242 134.5363919 128.03488229 139.80981445 140.87084961 C143.10141339 150.72359038 144.31185364 161.29183901 145.76638794 171.54943848 C146.08292244 173.77979986 146.40625457 176.00909529 146.73095703 178.23828125 C147.66465948 184.6701643 148.57687458 191.1037236 149.42260742 197.54785156 C150.59623631 206.41241238 152.00454094 214.79890511 154.70776367 223.34863281 C155.51107408 225.95396388 156.17992675 228.46340509 156.57495117 231.16113281 C155.57495117 232.16113281 155.57495117 232.16113281 152.43212891 232.2746582 C151.0409242 232.27449914 149.64971356 232.26880788 148.25854492 232.25878906 C147.52749039 232.25737411 146.79643585 232.25595917 146.04322815 232.25450134 C143.69959485 232.24888689 141.35605578 232.23633203 139.01245117 232.22363281 C137.42716609 232.21861967 135.84187952 232.21405644 134.2565918 232.20996094 C130.36267507 232.19891278 126.46882912 232.18163853 122.57495117 232.16113281 C120.32722894 226.55137845 118.74205314 221.159312 117.63745117 215.22363281 C117.47124268 214.34682861 117.30503418 213.47002441 117.13378906 212.56665039 C115.32200523 202.52056859 114.17500577 192.38036141 113.05761719 182.23754883 C111.04041249 163.78889281 111.04041249 163.78889281 105.57495117 146.16113281 C105.4434668 145.45472656 105.31198242 144.74832031 105.17651367 144.02050781 C104.87874023 143.10011719 104.87874023 143.10011719 104.57495117 142.16113281 C103.58495117 141.83113281 102.59495117 141.50113281 101.57495117 141.16113281 C100.97166992 140.37222656 100.36838867 139.58332031 99.74682617 138.77050781 C97.27045393 135.795298 95.39343108 134.83482687 91.82495117 133.41113281 C90.34768555 132.80011719 90.34768555 132.80011719 88.84057617 132.17675781 C81.02541018 129.7462038 72.87440453 129.96128744 64.76245117 129.84472656 C63.15273438 129.81674988 63.15273438 129.81674988 61.51049805 129.78820801 C57.53205984 129.72031705 53.55349675 129.65990993 49.57495117 129.59863281 C40.66495117 129.45425781 31.75495117 129.30988281 22.57495117 129.16113281 C22.57495117 163.15113281 22.57495117 197.14113281 22.57495117 232.16113281 C12.34495117 232.16113281 2.11495117 232.16113281 -8.42504883 232.16113281 C-10.31122834 230.2749533 -9.55063608 227.52701921 -9.55879223 225.0168972 C-9.55656151 224.12557405 -9.55433079 223.23425091 -9.55203247 222.31591797 C-9.55359246 221.37655207 -9.55515245 220.43718616 -9.55675972 219.46935463 C-9.56077404 216.29628594 -9.55757841 213.12326442 -9.55444336 209.95019531 C-9.55579721 207.685689 -9.55757705 205.42118291 -9.55975342 203.15667725 C-9.5643297 196.98743912 -9.56253739 190.81821762 -9.55937433 184.64897919 C-9.55685173 178.20853122 -9.55918799 171.76808473 -9.5607605 165.32763672 C-9.56269937 153.81580921 -9.55958153 142.30399025 -9.55450116 130.79216409 C-9.55003312 120.34418635 -9.55080905 109.89621972 -9.55541992 99.44824219 C-9.56076558 87.3295359 -9.56276658 75.21083834 -9.55980766 63.09213066 C-9.55824442 56.67187101 -9.55805238 50.25161903 -9.56134415 43.83135986 C-9.56422165 37.79699182 -9.5622494 31.76264487 -9.55644989 25.72827911 C-9.55512164 23.5065947 -9.55551749 21.28490852 -9.55771255 19.06322479 C-9.56042153 16.04424135 -9.55704604 13.02532665 -9.55203247 10.00634766 C-9.55426319 9.11502451 -9.55649391 8.22370136 -9.55879223 7.30536842 C-9.53179391 -1.00358389 -7.56328976 0.01001796 0 0 Z M22.57495117 30.16113281 C22.57495117 52.93113281 22.57495117 75.70113281 22.57495117 99.16113281 C32.14495117 99.24363281 41.71495117 99.32613281 51.57495117 99.41113281 C54.56170898 99.44754883 57.5484668 99.48396484 60.62573242 99.52148438 C86.75961745 100.11826414 86.75961745 100.11826414 109.37573242 88.46191406 C117.5172413 79.50431121 117.01346761 68.66000827 116.57495117 57.16113281 C115.98530867 49.54113742 112.76345946 43.74048918 107.57495117 38.16113281 C93.22301505 26.30026252 65.91569649 29.80006293 48.82495117 29.97363281 C35.83120117 30.06644531 35.83120117 30.06644531 22.57495117 30.16113281 Z " fill="#000000ff" transform="translate(649.425048828125,286.8388671875)"/>
<path d="M0 0 C64.35 0 128.7 0 195 0 C195 0.99 195 1.98 195 3 C195.99 3.495 195.99 3.495 197 4 C192.25 8 192.25 8 190 8 C190 8.66 190 9.32 190 10 C189.01 9.505 189.01 9.505 188 9 C190.475 5.535 190.475 5.535 193 2 C129.64 1.67 66.28 1.34 1 1 C1 67.99 1 134.98 1 204 C-9.56 204 -20.12 204 -31 204 C-31 137.01 -31 70.02 -31 1 C-30.67 1 -30.34 1 -30 1 C-30 67.66 -30 134.32 -30 203 C-20.1 203 -10.2 203 0 203 C0 136.01 0 69.02 0 0 Z " fill="#000000ff" transform="translate(387,315)"/>
<path d="M0 0 C1.36682561 2.73365122 0.84683011 4.10666379 0 7 C-1.4375 8.6875 -1.4375 8.6875 -3 10 C-3.66 10.66 -4.32 11.32 -5 12 C-7.125 12.625 -7.125 12.625 -9 13 C-6.38888348 8.16459904 -3.62542917 4.12896099 0 0 Z " fill="#000000ff" transform="translate(508,410)"/>
<path d="M0 0 C1 3 1 3 0.109375 4.7890625 C-0.33921875 5.39492188 -0.7878125 6.00078125 -1.25 6.625 C-1.68828125 7.23601562 -2.1265625 7.84703125 -2.578125 8.4765625 C-4 10 -4 10 -7 11 C-5.7580393 7.56072421 -4.44259716 4.74792181 -2 2 C-1.34 2 -0.68 2 0 2 C0 1.34 0 0.68 0 0 Z " fill="#000000ff" transform="translate(524,389)"/>
<path d="M0 0 C0.99 0.66 1.98 1.32 3 2 C1.54618103 2.69699552 0.08677047 3.38233866 -1.375 4.0625 C-2.18710937 4.44535156 -2.99921875 4.82820313 -3.8359375 5.22265625 C-4.55007813 5.47917969 -5.26421875 5.73570312 -6 6 C-6.66 5.67 -7.32 5.34 -8 5 C-7 3 -7 3 -4.5625 1.8125 C-2 1 -2 1 0 2 C0 1.34 0 0.68 0 0 Z " fill="#000000ff" transform="translate(772,395)"/>
<path d="M0 0 C1.24546405 2.49092811 0.7767578 3.41080733 0 6 C-0.66 6 -1.32 6 -2 6 C-2.33 6.99 -2.66 7.98 -3 9 C-3.66 8.67 -4.32 8.34 -5 8 C-3.62845496 5.04590299 -2.01136276 2.55991624 0 0 Z " fill="#000000ff" transform="translate(485,438)"/>
<path d="M0 0 C0.33 0.66 0.66 1.32 1 2 C-0.1312477 4.92238988 -1.59289861 6.99408218 -4 9 C-4.66 9 -5.32 9 -6 9 C-4.47291037 5.56404834 -2.40072955 2.88087546 0 0 Z " fill="#000000ff" transform="translate(508,410)"/>
<path d="M0 0 C0.33 0.99 0.66 1.98 1 3 C-0.32 4.32 -1.64 5.64 -3 7 C-3.99 6.34 -4.98 5.68 -6 5 C-4.02 3.35 -2.04 1.7 0 0 Z " fill="#000000ff" transform="translate(760,373)"/>
<path d="M0 0 C2 1 2 1 2 1 Z M-3 1 C-2.01 1.33 -1.02 1.66 0 2 C-1.375 3.5 -1.375 3.5 -3 5 C-3.66 5 -4.32 5 -5 5 C-5 5.66 -5 6.32 -5 7 C-5.66 6.67 -6.32 6.34 -7 6 C-5.68 4.35 -4.36 2.7 -3 1 Z " fill="#000000ff" transform="translate(582,318)"/>
</svg>