<svg width="120" height="32" viewBox="0 0 120 32" fill="none" xmlns="http://www.w3.org/2000/svg">
<path d="M0.075359 1.12842H10.6358C10.6969 1.12842 10.6776 1.44893 10.6358 1.44893H8.45576C8.45576 1.44893 7.84659 1.42264 8.02767 1.76944C8.06498 1.84059 15.4876 22.7541 15.4876 22.7541C15.4876 22.7541 15.6178 23.1144 15.7211 23.1551C15.7211 23.1551 22.318 2.15757 22.3248 2.13738C22.3923 1.92937 22.6268 1.46239 22.2212 1.46239H19.8338C19.7923 1.46239 19.7923 1.14156 19.8338 1.14156H25.5163C25.5585 1.14156 25.5585 1.46239 25.5163 1.46239H23.4019C22.822 1.44989 22.8175 1.6345 22.714 1.94347C22.6615 2.09988 13.5288 31.4283 13.5288 31.4283C13.5288 31.4283 13.488 31.3008 13.4507 31.188C9.58983 19.6779 3.59689 3.66492 3.12345 1.95693C2.98129 1.44444 2.90989 1.46111 2.6172 1.46239C2.51364 1.46303 0.149012 1.46239 0.075359 1.46239C-0.000224108 1.46239 0.0100681 1.12842 0.075359 1.12842" fill="#161618"/>
<path d="M0.469727 3.28875C0.469727 2.82914 0.831239 2.45703 1.27702 2.45703C1.72312 2.45703 2.08463 2.82914 2.08463 3.28875C2.08463 3.74804 1.72312 4.12015 1.27702 4.12015C0.831239 4.12015 0.469727 3.74804 0.469727 3.28875M1.27573 4.0256C1.67037 4.0256 1.9904 3.6958 1.9904 3.28875C1.9904 2.88235 1.67037 2.5519 1.27573 2.5519C0.88077 2.5519 0.560426 2.88235 0.560426 3.28875C0.560426 3.6958 0.88077 4.0256 1.27573 4.0256Z" fill="#161618"/>
<path d="M0.99707 2.86352H1.31291C1.50364 2.86352 1.58662 2.94621 1.58662 3.10294C1.58662 3.24396 1.49013 3.31319 1.37016 3.33242L1.62168 3.73081H1.54159L1.28847 3.3305H1.06912V3.73081H0.99707V2.86352ZM1.06912 3.26608H1.24859C1.37563 3.26608 1.5149 3.25197 1.5149 3.10101C1.5149 2.96768 1.40297 2.9289 1.30165 2.9289H1.06912V3.26608ZM27.5628 15.8996C27.5628 7.50705 29.1275 0.646558 34.9043 0.648802C41.1166 0.651045 42.3366 7.79262 42.3366 15.8996C42.3366 24.2921 41.1504 31.5333 34.9564 31.5266C28.3057 31.5199 27.5628 24.7229 27.5628 15.8996M34.8403 31.7673C41.0028 31.7901 47.6714 24.7594 47.6872 16.0611C47.7043 6.95064 41.2938 0.461304 34.9452 0.407779C28.4486 0.352972 22.215 7.70256 22.215 16.0611C22.215 24.7055 28.1047 31.743 34.8403 31.7673M65.1312 18.8194H67.5427C67.5427 18.8194 67.9911 18.7707 67.9863 18.9941L67.9856 26.0998C67.9856 31.5664 62.6977 31.6285 61.2034 31.4542C55.6742 30.8093 55.5581 19.0495 55.5302 15.9617C55.4555 7.5689 56.7353 0.258102 62.2982 0.549444C68.9048 0.894311 70.6314 10.6445 70.7372 11.0826C70.9565 11.1631 70.9591 10.975 70.9591 10.975L70.9716 0.336306C70.9716 0.336306 70.9273 0.246243 70.7964 0.3706C70.75 0.416112 70.6966 0.472201 70.6336 0.537585C67.711 3.61511 66.2469 0.3956 61.9998 0.253935C56.7672 0.0805398 50.2664 7.55384 50.1821 16.1762C50.0988 24.8514 55.6279 31.5391 61.6736 31.7756C64.951 31.9038 64.8809 30.9644 68.9251 29.6728C71.3975 28.8834 72.5634 30.5994 72.6544 31.3115C72.8098 31.4186 72.8233 31.2314 72.8233 31.2314V19.0345C72.8233 18.7928 73.1488 18.8329 73.1488 18.8329H75.3789C75.4343 18.8329 75.4343 18.497 75.3789 18.497H65.1183C65.0421 18.497 65.0421 18.8194 65.1312 18.8194M119.325 1.12508V12.0538C119.325 12.107 119.117 12.1204 119.117 12.0538C119.117 11.9865 119.311 1.43501 109.805 1.43501H106.238C106.039 1.43501 105.918 1.47123 105.918 1.62956V15.2807C105.918 15.4085 106.044 15.4775 106.233 15.4775H107.424C113.083 15.4775 112.627 9.62849 112.627 9.56151C112.627 9.49516 112.847 9.50798 112.847 9.56151L112.86 21.8956C112.86 21.9479 112.692 21.962 112.692 21.8956C112.692 21.828 112.562 15.7989 107.294 15.7989H106.233C106.05 15.7989 105.918 15.8685 105.918 15.998V30.6878C105.918 30.7914 106.04 30.8862 106.238 30.8862C107.036 30.8894 109.089 30.8952 109.659 30.8974C119.878 30.9237 119.741 19.6245 119.741 19.5707C119.741 19.5171 120 19.5171 120 19.5707V31.2744H98.4366C98.3717 31.2744 98.3781 30.9529 98.4366 30.9529H100.592C100.784 30.9529 100.908 30.8843 100.908 30.7555C100.908 28.2074 100.912 1.86064 100.908 1.6411C100.905 1.45328 100.669 1.4411 100.592 1.4411L95.8208 1.44078C95.8208 1.44078 95.5085 1.44334 95.5085 1.62828C95.5079 3.69876 95.5059 21.1793 95.5079 23.6681V23.6793C95.5194 29.843 90.9214 31.8529 87.6128 31.9106L87.6064 31.9003C83.715 31.9199 76.7221 31.2446 76.7221 22.3575C76.7221 22.3575 76.7044 2.13532 76.6957 1.85456C76.6832 1.4145 76.1518 1.43629 76.1518 1.43629L73.8676 1.44078C73.7972 1.44078 73.8097 1.11931 73.8676 1.11931H84.6371C84.695 1.11931 84.6757 1.44078 84.6371 1.44078L82.3458 1.44046C82.3458 1.44046 81.6401 1.39783 81.6401 1.8818C81.6401 2.56384 81.6527 24.4427 81.6527 25.2177C81.6527 28.6289 83.5284 31.6506 87.6064 31.5805C90.7876 31.525 95.2091 29.5923 95.1968 23.6681C95.1949 23.378 95.1968 3.826 95.1968 1.62828C95.1837 1.45712 94.8604 1.44078 94.8604 1.44078H91.8696C91.8049 1.44078 91.8168 1.13213 91.8818 1.13213L119.325 1.12508" fill="#161618"/>
</svg>