<?xml version="1.0" encoding="UTF-8"?><svg width="638.65" height="188.79" viewBox="0 0 638.65 188.79" id="Livello_1" xmlns="http://www.w3.org/2000/svg"><path d="M62.94,54.32L29.91,129.06h4.89l10.53-24.73h36.47l11.27,24.73h8.76L67.71,54.32h-4.77Zm-16.3,47.06l16.83-39.5,16.95,39.5H46.64Z"/><polygon points="196.1 117.54 141.95 54.7 141.66 54.37 136.54 54.37 136.54 129.01 140.52 129.01 140.52 63.62 197.28 129.01 200.08 129.01 200.08 54.37 196.1 54.37 196.1 117.54"/><path d="M279.97,99.84h20.61v2.63c-.5,14.72-9.93,24.23-25.53,24.23-19.75,0-32.51-14.27-32.51-36.37s11.81-34.17,30.82-34.17c15.28,0,26.1,8.91,27.56,22.7l.1,.93,7.69-.81-.17-.96c-2.59-15.01-16.24-24.71-34.76-24.71-23.57,0-39.41,15.36-39.41,38.22s15.64,38.52,38.04,38.52c13.81,0,24.32-5.59,29.14-15.21v14.11h7.53v-32.06h-29.12v2.95Z"/><path d="M376.14,54.32l-33.04,74.74h4.89l10.53-24.73h36.47l11.27,24.73h8.76l-34.12-74.74h-4.77Zm-16.3,47.06l16.83-39.5,16.95,39.5h-33.79Z"/><path d="M485.18,91.95c9.39-2.5,17.63-8.71,17.63-18.71,0-12.7-10.1-18.87-30.88-18.87h-22.77v74.64h7.74v-35.3h14.71c17.94,0,21.19,4.71,23.04,20.91l1.68,14.39h8.1l-2.78-19.6c-1.51-9.82-6.91-15.57-16.46-17.46Zm-28.28-34.73h14.18c16.81,0,23.98,5,23.98,16.72s-8.28,17.02-24.61,17.02h-13.55V57.21Z"/><path d="M574.97,54.32h-4.77l-33.04,74.74h4.89l10.53-24.73h36.47l11.27,24.73h8.76l-34.12-74.74Zm-21.07,47.06l16.83-39.5,16.95,39.5h-33.79Z"/></svg>